<?xml version="1.0" encoding="UTF-8" standalone="no"?>
<svg
   xmlns:dc="http://purl.org/dc/elements/1.1/"
   xmlns:cc="http://creativecommons.org/ns#"
   xmlns:rdf="http://www.w3.org/1999/02/22-rdf-syntax-ns#"
   xmlns:svg="http://www.w3.org/2000/svg"
   xmlns="http://www.w3.org/2000/svg"
   xmlns:sodipodi="http://sodipodi.sourceforge.net/DTD/sodipodi-0.dtd"
   xmlns:inkscape="http://www.inkscape.org/namespaces/inkscape"
   id="Layer_1"
   data-name="Layer 1"
   viewBox="0 0 531.36 638.75677"
   version="1.1"
   sodipodi:docname="fight-night-logo.svg"
   inkscape:version="0.92.3 (2405546, 2018-03-11)"
   inkscape:export-filename="C:\Users\davyk\OneDrive\Tekken 254\Pictures\Logos\Savanna-Fight-Night.png"
   inkscape:export-xdpi="96"
   inkscape:export-ydpi="96"
   width="531.35999"
   height="638.75677">
  <metadata
     id="metadata59">
    <rdf:RDF>
      <cc:Work
         rdf:about="">
        <dc:format>image/svg+xml</dc:format>
        <dc:type
           rdf:resource="http://purl.org/dc/dcmitype/StillImage" />
        <dc:title>Savanah-FGC</dc:title>
      </cc:Work>
    </rdf:RDF>
  </metadata>
  <sodipodi:namedview
     pagecolor="#ffffff"
     bordercolor="#666666"
     borderopacity="1"
     objecttolerance="10"
     gridtolerance="10"
     guidetolerance="10"
     inkscape:pageopacity="0"
     inkscape:pageshadow="2"
     inkscape:window-width="2400"
     inkscape:window-height="1271"
     id="namedview57"
     showgrid="false"
     inkscape:zoom="0.70710678"
     inkscape:cx="-688.68504"
     inkscape:cy="309.40192"
     inkscape:window-x="2391"
     inkscape:window-y="-9"
     inkscape:window-maximized="1"
     inkscape:current-layer="text842"
     fit-margin-top="0"
     fit-margin-left="0"
     fit-margin-right="0"
     fit-margin-bottom="0" />
  <defs
     id="defs4">
    <style
       id="style2">.cls-1{fill:#39b44a;}.cls-2{fill:#bc0f34;}.cls-3{fill:#fff;}</style>
  </defs>
  <title
     id="title6">Savanah-FGC</title>
  <path
     class="cls-1"
     d="m 173.905,28.24 c -11.34,6.33 -22.54,15.28 -33.24,25.59 9.48,8.53 18.36,19.59 23.49,33.52 a 201.14,201.14 0 0 0 -32.67,-24.2 394.27,394.27 0 0 0 -27.6,33.09 c 16.11,4.23 32.37,9.37 38,14.08 0,0 -25,0.49 -48.670002,0.61 a 588.19,588.19 0 0 0 -33,52.86 q 3.09,13.38 6.75,25.93 c 12.89,-8.76 27.12,-16.4 39.000002,-17.73 0,0 -16.660002,17.5 -33.290002,36.06 a 434.82,434.82 0 0 0 16.39,41.63 146.22,146.22 0 0 1 20.180002,-15.11 c -6.69,6.71 -10.550002,18.82 -12.780002,30.56 Q 104.285,280.59 112.775,294.38 a 193.82,193.82 0 0 1 15.13,-28.28 c -5.55,12.49 -6.8,27.87 -6.26,42.05 a 382.13,382.13 0 0 0 24.74,32.79 c 3.44,-11.18 7.36,-20.29 7.36,-20.29 -0.56,7.55 1.39,20.33 4,33.11 a 364,364 0 0 0 44.76,41 V 64.2 c -8.44,-10.92 -18.66,-23.98 -28.6,-35.96 z"
     id="path8"
     inkscape:connector-curvature="0"
     style="fill:none;stroke:#ffffff;stroke-width:2.5;stroke-miterlimit:4;stroke-dasharray:none;stroke-opacity:1" />
  <path
     d="m 310.605,87.38 c -0.82,-7 18,-49.79 25.06,-65.67 0,0 -30.21,-20.46 -70,-20.46 -28.45,0 -52,10.48 -63.12,16.44 h -0.09 c -4.35,2.34 -6.75,4 -6.75,4 1.71,3.84 4.11,9.25 6.75,15.36 l 0.09,0.2 c 8.27,19.11 18.83,44.83 18.22,50.11 -3,-3.28 -9.7,-12.08 -18.22,-23.07 v 330.54 c 35.57,27.43 63.11,37.76 63.11,37.76 v 0 0 c 0,0 36.15,-13.56 79.11,-50.86 V 43.88 c -15.48,19.53 -29.51,38.34 -34.16,43.5 z"
     id="path10"
     inkscape:connector-curvature="0"
     style="fill:none;stroke:#ffffff;stroke-width:2.5;stroke-miterlimit:4;stroke-dasharray:none;stroke-opacity:1" />
  <path
     class="cls-2"
     d="m 373.675,353.76 c 2.58,-12.78 4.53,-25.56 4,-33.11 0,0 3.92,9.11 7.36,20.29 a 382.13,382.13 0 0 0 24.74,-32.79 c 0.54,-14.18 -0.71,-29.56 -6.26,-42.05 a 193.82,193.82 0 0 1 15.13,28.28 q 8.46,-13.78 16.31,-29.25 c -2.23,-11.74 -6.09,-23.85 -12.78,-30.56 a 146.9,146.9 0 0 1 20.18,15.11 434.82,434.82 0 0 0 16.34,-41.6 c -16.63,-18.56 -33.29,-36.06 -33.29,-36.06 11.9,1.33 26.13,9 39,17.73 q 3.66,-12.57 6.74,-25.92 a 588.19,588.19 0 0 0 -33,-52.86 c -23.64,-0.12 -48.68,-0.61 -48.68,-0.61 5.68,-4.71 21.94,-9.85 38.05,-14.08 a 394.27,394.27 0 0 0 -27.6,-33.09 201.52,201.52 0 0 0 -32.68,24.2 c 5.14,-13.93 14,-25 23.5,-33.52 -10.7,-10.34 -21.91,-19.29 -33.24,-25.62 -4.2,5.06 -8.45,10.32 -12.59,15.53 v 337.9 a 367.35,367.35 0 0 0 28.77,-27.92 z"
     id="path12"
     inkscape:connector-curvature="0"
     style="fill:none;stroke:#ffffff;stroke-width:2.5;stroke-miterlimit:4;stroke-dasharray:none;stroke-opacity:1" />
  <g
     id="g888"
     transform="translate(4.5117435,1.25)">
    <path
       style="fill:#ffffff"
       inkscape:connector-curvature="0"
       id="path14"
       d="m 283.12499,171.5 -1.95,-1.29 a 20.67,20.67 0 0 1 11.4,-3.54 36.92,36.92 0 0 1 14.91,2.44 c 12.42,4.79 25.42,7.09 38.54,8.84 a 146,146 0 0 0 25.6,1.15 58.54,58.54 0 0 0 14.44,-2.34 c 12.75,-3.85 17.91,-14 13.52,-26.56 -2.86,-8.21 -7.84,-15.15 -13.42,-21.68 a 210.52,210.52 0 0 0 -34,-31.3 1,1 0 0 1 -0.42,-0.46 65.83,65.83 0 0 1 10.28,4.07 c 17.72,8.21 34.34,18.16 48.94,31.27 7.08,6.36 13.63,13.22 18.65,21.37 10.06,16.35 7,33.32 -8.25,45.05 -10.95,8.43 -23.34,12.13 -37.21,11.75 -17.37,-0.48 -34.41,-3.34 -51.5,-6 a 64.6,64.6 0 0 0 -10.59,-0.79 c -4.48,0 -8.63,0.91 -12,4.64 a 64.12,64.12 0 0 0 -2.63,-9.62 33.2,33.2 0 0 0 -4.43,-8.61 c -0.41,3 -3,4 -4.93,5.14 -7.33,4.24 -15.2,6.84 -23.84,6.27 a 11.61,11.61 0 0 1 -7.77,-3.25 c -0.36,-0.36 -0.56,-0.84 -1.22,-0.17 -3.41,3.51 -7.79,3.84 -12.28,3.44 a 45.67,45.67 0 0 1 -21.83,-7.74 5.43,5.43 0 0 1 -2.63,-3.77 49.34,49.34 0 0 0 -6.91,18.15 c -6.49,-6.27 -14.33,-4.74 -21.95,-3.75 -12.64,1.65 -25.15,4.26 -37.88,5.24 -7.66,0.59 -15.38,1.45 -23,0.53 -16.06,-1.92 -29.64,-8.62 -38.44,-22.74 -6.159997,-9.89 -5.319997,-20.25 -0.19,-30.4 4.19,-8.28 10.34,-15.08 17,-21.42 17.62,-16.85 38.35,-28.8 60.72,-38.12 0.55,-0.24 1.12,-0.81 1.84,-0.4 v 0 c -6.11,5 -12.3,9.81 -18.08,15.16 -9.38,8.69 -18.33,17.76 -25,28.78 -3.1,5.12 -5.52,10.5 -5.94,16.61 -0.62,9.18 5.17,15.74 12.49,18.51 a 51.19,51.19 0 0 0 16.05,3.11 174.72,174.72 0 0 0 59.22,-8 c 5.1,-1.57 10,-3.7 15.39,-4.22 5.82,-0.57 11.44,0 16.74,3.36 l -4.15,2.37 a 31.78,31.78 0 0 0 -8.25,6.24 l 9.35,-5.49 1.48,-0.76 a 3.1,3.1 0 0 0 1.64,-0.7 c 4.94,-1 10,-1.32 14.83,-3 a 2.46,2.46 0 0 1 1.55,0.25 48.89,48.89 0 0 0 10.37,2 17,17 0 0 1 5.7,1.73 c 3.51,1.74 6.83,3.82 10.25,5.76 a 38.43,38.43 0 0 0 -10.21,-7.11 z m 11.27,7.79 a 0.77,0.77 0 0 0 -0.74,-0.63 0.29,0.29 0 0 0 -0.23,0.42 0.8,0.8 0 0 0 0.72,0.52 c 0.09,-0.02 0.19,-0.23 0.25,-0.31 z"
       class="cls-3" />
    <path
       style="fill:#ffffff"
       inkscape:connector-curvature="0"
       id="path16"
       d="m 265.75499,386.05 c -3.3,-7.52 -9.86,-10.8 -16.91,-13.4 -2.24,-0.83 -4.63,-1.25 -6.9,-2 -8.53,-3 -12.74,-9.33 -13.71,-18 a 23.31,23.31 0 0 1 4.61,-17.35 c 4.14,-5.43 5.32,-12 6.13,-18.61 a 189.18,189.18 0 0 0 1.09,-29.67 c -0.34,-10 -1.95,-19.81 -7,-28.7 -2.72,-4.8 -6.28,-8.6 -11.93,-9.93 a 4.38,4.38 0 0 1 -3.09,-2.89 9.94,9.94 0 0 1 -0.66,-4.33 6.74,6.74 0 0 0 -2.05,-5.42 c -4.83,-5 -3.63,-17.55 6.09,-19.22 a 10.93,10.93 0 0 1 4.76,0.19 c 6.77,1.84 13.53,3.65 20.29,5.51 a 42.35,42.35 0 0 1 12.48,6.24 c 4.61,3.17 9,3.25 13.48,-0.05 6.91,-5 15.05,-7 23.14,-9.13 2.9,-0.75 5.83,-1.43 8.69,-2.34 7.94,-2.51 15.56,3 14.39,12.9 a 10.41,10.41 0 0 1 -2.77,6.08 7,7 0 0 0 -1.9,5.3 c 0.16,4.72 -1,6.22 -5.51,7.71 -4.66,1.54 -7.61,5.06 -10,9.1 -3.84,6.5 -5.62,13.68 -6.52,21.08 -1.26,10.4 -0.61,20.81 -0.16,31.23 a 67.4,67.4 0 0 0 3.27,18.12 26.56,26.56 0 0 0 4.15,7.74 c 9.44,12.52 2.9,31.29 -12.2,35.08 a 51.86,51.86 0 0 0 -9.4,3.37 30.13,30.13 0 0 0 -6.58,4.17 16.48,16.48 0 0 0 -5.28,7.22 z m 23.68,-44.41 a 33.81,33.81 0 0 1 5.38,3.7 c 4.83,4 5,8.6 0.44,13 -3.07,2.95 -6.95,4.38 -10.85,5.79 -2.81,1 -5.78,1.69 -8.3,3.4 -1.07,0.73 -2.77,1.5 -2.37,2.87 0.45,1.54 2.37,1.36 3.7,1.17 a 30.83,30.83 0 0 0 23,-14.91 6.92,6.92 0 0 0 0.39,-6.74 c -2.27,-4.86 -6.76,-6.68 -11.39,-8.28 z m -48.5,0.51 c -1.72,0.22 -3.95,1.33 -6.46,3.21 -4.79,3.57 -5.61,8.14 -2.29,13.08 3,4.44 7.18,7.47 11.79,10 a 24.78,24.78 0 0 0 10.09,3.14 c 1.38,0.1 3.22,0.36 3.72,-1.11 0.5,-1.47 -1.23,-2.36 -2.39,-3 a 34.63,34.63 0 0 0 -4.73,-2.12 c -2.24,-0.86 -4.53,-1.58 -6.77,-2.45 a 20.46,20.46 0 0 1 -8.73,-5.81 c -2.93,-3.56 -2.79,-7.24 0.42,-10.56 a 23.23,23.23 0 0 1 4.24,-3.33 c 0.38,-0.32 1.02,-0.38 1.11,-1.05 z m -13,-102.93 c -1.79,-8.56 -6.11,-12.65 -12.52,-11.59 6.89,1.26 9.94,6.17 12.51,11.59 z m 75.76,0.29 c 2.51,-5.9 5.78,-10.59 12.66,-12 -7.51,-0.93 -11.93,5.07 -12.67,12 z m -86.63,-7.82 c -0.57,4.87 1.55,7.34 5.57,6.61 -3.83,-0.92 -4.82,-2.12 -5.57,-6.61 z m 97.19,1.95 a 6.47,6.47 0 0 1 -5.44,4.68 c 3.25,0.87 6.14,-1.68 5.44,-4.68 z m -95.19,-0.86 a 1.06,1.06 0 0 0 1.05,-1.14 1,1 0 0 0 -1,-1 1,1 0 0 0 -1.08,1.11 c 0.08,0.61 0.48,0.9 1.03,1.03 z m 94.49,-1.2 c -0.19,-0.5 -0.48,-1 -1.1,-0.92 a 1,1 0 0 0 -1,1.25 0.91,0.91 0 0 0 1.13,0.84 1.11,1.11 0 0 0 0.97,-1.17 z"
       class="cls-3" />
    <path
       style="fill:#ffffff"
       inkscape:connector-curvature="0"
       id="path18"
       d="m 225.55499,255.65 a 19.56,19.56 0 0 1 4.9,11.95 35.36,35.36 0 0 1 -2.39,16.12 c -3.2,8 -2.67,16.08 -0.9,24.21 0.67,3.06 1.54,6.07 2.4,9.37 a 50.81,50.81 0 0 1 -6.17,-15.41 c -1.45,11.92 0.28,23.52 3.47,35 a 57.14,57.14 0 0 1 -5.88,-16.8 c -2.61,-13.32 -0.84,-26.31 2.92,-39.16 0.87,-2.94 1.93,-5.84 2.61,-8.82 1.41,-6.23 1.15,-9.82 -0.96,-16.46 z"
       class="cls-3" />
    <path
       style="fill:#ffffff"
       inkscape:connector-curvature="0"
       id="path20"
       d="m 305.81499,256.17 c -2.79,7.32 -1.47,14.4 0.85,21.52 3.48,10.67 5.61,21.58 5.07,32.89 a 64.79,64.79 0 0 1 -5.11,22.53 c -0.25,0.6 -0.23,1.5 -1.43,1.71 2.86,-11.07 4.51,-22.14 3.05,-33.51 -1.31,5 -2.44,10 -5.62,14.19 0.72,-2.81 1.43,-5.6 2,-8.43 1.47,-7.4 2.07,-14.71 -0.68,-22 -2.49,-6.64 -3.79,-13.51 -2.32,-20.64 a 15.17,15.17 0 0 1 4.19,-8.26 z"
       class="cls-3" />
    <path
       style="fill:#ffffff"
       inkscape:connector-curvature="0"
       id="path22"
       d="m 290.30499,383.99 c -13.66,13.37 -37.39,12 -48.75,0.13 16.24,6.76 32.29,6.76 48.75,-0.13 z"
       class="cls-3" />
    <path
       style="fill:#ffffff"
       inkscape:connector-curvature="0"
       id="path24"
       d="m 293.61499,378.42 c 8.07,-7.26 12,-16.5 13.32,-27.21 2.8,11.37 -4.49,26.17 -13.32,27.21 z"
       class="cls-3" />
    <path
       style="fill:#ffffff"
       inkscape:connector-curvature="0"
       id="path26"
       d="m 238.33499,378.94 c -11.31,-4.86 -16,-16.28 -13.71,-27.12 4.24,16.46 4.24,16.46 13.71,27.12 z"
       class="cls-3" />
  </g>
  <path
     class="cls-3"
     d="m 218.915,254.63 c 0.51,-0.25 0.41,0.31 0.6,0.48 0,0 0,0.1 0,0.16 l -0.54,-0.69 z"
     id="path28"
     inkscape:connector-curvature="0"
     style="fill:#ffffff" />
  <path
     class="cls-3"
     d="m 179.655,98.15 c -0.21,-0.22 0,-0.28 0.15,-0.33 0.15,-0.05 0.11,0 0.17,0 l -0.36,0.26 z"
     id="path30"
     inkscape:connector-curvature="0"
     style="fill:#ffffff" />
  <path
     d="m 33.800005,547.03 q -11.53,0 -19.44,-4.1 A 51,51 0 0 1 5.159378e-6,531.69 L 17.680005,517.83 a 22.17,22.17 0 0 0 7.16,7.56 16.46,16.46 0 0 0 9,2.71 10.5,10.5 0 0 0 7.16,-2.42 7.33,7.33 0 0 0 2.76,-5.65 q 0,-4.74 -13.38,-8.54 l -2.19,-0.69 q -4,-1.15 -6.81,-2.2 a 46.67,46.67 0 0 1 -6.34,-3 21.85,21.85 0 0 1 -5.7099998,-4.44 21.63,21.63 0 0 1 -3.73,-6.33 23.11,23.11 0 0 1 -1.56,-8.71 23.75,23.75 0 0 1 8.2499998,-18.46 q 8.25,-7.38 21,-7.38 18.12,0 30,13.38 l -16.15,12.34 q -5.03,-8.17 -13.68,-8.17 a 10.26,10.26 0 0 0 -6.64,2 6.24,6.24 0 0 0 -2.48,5 q 0,3.12 3.35,4.9 a 59.63,59.63 0 0 0 10.15,3.87 c 0.92,0.23 1.62,0.42 2.08,0.57 2.77,0.85 5.09,1.64 7,2.37 a 46,46 0 0 1 6.46,3.23 25.61,25.61 0 0 1 5.88,4.56 20.15,20.15 0 0 1 3.81,6.34 23.57,23.57 0 0 1 1.56,8.77 26.09,26.09 0 0 1 -8.37,19.49 q -8.39,8.11 -22.46,8.1 z"
     id="path32"
     style="fill:#ffffff"
     inkscape:connector-curvature="0" />
  <path
     d="m 69.800005,545.76 28.88,-84.21 h 19.380005 l 28.84,84.21 h -20.46 l -4,-12.34 H 94.140005 l -4,12.34 z m 38.530005,-55.26 -8.08,24.57 h 16.15 z"
     id="path34"
     style="fill:#ffffff"
     inkscape:connector-curvature="0" />
  <path
     d="m 163.47001,545.76 -27.22,-84.21 h 20.88 l 16.72,52.6 16.27,-52.6 h 20.65 l -26.53,84.21 z"
     id="path36"
     style="fill:#ffffff"
     inkscape:connector-curvature="0" />
  <path
     d="m 200.39001,545.76 28.84,-84.21 h 19.38 l 28.84,84.21 h -20.42 l -4,-12.34 h -28.3 l -4,12.34 z m 38.53,-55.26 -8.08,24.57 h 16.15 z"
     id="path38"
     style="fill:#ffffff"
     inkscape:connector-curvature="0" />
  <path
     d="m 287.68001,545.76 v -84.21 h 21.46 l 30.46,48 v -48 h 20 v 84.21 h -19.92 l -31.84,-50.41 v 50.41 z"
     id="path40"
     style="fill:#ffffff"
     inkscape:connector-curvature="0" />
  <path
     d="m 372.27001,545.76 v -84.21 h 21.46 l 30.46,48 v -48 h 20 v 84.21 h -20 l -31.84,-50.41 v 50.41 z"
     id="path42"
     style="fill:#ffffff"
     inkscape:connector-curvature="0" />
  <path
     d="m 454.30001,545.76 28.84,-84.21 h 19.38 l 28.84,84.21 h -20.42 l -4,-12.34 h -28.26 l -4,12.34 z m 38.53,-55.26 -8.08,24.57 h 16.15 z"
     id="path44"
     style="fill:#ffffff"
     inkscape:connector-curvature="0" />
  <g
     aria-label="FIGHT NIGHT"
     style="font-style:normal;font-weight:normal;font-size:91.90644836px;line-height:1.25;font-family:sans-serif;letter-spacing:0px;word-spacing:0px;fill:#000000;fill-opacity:1;stroke:none;stroke-width:2.2976613"
     id="text842">
    <path
       d="M 8.5830688e-8,637.83771 V 570.746 H 37.957363 v 12.22356 H 12.774996 v 15.07266 h 25.182367 v 12.22355 H 12.774996 v 27.57194 z"
       style="font-style:normal;font-variant:normal;font-weight:normal;font-stretch:normal;font-family:'Sharp Sans No1 Bold';-inkscape-font-specification:'Sharp Sans No1 Bold, ';fill:#ffffff;stroke-width:2.2976613"
       id="path856" />
    <path
       d="M 45.335726,637.83771 V 570.746 h 12.774997 v 67.09171 z"
       style="font-style:normal;font-variant:normal;font-weight:normal;font-stretch:normal;font-family:'Sharp Sans No1 Bold';-inkscape-font-specification:'Sharp Sans No1 Bold, ';fill:#ffffff;stroke-width:2.2976613"
       id="path858" />
    <path
       d="m 98.872665,638.75677 q -15.348377,0 -25.09046,-10.0178 -9.742084,-10.10971 -9.742084,-24.44712 0,-14.52121 9.742084,-24.44711 9.83399,-10.0178 24.539021,-10.0178 10.201614,0 18.105574,4.68722 7.99586,4.68723 12.40737,12.49928 l -11.21259,6.80108 q -6.24964,-11.58021 -19.208447,-11.58021 -9.098738,0 -15.440283,6.52535 -6.249639,6.43346 -6.249639,15.53219 0,9.28256 6.249639,15.71601 6.341545,6.34154 15.899815,6.34154 7.168705,0 12.131655,-3.76816 5.05485,-3.76817 6.89298,-10.29353 H 96.850723 v -12.22355 h 34.832547 v 5.14676 q 0,13.96978 -9.19065,23.80377 -9.09874,9.74208 -23.619955,9.74208 z"
       style="font-style:normal;font-variant:normal;font-weight:normal;font-stretch:normal;font-family:'Sharp Sans No1 Bold';-inkscape-font-specification:'Sharp Sans No1 Bold, ';fill:#ffffff;stroke-width:2.2976613"
       id="path860" />
    <path
       d="m 175.19092,637.83771 v -27.48003 h -25.27428 v 27.48003 H 137.14165 V 570.746 h 12.77499 v 27.38812 h 25.27428 V 570.746 h 12.77499 v 67.09171 z"
       style="font-style:normal;font-variant:normal;font-weight:normal;font-stretch:normal;font-family:'Sharp Sans No1 Bold';-inkscape-font-specification:'Sharp Sans No1 Bold, ';fill:#ffffff;stroke-width:2.2976613"
       id="path862" />
    <path
       d="M 211.75246,637.83771 V 582.96956 H 193.92261 V 570.746 h 48.4347 v 12.22356 h -17.82985 v 54.86815 z"
       style="font-style:normal;font-variant:normal;font-weight:normal;font-stretch:normal;font-family:'Sharp Sans No1 Bold';-inkscape-font-specification:'Sharp Sans No1 Bold, ';fill:#ffffff;stroke-width:2.2976613"
       id="path864" />
    <path
       d="M 270.69321,637.83771 V 570.746 h 14.52122 l 28.49099,45.12607 V 570.746 h 12.775 v 67.09171 H 312.87827 L 283.4682,591.24114 v 46.59657 z"
       style="font-style:normal;font-variant:normal;font-weight:normal;font-stretch:normal;font-family:'Sharp Sans No1 Bold';-inkscape-font-specification:'Sharp Sans No1 Bold, ';fill:#ffffff;stroke-width:2.2976613"
       id="path866" />
    <path
       d="M 334.33844,637.83771 V 570.746 h 12.77499 v 67.09171 z"
       style="font-style:normal;font-variant:normal;font-weight:normal;font-stretch:normal;font-family:'Sharp Sans No1 Bold';-inkscape-font-specification:'Sharp Sans No1 Bold, ';fill:#ffffff;stroke-width:2.2976613"
       id="path868" />
    <path
       d="m 387.87537,638.75677 q -15.34838,0 -25.09046,-10.0178 -9.74209,-10.10971 -9.74209,-24.44712 0,-14.52121 9.74209,-24.44711 9.83399,-10.0178 24.53902,-10.0178 10.20161,0 18.10557,4.68722 7.99586,4.68723 12.40737,12.49928 l -11.21259,6.80108 q -6.24964,-11.58021 -19.20845,-11.58021 -9.09873,0 -15.44028,6.52535 -6.24964,6.43346 -6.24964,15.53219 0,9.28256 6.24964,15.71601 6.34155,6.34154 15.89982,6.34154 7.1687,0 12.13165,-3.76816 5.05485,-3.76817 6.89298,-10.29353 h -21.04658 v -12.22355 h 34.83255 v 5.14676 q 0,13.96978 -9.19065,23.80377 -9.09874,9.74208 -23.61995,9.74208 z"
       style="font-style:normal;font-variant:normal;font-weight:normal;font-stretch:normal;font-family:'Sharp Sans No1 Bold';-inkscape-font-specification:'Sharp Sans No1 Bold, ';fill:#ffffff;stroke-width:2.2976613"
       id="path870" />
    <path
       d="m 464.19362,637.83771 v -27.48003 h -25.27428 v 27.48003 H 426.14435 V 570.746 h 12.77499 v 27.38812 h 25.27428 V 570.746 h 12.77499 v 67.09171 z"
       style="font-style:normal;font-variant:normal;font-weight:normal;font-stretch:normal;font-family:'Sharp Sans No1 Bold';-inkscape-font-specification:'Sharp Sans No1 Bold, ';fill:#ffffff;stroke-width:2.2976613"
       id="path872" />
    <path
       d="M 500.75515,637.83771 V 582.96956 H 482.9253 V 570.746 H 531.36 v 12.22356 h -17.82986 v 54.86815 z"
       style="font-style:normal;font-variant:normal;font-weight:normal;font-stretch:normal;font-family:'Sharp Sans No1 Bold';-inkscape-font-specification:'Sharp Sans No1 Bold, ';fill:#ffffff;stroke-width:2.2976613"
       id="path874" />
  </g>
</svg>
