<?xml version="1.0" encoding="UTF-8" standalone="no"?>
<svg
   xmlns:dc="http://purl.org/dc/elements/1.1/"
   xmlns:cc="http://creativecommons.org/ns#"
   xmlns:rdf="http://www.w3.org/1999/02/22-rdf-syntax-ns#"
   xmlns:svg="http://www.w3.org/2000/svg"
   xmlns="http://www.w3.org/2000/svg"
   xmlns:sodipodi="http://sodipodi.sourceforge.net/DTD/sodipodi-0.dtd"
   xmlns:inkscape="http://www.inkscape.org/namespaces/inkscape"
   id="Layer_1"
   data-name="Layer 1"
   viewBox="0 0 533.19813 670.14373"
   version="1.1"
   sodipodi:docname="savanna-circuit-white.svg"
   inkscape:version="1.0.2 (e86c870879, 2021-01-15, custom)"
   inkscape:export-filename="K:\DVK\OneDrive\Ace Pro Gaming\Tekken 254\Pictures\Logos\Savanna-Circuit White.png"
   inkscape:export-xdpi="96"
   inkscape:export-ydpi="96"
   width="533.19812"
   height="670.14374">
  <metadata
     id="metadata59">
    <rdf:RDF>
      <cc:Work
         rdf:about="">
        <dc:format>image/svg+xml</dc:format>
        <dc:type
           rdf:resource="http://purl.org/dc/dcmitype/StillImage" />
        <dc:title>Savanah-FGC</dc:title>
      </cc:Work>
    </rdf:RDF>
  </metadata>
  <sodipodi:namedview
     pagecolor="#ffffff"
     bordercolor="#666666"
     borderopacity="1"
     objecttolerance="10"
     gridtolerance="10"
     guidetolerance="10"
     inkscape:pageopacity="0"
     inkscape:pageshadow="2"
     inkscape:window-width="1920"
     inkscape:window-height="1001"
     id="namedview57"
     showgrid="false"
     inkscape:zoom="0.70710678"
     inkscape:cx="387.9554"
     inkscape:cy="340.78889"
     inkscape:window-x="-9"
     inkscape:window-y="-9"
     inkscape:window-maximized="1"
     inkscape:current-layer="text842"
     fit-margin-top="0"
     fit-margin-left="0"
     fit-margin-right="0"
     fit-margin-bottom="0"
     inkscape:document-rotation="0" />
  <defs
     id="defs4">
    <style
       id="style2">.cls-1{fill:#39b44a;}.cls-2{fill:#bc0f34;}.cls-3{fill:#fff;}</style>
  </defs>
  <title
     id="title6">Savanah-FGC</title>
  <path
     d="m 35.638134,547.03 q -11.53,0 -19.44,-4.1 A 51,51 0 0 1 1.8381341,531.69 L 19.518134,517.83 a 22.17,22.17 0 0 0 7.16,7.56 16.46,16.46 0 0 0 9,2.71 10.5,10.5 0 0 0 7.16,-2.42 7.33,7.33 0 0 0 2.76,-5.65 q 0,-4.74 -13.38,-8.54 l -2.19,-0.69 q -4,-1.15 -6.81,-2.2 a 46.67,46.67 0 0 1 -6.34,-3 21.85,21.85 0 0 1 -5.71,-4.44 21.63,21.63 0 0 1 -3.7299999,-6.33 23.11,23.11 0 0 1 -1.56,-8.71 23.75,23.75 0 0 1 8.2499999,-18.46 q 8.25,-7.38 21,-7.38 18.12,0 30,13.38 l -16.15,12.34 q -5.03,-8.17 -13.68,-8.17 a 10.26,10.26 0 0 0 -6.64,2 6.24,6.24 0 0 0 -2.48,5 q 0,3.12 3.35,4.9 a 59.63,59.63 0 0 0 10.15,3.87 c 0.92,0.23 1.62,0.42 2.08,0.57 2.77,0.85 5.09,1.64 7,2.37 a 46,46 0 0 1 6.46,3.23 25.61,25.61 0 0 1 5.88,4.56 20.15,20.15 0 0 1 3.81,6.34 23.57,23.57 0 0 1 1.56,8.77 26.09,26.09 0 0 1 -8.37,19.49 q -8.39,8.11 -22.46,8.1 z"
     id="path32"
     style="fill:#ffffff;fill-opacity:1"
     inkscape:connector-curvature="0" />
  <path
     d="m 71.638134,545.76 28.879996,-84.21 h 19.38001 l 28.84,84.21 h -20.46 l -4,-12.34 H 95.978134 l -4,12.34 z m 38.530006,-55.26 -8.08,24.57 h 16.15 z"
     id="path34"
     style="fill:#ffffff;fill-opacity:1"
     inkscape:connector-curvature="0" />
  <path
     d="m 165.30814,545.76 -27.22,-84.21 h 20.88 l 16.72,52.6 16.27,-52.6 h 20.65 l -26.53,84.21 z"
     id="path36"
     style="fill:#ffffff;fill-opacity:1"
     inkscape:connector-curvature="0" />
  <path
     d="m 202.22814,545.76 28.84,-84.21 h 19.38 l 28.84,84.21 h -20.42 l -4,-12.34 h -28.3 l -4,12.34 z m 38.53,-55.26 -8.08,24.57 h 16.15 z"
     id="path38"
     style="fill:#ffffff;fill-opacity:1"
     inkscape:connector-curvature="0" />
  <path
     d="m 289.51814,545.76 v -84.21 h 21.46 l 30.46,48 v -48 h 20 v 84.21 h -19.92 l -31.84,-50.41 v 50.41 z"
     id="path40"
     style="fill:#ffffff;fill-opacity:1"
     inkscape:connector-curvature="0" />
  <path
     d="m 374.10814,545.76 v -84.21 h 21.46 l 30.46,48 v -48 h 20 v 84.21 h -20 l -31.84,-50.41 v 50.41 z"
     id="path42"
     style="fill:#ffffff;fill-opacity:1"
     inkscape:connector-curvature="0" />
  <path
     d="m 456.13814,545.76 28.84,-84.21 h 19.38 l 28.84,84.21 h -20.42 l -4,-12.34 h -28.26 l -4,12.34 z m 38.53,-55.26 -8.08,24.57 h 16.15 z"
     id="path44"
     style="fill:#ffffff;fill-opacity:1"
     inkscape:connector-curvature="0" />
  <g
     aria-label="CIRCUIT"
     id="text842"
     style="font-style:normal;font-weight:normal;font-size:145.845px;line-height:1.25;font-family:sans-serif;letter-spacing:0px;word-spacing:0px;fill:#ffffff;fill-opacity:0.941176;stroke:none;stroke-width:3.64612">
    <path
       d="m 54.691882,670.14375 q -24.21027,0 -39.523996,-15.75126 Q 6.3037872e-6,638.64123 6.3037872e-6,615.45188 6.3037872e-6,591.82499 15.751266,576.36542 31.502527,560.76 54.691882,560.76 q 14.730345,0 27.12717,7.14641 12.396825,7.1464 19.543228,19.25154 l -17.793088,11.37591 q -9.62577,-17.79309 -28.87731,-17.79309 -14.87619,0 -24.79365,10.0633 -9.771616,9.91746 -9.771616,24.64781 0,14.43865 9.771616,24.50196 9.771615,9.91746 24.356115,9.91746 10.50084,0 18.230625,-5.39627 7.729785,-5.39626 11.95929,-14.43865 l 18.522318,9.77161 q -7.146408,13.85528 -19.980768,22.16844 -12.688515,8.16732 -28.29393,8.16732 z"
       style="font-style:normal;font-variant:normal;font-weight:normal;font-stretch:normal;font-family:'Sharp Sans No1 Bold';-inkscape-font-specification:'Sharp Sans No1 Bold, ';fill:#ffffff;fill-opacity:0.941176;stroke-width:3.64612"
       id="path24" />
    <path
       d="M 110.84202,668.6853 V 562.21845 h 20.27245 V 668.6853 Z"
       style="font-style:normal;font-variant:normal;font-weight:normal;font-stretch:normal;font-family:'Sharp Sans No1 Bold';-inkscape-font-specification:'Sharp Sans No1 Bold, ';fill:#ffffff;fill-opacity:0.941176;stroke-width:3.64612"
       id="path26" />
    <path
       d="M 143.51102,668.6853 V 562.21845 h 33.39851 q 17.93893,0 28.58562,10.20915 10.64668,10.06331 10.64668,25.52288 0,10.50084 -5.25042,19.10569 -5.10457,8.60486 -15.31372,12.54267 l 24.21027,39.08646 H 196.5986 l -31.94005,-52.65004 h 9.91746 q 10.79253,0 15.8971,-5.54211 5.25042,-5.68796 5.25042,-12.54267 0,-16.77218 -21.14752,-16.77218 h -10.79253 v 87.507 z"
       style="font-style:normal;font-variant:normal;font-weight:normal;font-stretch:normal;font-family:'Sharp Sans No1 Bold';-inkscape-font-specification:'Sharp Sans No1 Bold, ';fill:#ffffff;fill-opacity:0.941176;stroke-width:3.64612"
       id="path28" />
    <path
       d="m 279.58428,670.14375 q -24.21027,0 -39.524,-15.75126 -15.16788,-15.75126 -15.16788,-38.94061 0,-23.62689 15.75126,-39.08646 15.75126,-15.60542 38.94062,-15.60542 14.73034,0 27.12717,7.14641 12.39682,7.1464 19.54323,19.25154 l -17.79309,11.37591 q -9.62577,-17.79309 -28.87731,-17.79309 -14.87619,0 -24.79365,10.0633 -9.77162,9.91746 -9.77162,24.64781 0,14.43865 9.77162,24.50196 9.77161,9.91746 24.35611,9.91746 10.50084,0 18.23063,-5.39627 7.72978,-5.39626 11.95929,-14.43865 l 18.52231,9.77161 q -7.1464,13.85528 -19.98076,22.16844 -12.68852,8.16732 -28.29393,8.16732 z"
       style="font-style:normal;font-variant:normal;font-weight:normal;font-stretch:normal;font-family:'Sharp Sans No1 Bold';-inkscape-font-specification:'Sharp Sans No1 Bold, ';fill:#ffffff;fill-opacity:0.941176;stroke-width:3.64612"
       id="path30" />
    <path
       d="m 401.21882,660.22629 q -10.64668,9.91746 -27.85639,9.91746 -17.20971,0 -27.8564,-9.91746 -10.50084,-9.91746 -10.50084,-28.43977 v -69.56807 h 20.27246 v 70.88067 q 0,7.72979 5.10457,12.98021 5.25042,5.25042 12.83436,5.25042 7.72979,0 12.98021,-5.25042 5.39626,-5.39627 5.39626,-12.98021 v -70.88067 h 20.27246 v 69.56807 q 0,18.52231 -10.64669,28.43977 z"
       style="font-style:normal;font-variant:normal;font-weight:normal;font-stretch:normal;font-family:'Sharp Sans No1 Bold';-inkscape-font-specification:'Sharp Sans No1 Bold, ';fill:#ffffff;fill-opacity:0.941176;stroke-width:3.64612"
       id="path33" />
    <path
       d="M 424.2621,668.6853 V 562.21845 h 20.27245 V 668.6853 Z"
       style="font-style:normal;font-variant:normal;font-weight:normal;font-stretch:normal;font-family:'Sharp Sans No1 Bold';-inkscape-font-specification:'Sharp Sans No1 Bold, ';fill:#ffffff;fill-opacity:0.941176;stroke-width:3.64612"
       id="path35" />
    <path
       d="m 483.03738,668.6853 v -87.06946 h -28.29393 v -19.39739 h 76.86032 v 19.39739 h -28.29393 v 87.06946 z"
       style="font-style:normal;font-variant:normal;font-weight:normal;font-stretch:normal;font-family:'Sharp Sans No1 Bold';-inkscape-font-specification:'Sharp Sans No1 Bold, ';fill:#ffffff;fill-opacity:0.941176;stroke-width:3.64612"
       id="path37" />
  </g>
  <path
     class="cls-3"
     d="m 292.96224,109.28798 -2.85121,-1.88618 a 30.222839,30.222839 0 0 1 16.66862,-5.17605 53.982932,53.982932 0 0 1 21.8008,3.56767 c 18.16002,7.00374 37.1681,10.36671 56.35163,12.92549 a 213.4753,213.4753 0 0 0 37.43129,1.68148 85.594823,85.594823 0 0 0 21.11358,-3.42145 c 18.64254,-5.62931 26.18728,-20.470234 19.7684,-38.834958 -4.18178,-12.00433 -11.46333,-22.151718 -19.62218,-31.69962 A 307.81384,307.81384 0 0 0 393.90974,0.67876631 1.4621596,1.4621596 0 0 1 393.29563,0.0061729 a 96.253966,96.253966 0 0 1 15.031,5.9509896 c 25.90947,12.0043305 50.21057,26.5528185 71.5581,45.7217305 10.35209,9.299335 19.92923,19.32975 27.26927,31.246351 14.70933,23.906306 10.23512,48.719156 -12.06281,65.870286 -16.01065,12.32601 -34.12681,17.736 -54.40696,17.18038 -25.39772,-0.70184 -50.31292,-4.88361 -75.30122,-8.77296 a 94.45551,94.45551 0 0 0 -15.48427,-1.1551 c -6.55048,0 -12.61844,1.33056 -17.54592,6.78442 a 93.753674,93.753674 0 0 0 -3.84548,-14.06598 48.543699,48.543699 0 0 0 -6.47737,-12.58919 c -0.59948,4.38648 -4.38647,5.84863 -7.20844,7.5155 -10.71763,6.19955 -22.22483,10.00117 -34.85789,9.16774 a 16.975673,16.975673 0 0 1 -11.36098,-4.75202 c -0.52637,-0.52638 -0.81881,-1.22822 -1.78383,-0.24857 -4.98597,5.13218 -11.39022,5.61469 -17.95532,5.02983 a 66.776829,66.776829 0 0 1 -31.91895,-11.31711 7.9395266,7.9395266 0 0 1 -3.84548,-5.51235 72.142955,72.142955 0 0 0 -10.10352,26.5382 c -9.48941,-9.16774 -20.95275,-6.93064 -32.0944,-5.4831 -18.4817,2.41257 -36.77332,6.2288 -55.38661,7.66172 -11.20014,0.86267 -22.488012,2.12013 -33.629668,0.77494 C 58.402599,162.74454 38.546472,152.94807 25.679467,132.30237 16.672568,117.84162 17.900783,102.69364 25.401657,87.852722 31.528106,75.74604 40.520387,65.803355 50.25837,56.533263 76.021622,31.895874 106.33219,14.423067 139.0407,0.79573908 c 0.80419,-0.3509183 1.63762,-1.18434928 2.69037,-0.58486384 v 0 C 132.79728,7.5216732 123.74651,14.554661 115.29523,22.377215 101.58017,35.083382 88.493844,48.345169 78.741239,64.458168 c -4.532695,7.486257 -8.071121,15.352676 -8.685228,24.286471 -0.906539,13.422621 7.559365,23.014391 18.262374,27.064571 a 74.84795,74.84795 0 0 0 23.467665,4.54732 255.46853,255.46853 0 0 0 86.58909,-11.69728 c 7.45701,-2.29559 14.62159,-5.40999 22.50263,-6.17031 8.50977,-0.83343 16.72711,0 24.47656,4.91286 l -6.06797,3.46531 a 46.467432,46.467432 0 0 0 -12.06281,9.12388 l 13.67119,-8.02726 2.16399,-1.11124 a 4.5326948,4.5326948 0 0 0 2.39795,-1.02351 c 7.22307,-1.46216 14.62159,-1.93005 21.68382,-4.38648 a 3.5969126,3.5969126 0 0 1 2.26635,0.36554 71.484983,71.484983 0 0 0 15.1626,2.92432 24.856713,24.856713 0 0 1 8.33431,2.52954 c 5.13218,2.54415 9.98655,5.58545 14.98713,8.42204 a 56.190793,56.190793 0 0 0 -14.92865,-10.39596 z m 16.47854,11.39022 a 1.1258629,1.1258629 0 0 0 -1.082,-0.92116 0.42402628,0.42402628 0 0 0 -0.33629,0.61411 1.1697277,1.1697277 0 0 0 1.05275,0.76032 c 0.1316,-0.0292 0.27781,-0.33629 0.36554,-0.45327 z"
     id="path14-2"
     inkscape:connector-curvature="0"
     style="fill:#166734;stroke-width:1.46215963;fill-opacity:1" />
  <path
     class="cls-3"
     d="m 267.56453,422.99432 c -4.82513,-10.99544 -14.41689,-15.79132 -24.72512,-19.59294 -3.27524,-1.21359 -6.7698,-1.82769 -10.0889,-2.92431 -12.47222,-4.38648 -18.62791,-13.64195 -20.04621,-26.31888 a 34.08294,34.08294 0 0 1 6.74056,-25.36847 c 6.05334,-7.93952 7.77869,-17.54591 8.96304,-27.21079 a 276.61135,276.61135 0 0 0 1.59375,-43.38227 c -0.49713,-14.6216 -2.85121,-28.96538 -10.23512,-41.96398 -3.97707,-7.01837 -9.18236,-12.57457 -17.44356,-14.51925 a 6.404259,6.404259 0 0 1 -4.51807,-4.22564 14.533866,14.533866 0 0 1 -0.96503,-6.33115 9.8549557,9.8549557 0 0 0 -2.99743,-7.9249 c -7.06223,-7.3108 -5.30764,-25.66091 8.90455,-28.10271 a 15.981404,15.981404 0 0 1 6.95988,0.27781 c 9.89882,2.69037 19.78302,5.33688 29.66722,8.0565 a 61.922459,61.922459 0 0 1 18.24775,9.12387 c 6.74056,4.63505 13.15944,4.75202 19.70992,-0.0731 10.10352,-7.3108 22.0055,-10.23512 33.83437,-13.34952 4.24026,-1.09662 8.52439,-2.09089 12.70617,-3.42145 11.60954,-3.67003 22.7512,4.38647 21.04047,18.86185 a 15.221081,15.221081 0 0 1 -4.05018,8.88993 10.235117,10.235117 0 0 0 -2.7781,7.74945 c 0.23394,6.90139 -1.46216,9.09463 -8.0565,11.27325 -6.81367,2.25173 -11.12704,7.39853 -14.6216,13.30565 -5.61469,9.50404 -8.21733,20.00235 -9.53328,30.82233 -1.84232,15.20646 -0.89192,30.42754 -0.23394,45.66324 a 98.549557,98.549557 0 0 0 4.78126,26.49433 38.834959,38.834959 0 0 0 6.06796,11.31712 c 13.80279,18.30624 4.24026,45.75097 -17.83835,51.29256 a 75.827597,75.827597 0 0 0 -13.7443,4.92748 44.054869,44.054869 0 0 0 -9.62101,6.0972 24.09639,24.09639 0 0 0 -7.7202,10.55679 z m 34.62394,-64.9345 a 49.435616,49.435616 0 0 1 7.86642,5.40999 c 7.06223,5.84863 7.3108,12.57457 0.64335,19.00807 -4.48883,4.31337 -10.16201,6.40426 -15.86443,8.46591 -4.10867,1.46215 -8.45129,2.47104 -12.13593,4.97134 -1.56451,1.06737 -4.05018,2.19324 -3.46532,4.1964 0.65798,2.25172 3.46532,1.98853 5.40999,1.71072 a 45.07838,45.07838 0 0 0 33.62967,-21.8008 10.118144,10.118144 0 0 0 0.57025,-9.85495 c -3.31911,-7.1061 -9.8842,-9.76723 -16.654,-12.10668 z m -70.91474,0.7457 c -2.51492,0.32167 -5.77553,1.94467 -9.44555,4.69353 -7.00375,5.21991 -8.20272,11.90198 -3.34835,19.12505 4.38648,6.49199 10.49831,10.92233 17.23886,14.62159 a 36.232315,36.232315 0 0 0 14.75319,4.59118 c 2.01778,0.14622 4.70816,0.52638 5.43924,-1.62299 0.73108,-2.14938 -1.79846,-3.4507 -3.49456,-4.38648 a 50.634587,50.634587 0 0 0 -6.91602,-3.09978 c -3.27524,-1.25746 -6.62358,-2.31021 -9.89882,-3.58229 a 29.915785,29.915785 0 0 1 -12.76465,-8.49515 c -4.28413,-5.20529 -4.07943,-10.58603 0.6141,-15.4404 a 33.965968,33.965968 0 0 1 6.19956,-4.869 c 0.55562,-0.46789 1.4914,-0.55562 1.623,-1.53526 z M 212.26565,208.30543 c -2.61726,-12.51609 -8.93379,-18.49632 -18.30623,-16.94643 10.07428,1.84232 14.53386,9.02152 18.29161,16.94643 z m 110.77322,0.42403 c 3.67002,-8.62675 8.45128,-15.48427 18.51094,-17.54592 -10.98082,-1.35981 -17.44357,7.41315 -18.52557,17.54592 z M 196.37198,197.29537 c -0.83343,7.12071 2.26635,10.73225 8.14423,9.66487 -5.60007,-1.34518 -7.04761,-3.09978 -8.14423,-9.66487 z m 142.10729,2.85121 a 9.4601726,9.4601726 0 0 1 -7.95415,6.84291 c 4.75202,1.27207 8.97766,-2.45643 7.95415,-6.84291 z M 199.2963,198.88912 a 1.5498892,1.5498892 0 0 0 1.53527,-1.66686 1.4621596,1.4621596 0 0 0 -1.46216,-1.46216 1.4621596,1.4621596 0 0 0 -1.57914,1.623 c 0.11698,0.89191 0.70184,1.31594 1.50603,1.50602 z m 138.15946,-1.75459 c -0.27781,-0.73108 -0.70184,-1.46216 -1.60838,-1.34519 a 1.4621596,1.4621596 0 0 0 -1.46216,1.8277 1.3305652,1.3305652 0 0 0 1.65224,1.22822 1.6229972,1.6229972 0 0 0 1.4183,-1.71073 z"
     id="path16-3"
     inkscape:connector-curvature="0"
     style="fill:#ffffff;stroke-width:1.46215963" />
  <path
     class="cls-3"
     d="m 208.78571,232.32871 a 28.599842,28.599842 0 0 1 7.16459,17.47281 51.701963,51.701963 0 0 1 -3.49457,23.57001 c -4.67891,11.69728 -3.90396,23.51153 -1.31594,35.39889 0.97965,4.4742 2.25173,8.8753 3.50918,13.70043 a 74.292329,74.292329 0 0 1 -9.02152,-22.53188 c -2.12013,17.42894 0.4094,34.39 5.07369,51.17559 a 83.5478,83.5478 0 0 1 -8.5975,-24.56428 c -3.81623,-19.47597 -1.22821,-38.46942 4.26951,-57.25817 1.27208,-4.29875 2.82197,-8.53902 3.81624,-12.89625 2.06164,-9.10926 1.68148,-14.35841 -1.40368,-24.06715 z"
     id="path18-8"
     inkscape:connector-curvature="0"
     style="fill:#ba2025;stroke-width:1.46215963;fill-opacity:1" />
  <path
     class="cls-3"
     d="m 326.13864,233.08903 c -4.07942,10.70301 -2.14937,21.0551 1.24284,31.46568 5.08831,15.60124 8.20271,31.5534 7.41315,48.09043 a 94.73332,94.73332 0 0 1 -7.47164,32.94245 c -0.36554,0.8773 -0.33629,2.19324 -2.09089,2.5003 4.18178,-16.18611 6.59434,-32.37222 4.45959,-48.99697 -1.91543,7.3108 -3.56767,14.6216 -8.21734,20.74804 1.05276,-4.10866 2.09089,-8.18809 2.92432,-12.326 2.14938,-10.81998 3.02667,-21.50837 -0.99426,-32.16751 -3.64078,-9.70874 -5.54159,-19.75378 -3.39222,-30.17898 a 22.180961,22.180961 0 0 1 6.12645,-12.07744 z"
     id="path20-6"
     inkscape:connector-curvature="0"
     style="fill:#ba2025;stroke-width:1.46215963;fill-opacity:1" />
  <path
     class="cls-3"
     d="m 303.46055,419.98227 c -19.9731,19.54908 -54.67015,17.54592 -71.28028,0.19009 23.74547,9.88419 47.21313,9.88419 71.28028,-0.19009 z"
     id="path22-3"
     inkscape:connector-curvature="0"
     style="fill:#ba2025;stroke-width:1.46215963;fill-opacity:1" />
  <path
     class="cls-3"
     d="m 308.3003,411.83805 c 11.79962,-10.61528 17.54591,-24.12564 19.47596,-39.78537 4.09405,16.62476 -6.56509,38.26472 -19.47596,39.78537 z"
     id="path24-3"
     inkscape:connector-curvature="0"
     style="fill:#ba2025;stroke-width:1.46215963;fill-opacity:1" />
  <path
     class="cls-3"
     d="m 227.47211,412.59837 c -16.53702,-7.1061 -23.39455,-23.80396 -20.0462,-39.65377 6.19955,24.06715 6.19955,24.06715 20.0462,39.65377 z"
     id="path26-9"
     inkscape:connector-curvature="0"
     style="fill:#ba2025;stroke-width:1.46215963;fill-opacity:1" />
</svg>
