<?xml version="1.0" encoding="UTF-8" standalone="no"?>
<!-- Generator: Adobe Illustrator 24.0.0, SVG Export Plug-In . SVG Version: 6.00 Build 0)  -->

<svg
   xmlns:dc="http://purl.org/dc/elements/1.1/"
   xmlns:cc="http://creativecommons.org/ns#"
   xmlns:rdf="http://www.w3.org/1999/02/22-rdf-syntax-ns#"
   xmlns:svg="http://www.w3.org/2000/svg"
   xmlns="http://www.w3.org/2000/svg"
   xmlns:sodipodi="http://sodipodi.sourceforge.net/DTD/sodipodi-0.dtd"
   xmlns:inkscape="http://www.inkscape.org/namespaces/inkscape"
   version="1.1"
   id="Layer_1"
   x="0px"
   y="0px"
   viewBox="0 0 1643.5596 2000"
   xml:space="preserve"
   sodipodi:docname="Savanna-FGC-2.svg"
   width="1643.5596"
   height="2000"
   inkscape:version="0.92.3 (2405546, 2018-03-11)"
   inkscape:export-filename="C:\Users\davyk\OneDrive\Tekken 254\Pictures\Logos\Savanna-FGC-2.png"
   inkscape:export-xdpi="96"
   inkscape:export-ydpi="96"><metadata
   id="metadata19131"><rdf:RDF><cc:Work
       rdf:about=""><dc:format>image/svg+xml</dc:format><dc:type
         rdf:resource="http://purl.org/dc/dcmitype/StillImage" /><dc:title /></cc:Work></rdf:RDF></metadata><defs
   id="defs19129" /><sodipodi:namedview
   pagecolor="#ffffff"
   bordercolor="#666666"
   borderopacity="1"
   objecttolerance="10"
   gridtolerance="10"
   guidetolerance="10"
   inkscape:pageopacity="0"
   inkscape:pageshadow="2"
   inkscape:window-width="1920"
   inkscape:window-height="1001"
   id="namedview19127"
   showgrid="false"
   fit-margin-top="0"
   fit-margin-left="0"
   fit-margin-right="0"
   fit-margin-bottom="0"
   inkscape:zoom="0.1875"
   inkscape:cx="2769.2777"
   inkscape:cy="2025.1681"
   inkscape:window-x="-9"
   inkscape:window-y="-9"
   inkscape:window-maximized="1"
   inkscape:current-layer="g2790" />
<style
   type="text/css"
   id="style2">
	.Half_x0020_Highlight_x0020_Blue{fill:url(#SVGID_1_);stroke:#FFFFFF;stroke-width:0.25;stroke-miterlimit:1;}
	.st0{opacity:0.3;clip-path:url(#SVGID_4_);}
	.st1{fill:#5E5E5E;}
	.st2{fill:#39B44A;}
	.st3{fill:#BC0F34;}
	.st4{fill:#FFFFFF;}
	.st5{opacity:0.3;clip-path:url(#SVGID_7_);}
	.st6{font-family:'SharpSansNo1-Medium';}
	.st7{font-size:75.3042px;}
	.st8{letter-spacing:4;}
	.st9{opacity:0.3;clip-path:url(#SVGID_10_);}
	.st10{opacity:0.3;clip-path:url(#SVGID_13_);}
	.st11{opacity:0.3;clip-path:url(#SVGID_16_);}
	.st12{fill:#38637E;}
	.st13{fill:#6F90BE;}
	.st14{fill:none;}
	.st15{fill:#4B7FA2;}
	.st16{fill:url(#XMLID_1100_);}
	.st17{fill:url(#XMLID_1101_);}
	.st18{fill:url(#XMLID_1102_);}
	.st19{fill:url(#XMLID_1103_);}
	.st20{fill:url(#XMLID_1104_);}
	.st21{fill:url(#XMLID_1105_);}
	.st22{fill:url(#XMLID_1106_);}
	.st23{fill:#8B2529;}
	.st24{fill:#3E673A;}
	.st25{opacity:0.3;clip-path:url(#SVGID_19_);}
	.st26{clip-path:url(#XMLID_1107_);}
	.st27{clip-path:url(#XMLID_1108_);}
	.st28{clip-path:url(#XMLID_1109_);}
	.st29{clip-path:url(#XMLID_1110_);}
	.st30{fill:#333333;}
	.st31{clip-path:url(#XMLID_1111_);}
	.st32{clip-path:url(#XMLID_1112_);}
	.st33{clip-path:url(#XMLID_1113_);}
	.st34{clip-path:url(#XMLID_1114_);}
	.st35{fill:#F7D830;}
	.st36{fill:url(#XMLID_1115_);}
	.st37{fill:url(#XMLID_1116_);}
	.st38{fill:url(#XMLID_1117_);}
	.st39{fill:url(#XMLID_1118_);}
	.st40{fill:url(#XMLID_1119_);}
	.st41{fill:url(#XMLID_1120_);}
	.st42{fill:url(#XMLID_1121_);}
	.st43{clip-path:url(#XMLID_1122_);}
	.st44{clip-path:url(#XMLID_1123_);}
	.st45{clip-path:url(#XMLID_1124_);}
	.st46{clip-path:url(#XMLID_1125_);}
	.st47{clip-path:url(#XMLID_1126_);}
	.st48{clip-path:url(#XMLID_1127_);}
	.st49{clip-path:url(#XMLID_1128_);}
	.st50{clip-path:url(#XMLID_1129_);}
	.st51{fill:url(#XMLID_1130_);}
	.st52{fill:url(#XMLID_1131_);}
	.st53{fill:url(#XMLID_1132_);}
	.st54{fill:url(#XMLID_1133_);}
	.st55{fill:url(#XMLID_1134_);}
	.st56{fill:url(#XMLID_1135_);}
	.st57{fill:url(#XMLID_1136_);}
	.st58{clip-path:url(#XMLID_1137_);}
	.st59{clip-path:url(#XMLID_1138_);}
	.st60{clip-path:url(#XMLID_1139_);}
	.st61{clip-path:url(#XMLID_1140_);}
	.st62{clip-path:url(#XMLID_1141_);}
	.st63{clip-path:url(#XMLID_1142_);}
	.st64{clip-path:url(#XMLID_1143_);}
	.st65{clip-path:url(#XMLID_1144_);}
</style>
<linearGradient
   id="SVGID_1_"
   gradientUnits="userSpaceOnUse"
   x1="-2907.6799"
   y1="-1527.92"
   x2="-2907.6799"
   y2="-1528.92">
	<stop
   offset="0"
   style="stop-color:#0017B7"
   id="stop4" />
	<stop
   offset="0.618"
   style="stop-color:#00138F"
   id="stop6" />
	<stop
   offset="0.6292"
   style="stop-color:#000EA5"
   id="stop8" />
	<stop
   offset="0.9831"
   style="stop-color:#00629D"
   id="stop10" />
</linearGradient>

<g
   id="g2790"
   transform="matrix(3.7531902,0,0,3.7531902,8628.0964,8084.7095)">
	
	
	<g
   id="g2776"
   transform="translate(-5.3316644e-6)">
		<path
   d="m -2271.01,-1704.3 c -6.34,0 -11.68,-1.12 -16.02,-3.37 -4.34,-2.25 -8.29,-5.34 -11.84,-9.27 l 14.55,-11.41 c 1.58,2.66 3.55,4.74 5.89,6.23 2.34,1.49 4.82,2.23 7.42,2.23 2.41,0 4.37,-0.67 5.89,-2 1.52,-1.33 2.28,-2.88 2.28,-4.66 0,-2.6 -3.68,-4.94 -11.03,-7.04 -0.82,-0.25 -1.43,-0.44 -1.81,-0.57 -2.22,-0.63 -4.09,-1.24 -5.61,-1.81 -1.52,-0.57 -3.27,-1.41 -5.23,-2.52 -1.97,-1.11 -3.53,-2.33 -4.71,-3.66 -1.17,-1.33 -2.19,-3.06 -3.04,-5.18 -0.86,-2.12 -1.28,-4.52 -1.28,-7.18 0,-6.08 2.27,-11.15 6.8,-15.21 4.53,-4.06 10.32,-6.08 17.35,-6.08 9.95,0 18.19,3.68 24.72,11.03 l -13.31,10.17 c -2.79,-4.5 -6.56,-6.75 -11.31,-6.75 -2.28,0 -4.1,0.56 -5.47,1.66 -1.36,1.11 -2.04,2.49 -2.04,4.14 0,1.71 0.92,3.06 2.76,4.04 1.84,0.98 4.63,2.04 8.37,3.18 0.76,0.19 1.33,0.35 1.71,0.48 2.28,0.7 4.2,1.35 5.75,1.95 1.55,0.6 3.33,1.49 5.32,2.66 2,1.17 3.61,2.42 4.85,3.76 1.24,1.33 2.28,3.07 3.14,5.23 0.86,2.16 1.28,4.56 1.28,7.23 0,6.27 -2.3,11.63 -6.89,16.07 -4.59,4.43 -10.75,6.65 -18.49,6.65 z"
   id="path2762"
   inkscape:connector-curvature="0" />
		<path
   d="m -2241.34,-1705.35 23.77,-69.4 h 15.97 l 23.77,69.4 h -16.83 l -3.33,-10.17 h -23.29 l -3.33,10.17 z m 31.75,-45.54 -6.66,20.25 h 13.31 z"
   id="path2764"
   inkscape:connector-curvature="0" />
		<path
   d="m -2164.15,-1705.35 -22.44,-69.4 h 17.21 l 13.79,43.35 13.41,-43.35 h 17.02 l -21.87,69.4 z"
   id="path2766"
   inkscape:connector-curvature="0" />
		<path
   d="m -2133.72,-1705.35 23.77,-69.4 h 15.97 l 23.77,69.4 h -16.83 l -3.33,-10.17 h -23.29 l -3.33,10.17 z m 31.75,-45.54 -6.66,20.25 h 13.31 z"
   id="path2768"
   inkscape:connector-curvature="0" />
		<path
   d="m -2061.75,-1705.35 v -69.4 h 17.68 l 25.1,39.55 v -39.55 h 16.45 v 69.4 h -16.45 l -26.24,-41.55 v 41.55 z"
   id="path2770"
   inkscape:connector-curvature="0" />
		<path
   d="m -1992.07,-1705.35 v -69.4 h 17.68 l 25.1,39.55 v -39.55 h 16.45 v 69.4 h -16.45 l -26.24,-41.55 v 41.55 z"
   id="path2772"
   inkscape:connector-curvature="0" />
		<path
   d="m -1924.47,-1705.35 23.77,-69.4 h 15.97 l 23.77,69.4 h -16.83 l -3.33,-10.17 h -23.29 l -3.33,10.17 z m 31.76,-45.54 -6.65,20.25 h 13.31 z"
   id="path2774"
   inkscape:connector-curvature="0" />
	</g>
	<g
   id="g2788"
   transform="translate(-2.3500053)">
		<path
   d="m -2195.63,-1622.07 v -63.33 h 35.83 v 6.42 h -29.06 v 21.95 h 29.06 v 6.42 h -29.06 v 28.54 z"
   id="path2778"
   inkscape:connector-curvature="0" />
		<path
   d="m -2144.02,-1622.07 v -11.88 h 6.77 v 11.88 z"
   id="path2780"
   inkscape:connector-curvature="0" />
		<path
   d="m -2089.54,-1621.21 c -9.14,0 -16.89,-3.17 -23.25,-9.5 -6.36,-6.33 -9.54,-14.01 -9.54,-23.03 0,-9.08 3.14,-16.77 9.41,-23.08 6.27,-6.3 14.18,-9.46 23.73,-9.46 6.01,0 11.49,1.47 16.44,4.42 4.95,2.95 8.83,6.97 11.67,12.06 l -5.9,3.38 c -2.2,-4.11 -5.24,-7.37 -9.11,-9.8 -3.88,-2.43 -8.24,-3.64 -13.1,-3.64 -7.75,0 -14.05,2.52 -18.91,7.55 -4.86,5.03 -7.29,11.22 -7.29,18.56 0,7.23 2.46,13.39 7.37,18.48 4.91,5.09 11.07,7.63 18.48,7.63 7.17,0 12.91,-2.01 17.22,-6.03 4.31,-4.02 6.87,-9.27 7.68,-15.74 h -25.42 v -6.42 h 32.44 v 1.91 c 0,9.14 -2.85,16.87 -8.54,23.21 -5.7,6.34 -13.49,9.5 -23.38,9.5 z"
   id="path2782"
   inkscape:connector-curvature="0" />
		<path
   d="m -2042.78,-1622.07 v -11.88 h 6.77 v 11.88 z"
   id="path2784"
   inkscape:connector-curvature="0" />
		<path
   d="m -1988.56,-1621.21 c -8.97,0 -16.63,-3.18 -22.99,-9.54 -6.36,-6.36 -9.54,-14.02 -9.54,-22.99 0,-8.96 3.18,-16.63 9.54,-22.99 6.36,-6.36 14.02,-9.54 22.99,-9.54 5.9,0 11.35,1.47 16.35,4.42 5,2.95 8.95,6.91 11.84,11.88 l -5.81,3.38 c -2.2,-4.05 -5.28,-7.27 -9.24,-9.67 -3.96,-2.4 -8.34,-3.6 -13.14,-3.6 -7.23,0 -13.3,2.55 -18.22,7.63 -4.92,5.09 -7.37,11.25 -7.37,18.48 0,7.23 2.46,13.39 7.37,18.48 4.91,5.09 10.99,7.63 18.22,7.63 5.32,0 9.96,-1.27 13.92,-3.82 3.96,-2.54 7.01,-6.01 9.15,-10.41 l 5.99,3.12 c -2.83,5.38 -6.78,9.64 -11.84,12.8 -5.07,3.17 -10.8,4.74 -17.22,4.74 z"
   id="path2786"
   inkscape:connector-curvature="0" />
	</g>
<g
   transform="matrix(0.8241529,0,0,0.8241529,-2298.8759,-2154.09)"
   id="g851"><path
     style="fill:#39b44a"
     inkscape:connector-curvature="0"
     id="path8"
     d="m 173.90499,26.99 c -11.34,6.33 -22.54,15.28 -33.24,25.59 9.48,8.53 18.36,19.59 23.49,33.52 a 201.14,201.14 0 0 0 -32.67,-24.2 394.27,394.27 0 0 0 -27.6,33.09 c 16.11,4.23 32.37,9.37 38,14.08 0,0 -25,0.49 -48.669997,0.61 a 588.19,588.19 0 0 0 -33,52.86 q 3.09,13.38 6.75,25.93 c 12.89,-8.76 27.12,-16.4 38.999997,-17.73 0,0 -16.659997,17.5 -33.289997,36.06 a 434.82,434.82 0 0 0 16.39,41.63 146.22,146.22 0 0 1 20.179997,-15.11 c -6.69,6.71 -10.549997,18.82 -12.779997,30.56 q 7.819997,15.46 16.309997,29.25 a 193.82,193.82 0 0 1 15.13,-28.28 c -5.55,12.49 -6.8,27.87 -6.26,42.05 a 382.13,382.13 0 0 0 24.74,32.79 c 3.44,-11.18 7.36,-20.29 7.36,-20.29 -0.56,7.55 1.39,20.33 4,33.11 a 364,364 0 0 0 44.76,41 V 62.95 c -8.44,-10.92 -18.66,-23.98 -28.6,-35.96 z"
     class="cls-1" /><path
     inkscape:connector-curvature="0"
     id="path10"
     d="m 310.60499,86.13 c -0.82,-7 18,-49.79 25.06,-65.67 0,0 -30.21,-20.46 -70,-20.46 -28.45,0 -52,10.48 -63.12,16.44 h -0.09 c -4.35,2.34 -6.75,4 -6.75,4 1.71,3.84 4.11,9.25 6.75,15.36 l 0.09,0.2 c 8.27,19.11 18.83,44.83 18.22,50.11 -3,-3.28 -9.7,-12.08 -18.22,-23.07 v 330.54 c 35.57,27.43 63.11,37.76 63.11,37.76 v 0 0 c 0,0 36.15,-13.56 79.11,-50.86 V 42.63 c -15.48,19.53 -29.51,38.34 -34.16,43.5 z" /><path
     style="fill:#bc0f34"
     inkscape:connector-curvature="0"
     id="path12"
     d="m 373.67499,352.51 c 2.58,-12.78 4.53,-25.56 4,-33.11 0,0 3.92,9.11 7.36,20.29 a 382.13,382.13 0 0 0 24.74,-32.79 c 0.54,-14.18 -0.71,-29.56 -6.26,-42.05 a 193.82,193.82 0 0 1 15.13,28.28 q 8.46,-13.78 16.31,-29.25 c -2.23,-11.74 -6.09,-23.85 -12.78,-30.56 a 146.9,146.9 0 0 1 20.18,15.11 434.82,434.82 0 0 0 16.34,-41.6 c -16.63,-18.56 -33.29,-36.06 -33.29,-36.06 11.9,1.33 26.13,9 39,17.73 q 3.66,-12.57 6.74,-25.92 a 588.19,588.19 0 0 0 -33,-52.86 c -23.64,-0.12 -48.68,-0.61 -48.68,-0.61 5.68,-4.71 21.94,-9.85 38.05,-14.08 a 394.27,394.27 0 0 0 -27.6,-33.09 201.52,201.52 0 0 0 -32.68,24.2 c 5.14,-13.93 14,-25 23.5,-33.52 -10.7,-10.34 -21.91,-19.29 -33.24,-25.62 -4.2,5.06 -8.45,10.32 -12.59,15.53 v 337.9 a 367.35,367.35 0 0 0 28.77,-27.92 z"
     class="cls-2" /><g
     transform="translate(4.5117383)"
     id="g888"><path
       class="cls-3"
       d="m 283.12499,171.5 -1.95,-1.29 a 20.67,20.67 0 0 1 11.4,-3.54 36.92,36.92 0 0 1 14.91,2.44 c 12.42,4.79 25.42,7.09 38.54,8.84 a 146,146 0 0 0 25.6,1.15 58.54,58.54 0 0 0 14.44,-2.34 c 12.75,-3.85 17.91,-14 13.52,-26.56 -2.86,-8.21 -7.84,-15.15 -13.42,-21.68 a 210.52,210.52 0 0 0 -34,-31.3 1,1 0 0 1 -0.42,-0.46 65.83,65.83 0 0 1 10.28,4.07 c 17.72,8.21 34.34,18.16 48.94,31.27 7.08,6.36 13.63,13.22 18.65,21.37 10.06,16.35 7,33.32 -8.25,45.05 -10.95,8.43 -23.34,12.13 -37.21,11.75 -17.37,-0.48 -34.41,-3.34 -51.5,-6 a 64.6,64.6 0 0 0 -10.59,-0.79 c -4.48,0 -8.63,0.91 -12,4.64 a 64.12,64.12 0 0 0 -2.63,-9.62 33.2,33.2 0 0 0 -4.43,-8.61 c -0.41,3 -3,4 -4.93,5.14 -7.33,4.24 -15.2,6.84 -23.84,6.27 a 11.61,11.61 0 0 1 -7.77,-3.25 c -0.36,-0.36 -0.56,-0.84 -1.22,-0.17 -3.41,3.51 -7.79,3.84 -12.28,3.44 a 45.67,45.67 0 0 1 -21.83,-7.74 5.43,5.43 0 0 1 -2.63,-3.77 49.34,49.34 0 0 0 -6.91,18.15 c -6.49,-6.27 -14.33,-4.74 -21.95,-3.75 -12.64,1.65 -25.15,4.26 -37.88,5.24 -7.66,0.59 -15.38,1.45 -23,0.53 -16.06,-1.92 -29.64,-8.62 -38.44,-22.74 -6.159997,-9.89 -5.319997,-20.25 -0.19,-30.4 4.19,-8.28 10.34,-15.08 17,-21.42 17.62,-16.85 38.35,-28.8 60.72,-38.12 0.55,-0.24 1.12,-0.81 1.84,-0.4 v 0 c -6.11,5 -12.3,9.81 -18.08,15.16 -9.38,8.69 -18.33,17.76 -25,28.78 -3.1,5.12 -5.52,10.5 -5.94,16.61 -0.62,9.18 5.17,15.74 12.49,18.51 a 51.19,51.19 0 0 0 16.05,3.11 174.72,174.72 0 0 0 59.22,-8 c 5.1,-1.57 10,-3.7 15.39,-4.22 5.82,-0.57 11.44,0 16.74,3.36 l -4.15,2.37 a 31.78,31.78 0 0 0 -8.25,6.24 l 9.35,-5.49 1.48,-0.76 a 3.1,3.1 0 0 0 1.64,-0.7 c 4.94,-1 10,-1.32 14.83,-3 a 2.46,2.46 0 0 1 1.55,0.25 48.89,48.89 0 0 0 10.37,2 17,17 0 0 1 5.7,1.73 c 3.51,1.74 6.83,3.82 10.25,5.76 a 38.43,38.43 0 0 0 -10.21,-7.11 z m 11.27,7.79 a 0.77,0.77 0 0 0 -0.74,-0.63 0.29,0.29 0 0 0 -0.23,0.42 0.8,0.8 0 0 0 0.72,0.52 c 0.09,-0.02 0.19,-0.23 0.25,-0.31 z"
       id="path14"
       inkscape:connector-curvature="0"
       style="fill:#ffffff" /><path
       class="cls-3"
       d="m 265.75499,386.05 c -3.3,-7.52 -9.86,-10.8 -16.91,-13.4 -2.24,-0.83 -4.63,-1.25 -6.9,-2 -8.53,-3 -12.74,-9.33 -13.71,-18 a 23.31,23.31 0 0 1 4.61,-17.35 c 4.14,-5.43 5.32,-12 6.13,-18.61 a 189.18,189.18 0 0 0 1.09,-29.67 c -0.34,-10 -1.95,-19.81 -7,-28.7 -2.72,-4.8 -6.28,-8.6 -11.93,-9.93 a 4.38,4.38 0 0 1 -3.09,-2.89 9.94,9.94 0 0 1 -0.66,-4.33 6.74,6.74 0 0 0 -2.05,-5.42 c -4.83,-5 -3.63,-17.55 6.09,-19.22 a 10.93,10.93 0 0 1 4.76,0.19 c 6.77,1.84 13.53,3.65 20.29,5.51 a 42.35,42.35 0 0 1 12.48,6.24 c 4.61,3.17 9,3.25 13.48,-0.05 6.91,-5 15.05,-7 23.14,-9.13 2.9,-0.75 5.83,-1.43 8.69,-2.34 7.94,-2.51 15.56,3 14.39,12.9 a 10.41,10.41 0 0 1 -2.77,6.08 7,7 0 0 0 -1.9,5.3 c 0.16,4.72 -1,6.22 -5.51,7.71 -4.66,1.54 -7.61,5.06 -10,9.1 -3.84,6.5 -5.62,13.68 -6.52,21.08 -1.26,10.4 -0.61,20.81 -0.16,31.23 a 67.4,67.4 0 0 0 3.27,18.12 26.56,26.56 0 0 0 4.15,7.74 c 9.44,12.52 2.9,31.29 -12.2,35.08 a 51.86,51.86 0 0 0 -9.4,3.37 30.13,30.13 0 0 0 -6.58,4.17 16.48,16.48 0 0 0 -5.28,7.22 z m 23.68,-44.41 a 33.81,33.81 0 0 1 5.38,3.7 c 4.83,4 5,8.6 0.44,13 -3.07,2.95 -6.95,4.38 -10.85,5.79 -2.81,1 -5.78,1.69 -8.3,3.4 -1.07,0.73 -2.77,1.5 -2.37,2.87 0.45,1.54 2.37,1.36 3.7,1.17 a 30.83,30.83 0 0 0 23,-14.91 6.92,6.92 0 0 0 0.39,-6.74 c -2.27,-4.86 -6.76,-6.68 -11.39,-8.28 z m -48.5,0.51 c -1.72,0.22 -3.95,1.33 -6.46,3.21 -4.79,3.57 -5.61,8.14 -2.29,13.08 3,4.44 7.18,7.47 11.79,10 a 24.78,24.78 0 0 0 10.09,3.14 c 1.38,0.1 3.22,0.36 3.72,-1.11 0.5,-1.47 -1.23,-2.36 -2.39,-3 a 34.63,34.63 0 0 0 -4.73,-2.12 c -2.24,-0.86 -4.53,-1.58 -6.77,-2.45 a 20.46,20.46 0 0 1 -8.73,-5.81 c -2.93,-3.56 -2.79,-7.24 0.42,-10.56 a 23.23,23.23 0 0 1 4.24,-3.33 c 0.38,-0.32 1.02,-0.38 1.11,-1.05 z m -13,-102.93 c -1.79,-8.56 -6.11,-12.65 -12.52,-11.59 6.89,1.26 9.94,6.17 12.51,11.59 z m 75.76,0.29 c 2.51,-5.9 5.78,-10.59 12.66,-12 -7.51,-0.93 -11.93,5.07 -12.67,12 z m -86.63,-7.82 c -0.57,4.87 1.55,7.34 5.57,6.61 -3.83,-0.92 -4.82,-2.12 -5.57,-6.61 z m 97.19,1.95 a 6.47,6.47 0 0 1 -5.44,4.68 c 3.25,0.87 6.14,-1.68 5.44,-4.68 z m -95.19,-0.86 a 1.06,1.06 0 0 0 1.05,-1.14 1,1 0 0 0 -1,-1 1,1 0 0 0 -1.08,1.11 c 0.08,0.61 0.48,0.9 1.03,1.03 z m 94.49,-1.2 c -0.19,-0.5 -0.48,-1 -1.1,-0.92 a 1,1 0 0 0 -1,1.25 0.91,0.91 0 0 0 1.13,0.84 1.11,1.11 0 0 0 0.97,-1.17 z"
       id="path16"
       inkscape:connector-curvature="0"
       style="fill:#ffffff" /><path
       class="cls-3"
       d="m 225.55499,255.65 a 19.56,19.56 0 0 1 4.9,11.95 35.36,35.36 0 0 1 -2.39,16.12 c -3.2,8 -2.67,16.08 -0.9,24.21 0.67,3.06 1.54,6.07 2.4,9.37 a 50.81,50.81 0 0 1 -6.17,-15.41 c -1.45,11.92 0.28,23.52 3.47,35 a 57.14,57.14 0 0 1 -5.88,-16.8 c -2.61,-13.32 -0.84,-26.31 2.92,-39.16 0.87,-2.94 1.93,-5.84 2.61,-8.82 1.41,-6.23 1.15,-9.82 -0.96,-16.46 z"
       id="path18"
       inkscape:connector-curvature="0"
       style="fill:#ffffff" /><path
       class="cls-3"
       d="m 305.81499,256.17 c -2.79,7.32 -1.47,14.4 0.85,21.52 3.48,10.67 5.61,21.58 5.07,32.89 a 64.79,64.79 0 0 1 -5.11,22.53 c -0.25,0.6 -0.23,1.5 -1.43,1.71 2.86,-11.07 4.51,-22.14 3.05,-33.51 -1.31,5 -2.44,10 -5.62,14.19 0.72,-2.81 1.43,-5.6 2,-8.43 1.47,-7.4 2.07,-14.71 -0.68,-22 -2.49,-6.64 -3.79,-13.51 -2.32,-20.64 a 15.17,15.17 0 0 1 4.19,-8.26 z"
       id="path20"
       inkscape:connector-curvature="0"
       style="fill:#ffffff" /><path
       class="cls-3"
       d="m 290.30499,383.99 c -13.66,13.37 -37.39,12 -48.75,0.13 16.24,6.76 32.29,6.76 48.75,-0.13 z"
       id="path22"
       inkscape:connector-curvature="0"
       style="fill:#ffffff" /><path
       class="cls-3"
       d="m 293.61499,378.42 c 8.07,-7.26 12,-16.5 13.32,-27.21 2.8,11.37 -4.49,26.17 -13.32,27.21 z"
       id="path24"
       inkscape:connector-curvature="0"
       style="fill:#ffffff" /><path
       class="cls-3"
       d="m 238.33499,378.94 c -11.31,-4.86 -16,-16.28 -13.71,-27.12 4.24,16.46 4.24,16.46 13.71,27.12 z"
       id="path26"
       inkscape:connector-curvature="0"
       style="fill:#ffffff" /></g><path
     style="fill:#ffffff"
     inkscape:connector-curvature="0"
     id="path28"
     d="m 218.91499,253.38 c 0.51,-0.25 0.41,0.31 0.6,0.48 0,0 0,0.1 0,0.16 l -0.54,-0.69 z"
     class="cls-3" /><path
     style="fill:#ffffff"
     inkscape:connector-curvature="0"
     id="path30"
     d="m 179.65499,96.9 c -0.21,-0.22 0,-0.28 0.15,-0.33 0.15,-0.05 0.11,0 0.17,0 l -0.36,0.26 z"
     class="cls-3" /></g></g>







































</svg>