<?xml version="1.0" encoding="UTF-8" standalone="no"?>
<svg
   xmlns:dc="http://purl.org/dc/elements/1.1/"
   xmlns:cc="http://creativecommons.org/ns#"
   xmlns:rdf="http://www.w3.org/1999/02/22-rdf-syntax-ns#"
   xmlns:svg="http://www.w3.org/2000/svg"
   xmlns="http://www.w3.org/2000/svg"
   xmlns:xlink="http://www.w3.org/1999/xlink"
   xmlns:sodipodi="http://sodipodi.sourceforge.net/DTD/sodipodi-0.dtd"
   xmlns:inkscape="http://www.inkscape.org/namespaces/inkscape"
   id="Layer_1"
   data-name="Layer 1"
   viewBox="0 0 2816.3947 2000"
   version="1.1"
   sodipodi:docname="t254-logo-white.svg"
   width="2816.3948"
   height="2000"
   inkscape:version="0.92.3 (2405546, 2018-03-11)"
   inkscape:export-filename="C:\Users\Davy\OneDrive\Tekken 254\Pictures\Logos\Logo.png"
   inkscape:export-xdpi="96"
   inkscape:export-ydpi="96">
  <metadata
     id="metadata53">
    <rdf:RDF>
      <cc:Work
         rdf:about="">
        <dc:format>image/svg+xml</dc:format>
        <dc:type
           rdf:resource="http://purl.org/dc/dcmitype/StillImage" />
        <dc:title>Artboard 1</dc:title>
      </cc:Work>
    </rdf:RDF>
  </metadata>
  <sodipodi:namedview
     pagecolor="#ffffff"
     bordercolor="#666666"
     borderopacity="1"
     objecttolerance="10"
     gridtolerance="10"
     guidetolerance="10"
     inkscape:pageopacity="0"
     inkscape:pageshadow="2"
     inkscape:window-width="1920"
     inkscape:window-height="1001"
     id="namedview51"
     showgrid="false"
     fit-margin-top="0"
     fit-margin-left="0"
     fit-margin-right="0"
     fit-margin-bottom="0"
     inkscape:zoom="0.23850157"
     inkscape:cx="620.91623"
     inkscape:cy="565.08848"
     inkscape:window-x="-9"
     inkscape:window-y="-9"
     inkscape:window-maximized="1"
     inkscape:current-layer="_Group_" />
  <defs
     id="defs15">
    <style
       id="style2">.cls-1{fill:url(#linear-gradient);}.cls-2{fill:url(#linear-gradient-2);}.cls-3{fill:url(#linear-gradient-3);}.cls-4{fill:url(#linear-gradient-4);}.cls-5{fill:url(#linear-gradient-5);}.cls-6{fill:url(#linear-gradient-6);}.cls-7{fill:url(#linear-gradient-7);}.cls-8{fill:#ba2025;}.cls-9{fill:#010101;}.cls-10{fill:#166734;}</style>
    <linearGradient
       id="linear-gradient"
       x1="182.06"
       y1="22.85"
       x2="182.06"
       y2="174.13"
       gradientUnits="userSpaceOnUse">
      <stop
         offset="0"
         stop-color="#d12027"
         id="stop4" />
      <stop
         offset="1"
         stop-color="#741112"
         id="stop6" />
    </linearGradient>
    <linearGradient
       id="linear-gradient-2"
       x1="183.39"
       y1="22.85"
       x2="183.39"
       y2="174.13"
       xlink:href="#linear-gradient" />
    <linearGradient
       id="linear-gradient-3"
       x1="383.13"
       y1="22.85"
       x2="383.13"
       y2="174.13"
       xlink:href="#linear-gradient" />
    <linearGradient
       id="linear-gradient-4"
       x1="329.44"
       y1="22.85"
       x2="329.44"
       y2="174.13"
       xlink:href="#linear-gradient" />
    <linearGradient
       id="linear-gradient-5"
       x1="181.24001"
       y1="22.85"
       x2="181.24001"
       y2="174.13"
       xlink:href="#linear-gradient" />
    <linearGradient
       id="linear-gradient-6"
       x1="110.17"
       y1="22.85"
       x2="110.17"
       y2="174.13"
       xlink:href="#linear-gradient" />
    <linearGradient
       id="linear-gradient-7"
       x1="110.98"
       y1="22.85"
       x2="110.98"
       y2="174.13"
       xlink:href="#linear-gradient" />
    <linearGradient
       inkscape:collect="always"
       xlink:href="#linear-gradient"
       id="linearGradient3758"
       gradientUnits="userSpaceOnUse"
       x1="182.06"
       y1="22.85"
       x2="182.06"
       y2="174.13" />
  </defs>
  <title
     id="title17">Artboard 1</title>
  <g
     id="_Group_"
     data-name="&lt;Group&gt;"
     transform="matrix(7.5662233,0,0,7.5662233,-203.30442,-78.320749)">
    <path
       id="_Path_"
       data-name="&lt;Path&gt;"
       class="cls-1"
       d="m 179.41,40.74 c 2.06,-0.61 4.3,-1.55 4.42,-0.7 0.75,-0.95 1.17,-1.59 0.62,-1.64 -0.55,-0.05 -2.05,0.6 -5.04,2.34 z"
       inkscape:connector-curvature="0"
       style="fill:url(#linearGradient3758)" />
    <path
       id="_Path_2"
       data-name="&lt;Path&gt;"
       class="cls-2"
       d="m 183.83,40 c -0.29,0.36 -0.59,0.76 -1,1.2 0.35,-0.31 0.66,-0.54 1,-0.91 0.17,-0.12 0.01,-0.15 0,-0.29 z"
       inkscape:connector-curvature="0"
       style="fill:#ffffff" />
    <path
       id="_Path_3"
       data-name="&lt;Path&gt;"
       class="cls-3"
       d="m 381.59,170.29 3.08,-1.65 -0.07,-1.86 c -0.1,-1.1 -0.23,-2.58 -0.36,-4.06 -0.13,-1.48 -0.25,-2.94 -0.43,-4 -0.18,-1.06 -0.26,-1.82 -0.26,-1.82 a 11.17,11.17 0 0 0 -1.12,3.14 13.4,13.4 0 0 0 -0.29,2.9 c 0,1 0,2.05 0,3.25 a 25.6,25.6 0 0 1 -0.55,4.1 z"
       inkscape:connector-curvature="0"
       style="fill:#ffffff" />
    <path
       id="_Path_4"
       data-name="&lt;Path&gt;"
       class="cls-4"
       d="m 319.77,46.85 1,1.15 0.82,0.4 c 0.52,0.27 1.29,0.6 2.16,1.1 l 3,1.65 1.69,0.93 1.7,1.05 3.37,2.07 2.86,1.95 2,1.39 a 8.94,8.94 0 0 1 0.75,0.54 c 0,0 -0.27,-0.23 -0.78,-0.6 L 336.21,57 c -0.88,-0.63 -1.88,-1.4 -3,-2.14 l -3.53,-2.31 c -1.18,-0.8 -2.45,-1.49 -3.59,-2.17 -1.14,-0.68 -2.22,-1.33 -3.17,-1.83 z"
       inkscape:connector-curvature="0"
       style="fill:url(#linear-gradient-4)" />
    <path
       id="_Path_5"
       data-name="&lt;Path&gt;"
       class="cls-5"
       d="m 178.54,37.84 a 10.6,10.6 0 0 1 3.28,-3.4 19.29,19.29 0 0 0 3.69,-3 l -4.36,3.35 -4.15,3.52 z"
       inkscape:connector-curvature="0"
       style="fill:url(#linear-gradient-5)" />
    <path
       id="_Path_6"
       data-name="&lt;Path&gt;"
       class="cls-6"
       d="m 108.18,118.39 c 4,5.47 -1.91,8.52 3.88,3.87 0.69,-6.85 -2.63,-1.55 -3.88,-3.87 z"
       inkscape:connector-curvature="0"
       style="fill:#ffffff" />
    <path
       id="_Path_7"
       data-name="&lt;Path&gt;"
       class="cls-7"
       d="m 111.87,144.88 a 21.4,21.4 0 0 0 -0.67,-8.18 c -1.5,2.41 -1.42,3.77 -1,4.85 0.42,1.08 1.26,1.9 1.67,3.33 z"
       inkscape:connector-curvature="0"
       style="fill:#ffffff" />
    <path
       id="_Path_8"
       data-name="&lt;Path&gt;"
       class="cls-8"
       d="m 373.94,128.56 c -2,-8 -4.93,-15.24 -8.7,-19.85 1.33,5 3.6,10.68 5.11,16.63 z"
       inkscape:connector-curvature="0"
       style="fill:#ba2025" />
    <path
       id="_Path_9"
       data-name="&lt;Path&gt;"
       class="cls-8"
       d="m 242.87,270.09 -2,0.14 c -0.69,0 -1.42,0 -2.21,0 a 32.49,32.49 0 0 1 -5.81,-0.55 16.78,16.78 0 0 1 -7.44,-4.82 c -0.94,-0.93 -1.8,-2 -2.73,-3 a 32.56,32.56 0 0 0 -3.12,-3.08 l 0.28,0.64 c 0.18,0.37 0.41,0.87 0.65,1.36 l 1,2 a 15.34,15.34 0 0 1 -5.13,-0.65 8.76,8.76 0 0 1 -2.35,-1.18 c -1.18,-0.8 -2.08,-1.47 -6.2,-1.31 l 2.35,-4.78 c -1.67,0.74 -3.79,-0.07 -5.66,-1.36 a 19,19 0 0 1 -4.2,-4.41 l -1.91,1 -1.95,1 a 48.1,48.1 0 0 1 -4.72,-6 7.66,7.66 0 0 1 -1.25,-5.27 l -1.52,3 c -0.12,-0.75 -1.34,-1.84 -2.82,-3.25 -0.76,-0.69 -1.6,-1.43 -2.46,-2.17 -0.86,-0.74 -1.65,-1.59 -2.41,-2.36 a 10.72,10.72 0 0 1 -2.91,-4.14 c -0.25,-1.08 0.44,-1.7 2.59,-1.62 -0.83,-0.27 -1.81,-0.34 -2.88,-0.69 a 6.69,6.69 0 0 1 -3.22,-2.45 l 2.09,-2.67 c -4,-3 -7.95,-7.06 -7.22,-9.33 a 6.48,6.48 0 0 0 5.62,1.15 c -0.74,-1 -1.43,-1.87 -2.09,-2.61 a 21.19,21.19 0 0 0 -1.73,-2 12,12 0 0 0 -2.91,-2.18 6,6 0 0 0 -4.6,-0.06 c -1.42,0.41 -2.89,0.93 -4.55,0.24 -1.66,-0.69 -3.73,-2.5 -6,-6.88 l 2.06,-0.76 c 0,0 -1.09,-0.83 -2.1,-1.72 l -2.08,-1.79 c 0,0 0.06,-1.46 0.25,-2.93 l 0.34,-2.9 c -4.71,-1.89 -7,-8.7 -7.81,-16.19 -0.2,-1.57 -0.34,-3.16 -0.45,-4.75 l -0.9,1.15 h -18.41 l 0.18,0.83 c 0.33,1.33 0.67,2.66 1,4 0.33,1.34 0.61,2.63 1,3.88 a 109.41,109.41 0 0 0 12.75,35.83 114.9,114.9 0 0 0 24.24,29.71 c 2.37,2.13 4.89,4.06 7.39,6 2.5,1.94 5.11,3.68 7.8,5.28 2.69,1.6 5.38,3.14 8.08,4.62 2.7,1.48 5.5,2.74 8.33,3.86 2.83,1.12 5.64,2.19 8.45,3.19 1.42,0.46 2.85,0.86 4.27,1.29 l 2.12,0.62 2.14,0.52 a 114.34,114.34 0 0 0 16.9,2.91 24.81,24.81 0 0 0 5.44,0.15 c 2,-0.21 4,-0.57 6.13,-1 l 6.3,-1.59 c 2.09,-0.62 4.14,-1.2 6.11,-1.62 a 43.06,43.06 0 0 0 -5.86,-0.39 38.8,38.8 0 0 0 -4.25,0.09 z"
       inkscape:connector-curvature="0"
       style="fill:#ba2025" />
    <path
       id="_Path_10"
       data-name="&lt;Path&gt;"
       class="cls-8"
       d="m 369.83,163 c -0.14,-1.66 -0.28,-3.36 -0.46,-5.1 l -7.46,-6.69 V 172 h -4.08 c -0.51,4.83 -1.25,9.59 -2.15,14.26 0.75,-1.62 1.27,-1 2.16,-1.45 -3.41,13.67 -10.28,27.53 -18.75,39.6 -4.22,6.07 -8.78,11.74 -13.33,17.08 -4.55,5.34 -9.14,10.29 -13.34,15.12 3.51,-2.2 7.61,-4.77 12,-7.59 a 118.65,118.65 0 0 0 13.13,-10 c 8.39,-7.56 15.27,-17.1 16.75,-25.92 a 13.88,13.88 0 0 0 3.33,-4 c 0.87,-1.59 1.65,-3.28 2.34,-4.88 a 26.82,26.82 0 0 1 2,-4.28 4.58,4.58 0 0 1 2.57,-2.29 58,58 0 0 0 3.1,-7.89 c 0.43,-1.25 0.69,-2.51 1,-3.71 0.31,-1.2 0.58,-2.38 0.74,-3.55 a 66.94,66.94 0 0 0 0.77,-13.12 c -0.04,-2.14 -0.08,-4.21 -0.32,-6.38 z"
       inkscape:connector-curvature="0"
       style="fill:#ba2025" />
    <g
       id="_Group_2"
       data-name="&lt;Group&gt;"
       style="fill:#ffffff">
      <g
         id="_Group_3"
         data-name="&lt;Group&gt;"
         style="fill:#ffffff">
        <polygon
           id="_Path_11"
           data-name="&lt;Path&gt;"
           class="cls-9"
           points="88.11,166.19 88.11,108 116.2,108 131.95,87.55 42.62,87.55 26.87,108 63.78,108 63.78,166.19 "
           style="fill:#ffffff" />
        <polygon
           id="_Path_12"
           data-name="&lt;Path&gt;"
           class="cls-9"
           points="139.75,131.33 149.22,119.04 94.46,119.04 94.46,166.31 139.96,166.31 149.36,154.15 109.15,154.15 109.15,147.72 138.19,147.72 146.6,136.98 109.15,136.98 109.15,131.33 "
           style="fill:#ffffff" />
        <path
           id="_Path_13"
           data-name="&lt;Path&gt;"
           class="cls-9"
           d="m 187,144.83 c -1.94,-1.42 -3.58,-2.59 -4.95,-3.54 0.75,-0.47 1.52,-1 2.3,-1.48 l 2.58,-1.77 c 0.94,-0.66 2,-1.43 3.21,-2.33 1.21,-0.9 2.58,-1.93 4.13,-3.11 L 212.31,119 h -21.19 l -13.64,11.51 c -2.17,1.79 -3.92,3.31 -5.27,4.56 -1.35,1.25 -2.48,2.3 -3.42,3.15 q 0.14,-1.84 0.21,-4 c 0.05,-1.41 0.07,-2.85 0.07,-4.31 V 119 h -14.7 v 47.27 h 14.7 v -13.53 c 0,-1.13 0,-2.27 -0.07,-3.43 -0.07,-1.16 -0.1,-2.27 -0.14,-3.35 q 1.2,1.2 3.14,3 1.94,1.8 5.62,5 l 14.27,12.44 H 214 L 194.43,150.78 Q 189.84,147 187,144.83 Z"
           inkscape:connector-curvature="0"
           style="fill:#ffffff" />
        <path
           id="_Path_14"
           data-name="&lt;Path&gt;"
           class="cls-9"
           d="m 251.39,144.83 c -1.94,-1.42 -3.58,-2.59 -4.95,-3.54 0.75,-0.47 1.52,-1 2.3,-1.48 0.78,-0.48 1.63,-1.11 2.57,-1.77 0.94,-0.66 2,-1.43 3.22,-2.33 1.22,-0.9 2.58,-1.93 4.13,-3.11 L 276.75,119 h -21.19 l -13.64,11.51 c -2.17,1.79 -3.92,3.31 -5.27,4.56 -1.35,1.25 -2.48,2.3 -3.42,3.15 q 0.14,-1.84 0.21,-4 c 0.05,-1.41 0.07,-2.85 0.07,-4.31 V 119 h -14.7 v 47.27 h 14.7 v -13.53 c 0,-1.13 0,-2.27 -0.07,-3.43 -0.07,-1.16 -0.1,-2.27 -0.14,-3.35 q 1.2,1.2 3.14,3 1.94,1.8 5.62,5 l 14.27,12.44 h 22.12 l -19.57,-15.62 q -4.6,-3.78 -7.49,-5.95 z"
           inkscape:connector-curvature="0"
           style="fill:#ffffff" />
        <polygon
           id="_Path_15"
           data-name="&lt;Path&gt;"
           class="cls-9"
           points="328.54,131.33 338.01,119.04 283.25,119.04 283.25,166.31 328.75,166.31 338.15,154.15 297.95,154.15 297.95,147.72 326.99,147.72 335.4,136.98 297.95,136.98 297.95,131.33 "
           style="fill:#ffffff" />
        <path
           id="_Path_16"
           data-name="&lt;Path&gt;"
           class="cls-9"
           d="m 385.78,119 v 27.77 l -29,-26 a 9.46,9.46 0 0 0 -3.15,-2.08 8.44,8.44 0 0 0 -2.72,-0.46 9.43,9.43 0 0 0 -3,0.49 6.71,6.71 0 0 0 -2.55,1.56 7.76,7.76 0 0 0 -1.76,2.75 10.94,10.94 0 0 0 -0.67,4 v 39.22 h 13.28 v -27.71 l 29,26 a 7.63,7.63 0 0 0 5.87,2.54 9.52,9.52 0 0 0 3,-0.49 6.51,6.51 0 0 0 2.58,-1.59 8.14,8.14 0 0 0 1.77,-2.79 10.87,10.87 0 0 0 0.67,-4 V 119 Z"
           inkscape:connector-curvature="0"
           style="fill:#ffffff" />
      </g>
    </g>
    <path
       id="_Compound_Path_"
       data-name="&lt;Compound Path&gt;"
       class="cls-9"
       d="m 233.74,194.21 a 6.8,6.8 0 0 1 -0.35,2.22 c -0.24,0.67 -0.55,1.57 -0.93,2.71 a 19.2,19.2 0 0 1 -3,5.66 27.51,27.51 0 0 1 -4.9,4.86 c -1.15,0.9 -2.36,1.83 -3.65,2.79 -1.29,0.96 -2.77,2.07 -4.44,3.36 -0.57,0.43 -1.21,0.89 -1.93,1.39 -0.72,0.5 -1.4,1 -2.07,1.61 a 14.24,14.24 0 0 0 2.07,0.18 15.39,15.39 0 0 0 2.44,-0.11 1.07,1.07 0 0 0 0.35,-0.07 1.68,1.68 0 0 1 0.43,-0.07 c 0.57,0 1.18,-0.07 1.83,-0.07 0.65,0 1.5,0 2.57,0 1.07,0 2.47,0.07 4.18,0.14 l 6.66,0.25 a 2.17,2.17 0 0 1 0.35,0.25 0.5,0.5 0 0 1 0.22,0.39 v 8.3 c 0,0.33 -0.23,0.57 -0.68,0.71 a 9.2,9.2 0 0 1 -1.5,0.33 12.15,12.15 0 0 1 -1.54,0.1 H 229 a 3.38,3.38 0 0 0 -1.39,1.33 c -0.27,0.5 -0.44,0.87 -0.54,1.1 a 1.46,1.46 0 0 1 -0.46,0.29 l -0.61,0.29 a 1.7,1.7 0 0 0 -0.82,1.61 c 0,0.78 -0.09,1.51 -0.18,2.18 a 0.71,0.71 0 0 1 -0.79,0.71 2,2 0 0 1 -0.64,-0.07 c -0.15,-0.05 -0.34,-0.28 -0.58,-0.71 a 4.76,4.76 0 0 1 -0.53,-1.47 c -0.12,-0.6 -0.23,-1.16 -0.32,-1.68 a 2.65,2.65 0 0 0 -1.18,-1.5 3.28,3.28 0 0 0 -1.76,-0.65 1.73,1.73 0 0 0 -1.14,0.36 2.61,2.61 0 0 0 -0.68,0.89 3.7,3.7 0 0 0 -0.32,1.11 7.89,7.89 0 0 0 -0.07,1 c 0,0.1 0,0.46 0.07,1.08 0.07,0.62 0.11,1.31 0.18,2.07 0.07,0.76 0.13,1.47 0.18,2.11 0.05,0.64 0.07,1 0.07,1.11 a 4.68,4.68 0 0 1 -0.32,1.68 1.29,1.29 0 0 1 -1.33,0.82 1.17,1.17 0 0 1 -0.93,-0.32 1.69,1.69 0 0 1 -0.39,-0.75 2.51,2.51 0 0 1 -0.07,-0.86 c 0,-0.28 0,-0.5 0,-0.64 l 0.65,-7.08 a 8.14,8.14 0 0 0 -0.29,-2.08 2.88,2.88 0 0 0 -1.07,-1.64 4.13,4.13 0 0 0 -0.93,-0.07 1.76,1.76 0 0 0 -1.68,0.71 4.37,4.37 0 0 0 -0.5,1.58 c -0.07,0.57 -0.16,1.09 -0.25,1.57 a 0.88,0.88 0 0 1 -1,0.71 c -0.53,0 -0.85,-0.16 -1,-0.5 a 5.07,5.07 0 0 1 -0.25,-1.07 3.76,3.76 0 0 0 -0.29,-1.07 c -0.14,-0.34 -0.52,-0.5 -1.14,-0.5 a 1.33,1.33 0 0 0 -1,0.43 4.83,4.83 0 0 0 -0.68,0.93 8.78,8.78 0 0 1 -0.61,0.93 1,1 0 0 1 -0.82,0.43 1.18,1.18 0 0 1 -0.46,-0.11 1.23,1.23 0 0 0 -0.47,-0.11 c -0.33,0 -0.56,0.25 -0.68,0.75 a 6.58,6.58 0 0 1 -0.25,0.9 c -0.05,0.52 -0.07,1.11 -0.07,1.75 0,0.64 0,1.25 0.07,1.82 0,0.19 0.11,0.4 0.18,0.61 a 1.17,1.17 0 0 1 0,0.61 3,3 0 0 1 -0.61,1.14 1.34,1.34 0 0 1 -1,0.57 1.06,1.06 0 0 1 -1.07,-0.67 4.33,4.33 0 0 1 -0.32,-1.51 7.19,7.19 0 0 1 0.07,-1.5 c 0.07,-0.45 0.11,-0.7 0.11,-0.75 0,-0.29 0,-0.62 0,-1 a 5.36,5.36 0 0 0 0,-1.07 c 0,-0.29 -0.11,-0.56 -0.18,-0.83 -0.07,-0.27 -0.16,-0.51 -0.25,-0.75 -0.1,-0.47 -0.22,-1 -0.36,-1.43 -0.14,-0.43 -0.26,-1 -0.36,-1.43 a 3,3 0 0 1 -0.86,-0.71 c -0.28,-0.34 -0.64,-0.72 -1.07,-1.15 a 1.62,1.62 0 0 0 -0.14,-0.61 1.27,1.27 0 0 1 -0.14,-0.53 v -6.08 a 4.9,4.9 0 0 1 0.35,-1.57 2.82,2.82 0 0 1 0.65,-1.22 11.83,11.83 0 0 1 2.28,-2 c 0.91,-0.62 1.77,-1.27 2.58,-1.93 1.1,-0.91 2.25,-1.94 3.47,-3.08 a 34.25,34.25 0 0 1 4.25,-3.36 13.75,13.75 0 0 0 1.43,-1.07 c 0.58,-0.48 1.1,-0.91 1.58,-1.29 0.19,-0.19 0.43,-0.41 0.71,-0.65 a 3.49,3.49 0 0 1 0.79,-0.5 10.83,10.83 0 0 0 2.22,-1.78 26.35,26.35 0 0 0 2.29,-2.62 17,17 0 0 0 1.78,-2.82 5.73,5.73 0 0 0 0.72,-2.5 15.83,15.83 0 0 0 -0.11,-1.68 11.12,11.12 0 0 0 -0.39,-1.94 6.24,6.24 0 0 0 -0.86,-1.78 3.25,3.25 0 0 0 -1.43,-1.18 3.58,3.58 0 0 0 -1.14,-0.15 h -2.4 a 3.07,3.07 0 0 0 -0.79,0.11 l -1.07,0.32 c -0.45,0.15 -1.16,0.36 -2.11,0.65 a 4.64,4.64 0 0 0 -1.22,0.6 16.14,16.14 0 0 0 -1.46,1.11 13.22,13.22 0 0 0 -1.4,1.4 11.47,11.47 0 0 0 -1.07,1.46 1,1 0 0 1 -0.64,0.33 4,4 0 0 1 -0.72,0.1 3.55,3.55 0 0 1 -0.93,-0.6 c -0.52,-0.41 -1.08,-0.87 -1.68,-1.4 -0.6,-0.53 -1.19,-1 -1.79,-1.54 a 10.82,10.82 0 0 0 -1.25,-1 2.07,2.07 0 0 0 -0.61,-0.36 1.77,1.77 0 0 1 -0.68,-0.5 1,1 0 0 1 -0.21,-0.43 1.52,1.52 0 0 0 -0.22,-0.5 q 0.36,-0.72 0.9,-1.65 a 7.3,7.3 0 0 1 1.11,-1.5 29.78,29.78 0 0 1 5.29,-4.4 16.05,16.05 0 0 1 5.51,-2.25 c 1,-0.14 1.74,-0.26 2.21,-0.36 0.47,-0.1 0.86,-0.15 1.15,-0.18 0.29,-0.03 0.57,0 0.86,0 h 1.36 a 39.18,39.18 0 0 1 4.39,0.32 23.9,23.9 0 0 1 5.4,1.32 2.41,2.41 0 0 1 1,0.58 10.34,10.34 0 0 0 1,0.78 12.8,12.8 0 0 1 3.25,2.9 16.58,16.58 0 0 1 3.33,7.19 18.91,18.91 0 0 1 0.33,3.41 z"
       inkscape:connector-curvature="0"
       style="fill:#ffffff" />
    <path
       id="_Compound_Path_2"
       data-name="&lt;Compound Path&gt;"
       class="cls-10"
       d="m 326.36,217.17 a 2.51,2.51 0 0 1 -0.53,0.39 1.28,1.28 0 0 1 -0.61,0.18 h -5.51 V 227 a 2.63,2.63 0 0 0 0.11,0.61 0.92,0.92 0 0 1 0,0.68 4.57,4.57 0 0 1 -0.64,1 3.32,3.32 0 0 0 -0.64,1.21 3.21,3.21 0 0 0 -0.22,1.18 5.08,5.08 0 0 1 -0.14,1.18 c -0.1,0.39 -0.26,0.61 -0.5,0.68 a 2.29,2.29 0 0 1 -0.5,0.11 0.55,0.55 0 0 1 -0.57,-0.36 3.62,3.62 0 0 1 -0.22,-0.82 3.87,3.87 0 0 1 0,-0.89 1.2,1.2 0 0 0 0,-0.58 1.7,1.7 0 0 0 0,-0.35 c 0,-0.15 -0.13,-0.22 -0.32,-0.22 h -0.43 c -0.14,0.24 -0.28,0.5 -0.43,0.79 a 5.26,5.26 0 0 0 -0.36,1 c -0.19,0.86 -0.32,1.58 -0.39,2.18 a 10.62,10.62 0 0 0 0,2 7.82,7.82 0 0 0 0.1,0.82 6.68,6.68 0 0 1 0.08,1.43 5.14,5.14 0 0 1 -0.25,1.36 0.84,0.84 0 0 1 -0.86,0.61 0.91,0.91 0 0 1 -0.9,-0.65 4.49,4.49 0 0 1 -0.28,-1.43 8.73,8.73 0 0 1 0,-1.46 c 0.05,-0.46 0.07,-0.73 0.07,-0.82 v -0.76 a 10.83,10.83 0 0 0 -0.07,-1.25 5.85,5.85 0 0 0 -0.25,-1.18 c -0.12,-0.36 -0.3,-0.53 -0.53,-0.53 a 0.58,0.58 0 0 0 -0.33,0.07 0.66,0.66 0 0 1 -0.32,0.07 0.74,0.74 0 0 1 -0.57,-0.22 3.13,3.13 0 0 1 -0.47,-0.82 6.94,6.94 0 0 0 -0.46,-1 c 0,-0.1 -0.07,-0.19 -0.21,-0.29 a 1.13,1.13 0 0 1 -0.36,-0.36 6.9,6.9 0 0 1 -0.36,-1.43 8.13,8.13 0 0 1 -0.14,-1.07 v -9.08 h -13.81 l -5.15,-0.86 h -4.87 a 5.3,5.3 0 0 1 -1.71,-3 18.34,18.34 0 0 1 -0.36,-3.64 4.28,4.28 0 0 1 0.54,-2 11.79,11.79 0 0 1 1.35,-2 c 0.55,-0.67 1.12,-1.32 1.72,-2 0.6,-0.68 1.16,-1.25 1.68,-1.82 q 3.36,-3.85 6.69,-7.62 3.33,-3.77 6.54,-7.47 c 0.38,-0.38 0.81,-0.83 1.29,-1.36 0.48,-0.53 1,-1 1.5,-1.57 0.5,-0.57 0.84,-1 1.22,-1.58 0.14,-0.19 0.49,-0.61 1,-1.25 0.51,-0.64 1.14,-1.32 1.78,-2 0.64,-0.68 1.24,-1.34 1.79,-1.89 0.55,-0.55 0.9,-0.82 1,-0.82 a 5.11,5.11 0 0 1 0.86,0.1 5.46,5.46 0 0 0 0.78,0.11 h 7.51 c 0.05,0 0.07,0.11 0.07,0.32 a 1.62,1.62 0 0 0 0.08,0.54 2.33,2.33 0 0 1 0,0.75 5.06,5.06 0 0 0 -0.08,0.68 v 7.72 c 0,0.1 0,0.27 0,0.5 0,0.23 0,0.52 0,0.83 0,0.31 0,0.59 0,0.85 0,0.26 0,0.45 0,0.54 v 13.23 l -0.36,3.65 v 0.32 c 0,0.07 0.07,0.16 0.21,0.25 h 5.51 a 0.74,0.74 0 0 1 0.54,0.29 2.9,2.9 0 0 0 0.46,0.43 z m -17.73,-9.37 v -12.59 a 75.39,75.39 0 0 0 -6,6 c -1.81,2 -3.63,4.12 -5.44,6.26 a 6.59,6.59 0 0 1 1.25,0 c 0.41,0 0.8,0.06 1.18,0.1 a 13.71,13.71 0 0 1 1.43,0.22 2.37,2.37 0 0 0 0.93,0.07 z"
       inkscape:connector-curvature="0"
       style="fill:#166734" />
    <path
       id="_Path_17"
       data-name="&lt;Path&gt;"
       class="cls-8"
       d="m 276.16,208.3 a 4.94,4.94 0 0 0 -0.4,-1.32 c -0.21,-0.5 -0.37,-0.9 -0.46,-1.18 a 24.55,24.55 0 0 0 -3.15,-4.76 16.19,16.19 0 0 0 -3.43,-3 12.29,12.29 0 0 0 -3.72,-1.61 17.41,17.41 0 0 0 -4.08,-0.46 l -8.51,0.78 v -0.35 c 0,-0.19 0,-0.65 0.11,-1.36 0.11,-0.71 0.16,-1.5 0.28,-2.36 0.12,-0.86 0.23,-1.66 0.33,-2.4 a 7.51,7.51 0 0 1 0.28,-1.47 H 273 a 0.68,0.68 0 0 0 0.46,-0.14 0.64,0.64 0 0 1 0.25,-0.14 1.57,1.57 0 0 1 0.15,-0.68 1.48,1.48 0 0 0 0.14,-0.54 v -7.58 c 0,-0.14 0,-0.23 -0.07,-0.25 a 0.3,0.3 0 0 1 -0.14,-0.18 q -0.15,-0.13 0.21,-0.36 l -24.39,-0.14 a 0.16,0.16 0 0 1 0,0.07 h -0.82 l 0.53,3.63 1.65,6.17 -4,6.58 -1.34,6.31 v -6.31 l 2.67,-8.91 -1.75,-7.47 h -0.82 v -0.21 a 2.22,2.22 0 0 1 -0.57,-0.07 2.3,2.3 0 0 0 -0.58,-0.07 4.5,4.5 0 0 0 -0.75,0.1 5.78,5.78 0 0 0 -0.89,0.25 c -0.14,0.39 -0.3,0.78 -0.47,1.18 a 6.66,6.66 0 0 0 -0.32,1 c -0.14,1 -0.3,2.12 -0.46,3.36 -0.16,1.24 -0.32,2.4 -0.47,3.47 -0.15,1.07 -0.26,2 -0.35,2.79 -0.09,0.79 -0.15,1.2 -0.15,1.25 V 202 a 6.89,6.89 0 0 0 0,0.72 1,1 0 0 0 0.25,0.64 4.07,4.07 0 0 0 1.25,1 2.57,2.57 0 0 1 0.89,0.61 3.68,3.68 0 0 0 0.93,1.21 17,17 0 0 0 1.33,1.08 6.21,6.21 0 0 0 1.39,0.78 3.57,3.57 0 0 0 1.29,0.29 4.27,4.27 0 0 0 0.79,-0.11 2.74,2.74 0 0 0 0.85,-0.32 0.79,0.79 0 0 0 0.29,-0.29 0.37,0.37 0 0 1 0.29,-0.21 c 1.09,-0.24 2.27,-0.44 3.54,-0.61 a 26.51,26.51 0 0 1 3.54,-0.25 c 0.47,0 1,0 1.57,0 a 2.47,2.47 0 0 1 1.43,0.33 9.19,9.19 0 0 1 3.36,2.93 6.26,6.26 0 0 1 1.15,3.5 2.82,2.82 0 0 1 -0.29,1.08 c -0.19,0.43 -0.39,0.85 -0.61,1.28 -0.22,0.43 -0.42,0.82 -0.6,1.15 -0.18,0.33 -0.32,0.52 -0.36,0.57 a 5.4,5.4 0 0 1 -0.5,0.68 1.69,1.69 0 0 1 -0.65,0.46 3.69,3.69 0 0 1 -0.93,0.47 l -0.86,0.32 a 7.45,7.45 0 0 1 -0.93,0.11 h -0.78 a 14.78,14.78 0 0 1 -1.65,-0.1 c -0.62,-0.07 -1.24,-0.17 -1.86,-0.29 -0.62,-0.12 -1.21,-0.25 -1.78,-0.39 a 10.15,10.15 0 0 1 -1.36,-0.43 3.28,3.28 0 0 1 -1.29,-0.65 c -0.43,-0.33 -0.84,-0.61 -1.22,-0.85 a 7,7 0 0 0 -0.57,-0.47 c -0.33,-0.26 -0.71,-0.55 -1.14,-0.86 a 13.19,13.19 0 0 0 -1.29,-0.82 2.31,2.31 0 0 0 -0.93,-0.36 1.08,1.08 0 0 0 -0.57,0.29 4.72,4.72 0 0 0 -0.5,0.43 c -0.48,0.57 -1,1.21 -1.61,1.93 -0.61,0.72 -1.18,1.43 -1.75,2.14 -0.57,0.71 -1.11,1.4 -1.61,2 -0.5,0.6 -0.9,1.18 -1.18,1.61 a 17.9,17.9 0 0 0 2,1.68 c 0.79,0.6 1.49,1.11 2.11,1.54 a 12.2,12.2 0 0 0 2.08,1.29 3.35,3.35 0 0 1 1.64,1.79 3.37,3.37 0 0 0 -0.14,0.32 0.73,0.73 0 0 0 -0.07,0.25 1,1 0 0 1 0.46,0.64 c 0.07,0.29 0.13,0.57 0.18,0.86 a 1.61,1.61 0 0 0 0.29,0.72 1,1 0 0 0 0.86,0.28 1.12,1.12 0 0 0 0.82,-0.25 1.62,1.62 0 0 0 0.36,-0.61 4.52,4.52 0 0 0 0.14,-0.75 2.42,2.42 0 0 1 0.18,-0.75 0.93,0.93 0 0 1 0.21,-0.36 1.32,1.32 0 0 1 0.29,-0.21 2.64,2.64 0 0 0 0.86,-0.18 1.53,1.53 0 0 0 0.78,-0.61 2.64,2.64 0 0 1 2,1.33 4.63,4.63 0 0 1 0.54,2.18 l -0.65,6.94 v 0.64 a 4,4 0 0 0 0.11,0.89 1.73,1.73 0 0 0 0.39,0.79 1.2,1.2 0 0 0 0.93,0.32 c 0.86,0 1.37,-0.28 1.54,-0.86 a 6.49,6.49 0 0 0 0.25,-1.86 l -0.5,-6.65 v -0.82 a 3.49,3.49 0 0 1 0.14,-1 2.63,2.63 0 0 1 1.08,-1.36 2.53,2.53 0 0 1 1.21,-0.43 3.14,3.14 0 0 1 1.72,0.72 3,3 0 0 1 1.22,1.5 12.94,12.94 0 0 1 0.57,2.18 3.27,3.27 0 0 0 1,2 1.21,1.21 0 0 0 1.07,0.29 2.54,2.54 0 0 0 0.57,-1.29 c 0.05,-0.43 0.09,-0.86 0.11,-1.29 a 6.38,6.38 0 0 1 0.18,-1.25 1.67,1.67 0 0 1 0.86,-1 3.71,3.71 0 0 1 0.89,-0.5 2.35,2.35 0 0 0 0.82,-0.5 10.07,10.07 0 0 0 0.93,-1.22 4.65,4.65 0 0 1 1,-1.07 19.41,19.41 0 0 0 3.62,-3.72 17.56,17.56 0 0 0 3.25,-8 28.67,28.67 0 0 0 0.29,-4 c 0,-0.14 0,-0.55 0,-1.22 a 5.92,5.92 0 0 0 -0.07,-1.69 z"
       inkscape:connector-curvature="0"
       style="fill:#ba2025" />
    <path
       id="_Path_18"
       data-name="&lt;Path&gt;"
       class="cls-8"
       d="m 294.49,27.82 1.47,0.26 c 0.92,0.16 1.79,0.3 2.58,0.41 0.79,0.11 1.48,0.25 2.08,0.31 l -0.69,-0.21 c -0.45,-0.13 -1.07,-0.35 -1.85,-0.53 l -3.83,-1 z"
       inkscape:connector-curvature="0"
       style="fill:#ba2025" />
    <path
       id="_Path_19"
       data-name="&lt;Path&gt;"
       class="cls-8"
       d="m 359.87,114.14 -1.43,-3.37 c -0.88,-2.28 -2,-4.45 -3,-6.7 l -1.71,-3.29 -0.87,-1.66 -1,-1.62 -1.95,-3.27 -2.16,-3.23 c -0.72,-1.09 -1.54,-2.11 -2.37,-3.15 -0.83,-1.04 -1.62,-2.12 -2.56,-3.1 -3.5,-4.16 -8.36,-9.61 -7.82,-11.43 2.92,2.21 2,-0.72 4.7,0.92 -3.27,-2.4 -4.48,-1.47 -5.81,-1 -1.33,0.47 -2.74,0.39 -6.54,-3.58 l 2.49,-1.7 2.5,-1.66 c -3.81,0.76 -6.12,-1.71 -8.89,-4.55 -2.77,-2.84 -5.9,-6.14 -10.27,-6.75 -0.62,-1.77 0.36,-2.25 2.21,-1.83 a 16.73,16.73 0 0 1 3.32,1.21 30.58,30.58 0 0 1 3.89,2.3 14,14 0 0 0 -3.6,-2.58 12.89,12.89 0 0 0 -3,-0.9 c -1.87,-0.4 -3.67,-0.47 -6.11,-1.91 l 3.6,-0.8 c 1.84,-0.41 3.67,-0.68 3.67,-0.68 a 9.48,9.48 0 0 1 -4.76,-0.7 9.62,9.62 0 0 1 -3.1,-2.54 c -1.72,-2 -2.82,-4.68 -4.17,-6.12 -0.88,0.95 0.5,5.66 -6.48,2.28 l -0.47,-0.31 a 35.58,35.58 0 0 1 0.37,6.85 29.11,29.11 0 0 0 0.21,5.21 c 0.53,3.2 1.34,6.34 2.19,9.67 0.5,2 1,4 1.46,6 a 29.84,29.84 0 0 1 4.48,3.3 c 0,0 -0.16,-0.26 -0.42,-0.61 l -0.95,-1.34 -1.41,-2 a 22.62,22.62 0 0 1 4,1.35 26.92,26.92 0 0 1 3.09,1.87 c 1,0.63 1.88,1.38 2.86,2.12 0.98,0.74 2.09,1.43 3.3,2.23 l 0.06,2.38 c 0,1.17 0,2.34 0,2.34 2.58,1.66 3.6,1.61 4.52,1.34 a 4.37,4.37 0 0 1 4,0.3 13.41,13.41 0 0 0 1.21,2.2 23.78,23.78 0 0 0 1.62,2.37 c 1.24,1.54 2.53,3.24 3.9,4.76 l 3.61,4.31 c 1,1.29 1.74,2.31 2.08,2.9 -0.37,2.44 -3.17,-0.77 -4.46,-1 a 17.49,17.49 0 0 0 3.4,3.03 c 1,0.71 1.87,1.23 2.79,1.82 a 11.54,11.54 0 0 1 2.76,2.34 17.81,17.81 0 0 1 2.89,4.61 l -0.81,0.53 c 0.5,0.66 1,1.34 1.46,2 a 14.92,14.92 0 0 1 4.55,-0.71 14.17,14.17 0 0 1 4.51,0.75 14.58,14.58 0 0 1 5.2,3.29 l 0.28,0.25 c -0.35,-0.88 -0.71,-1.82 -1.06,-2.74 z"
       inkscape:connector-curvature="0"
       style="fill:#ba2025" />
    <path
       id="_Path_20"
       data-name="&lt;Path&gt;"
       class="cls-8"
       d="m 197.17,39.68 a 26.93,26.93 0 0 1 2,-6.25 l -0.31,0.06 c -1,0.18 -2,0.34 -3.14,0.48 -1.14,0.14 -2.4,0.36 -3.85,0.53 l 2.13,2.69 a 10.28,10.28 0 0 0 -7.2,3.81 29.4,29.4 0 0 1 -2.62,2.62 15.21,15.21 0 0 1 -4.37,2.39 c -0.8,-0.37 1.32,-2.79 3.05,-4.81 a 12.93,12.93 0 0 1 -3.55,2.32 13.65,13.65 0 0 1 -2.75,0.86 9.6,9.6 0 0 0 -6,3.57 l 1.12,-3.26 c 0.6,-1.61 1.25,-3.21 1.25,-3.21 -2.4,1.71 -5,4.29 -7,5.75 -2,1.46 -3.37,2.1 -3.25,-0.12 -2.78,4.79 -7.42,10.11 -12,15.87 -1.12,1.47 -2.33,2.88 -3.39,4.4 -1.06,1.52 -2.15,3 -3.17,4.51 -1.02,1.51 -1.88,3.08 -2.73,4.58 a 42.2,42.2 0 0 0 -2.2,4.53 l -2,-2.28 a 11.37,11.37 0 0 1 -0.74,3 v 0.09 h 7.06 l -15.93,20.69 a 10.15,10.15 0 0 0 0,4.65 l -1.42,0.5 c 0,0 0,0.85 -0.08,2.12 0,1 -0.08,2.23 -0.1,3.52 h 29.4 c 4.11,-5.32 8.86,-9.34 12.92,-9.77 a 14.23,14.23 0 0 0 0.18,-2.73 c -0.07,-0.31 -0.29,-0.14 -0.61,0.19 -0.64,0.67 -1.6,2 -2.72,1.29 0.18,-0.77 0.38,-1.48 0.58,-2.14 0.2,-0.66 0.47,-1.24 0.72,-1.8 a 17.43,17.43 0 0 1 1.53,-2.82 11.35,11.35 0 0 1 3.46,-3.16 24.52,24.52 0 0 1 3.73,-1.48 24.38,24.38 0 0 0 3.83,-1.67 c 1.71,-3.27 0.59,-2.46 -0.91,-1.37 -1.5,1.09 -3.41,2.45 -3.08,0.15 a 22.84,22.84 0 0 0 2.83,-2.42 16,16 0 0 0 1.82,-2.07 24.17,24.17 0 0 0 2,-3.89 c 0.3,-0.66 0.61,-1.33 1,-2 a 10.67,10.67 0 0 1 1.55,-2.19 23.65,23.65 0 0 1 2.58,-2.41 38.82,38.82 0 0 1 4,-2.52 c 2.25,0.64 -2.1,3.29 -2.4,5.18 a 28.6,28.6 0 0 1 6.61,-7.22 148,148 0 0 1 2.17,-28.76 z"
       inkscape:connector-curvature="0"
       style="fill:#ba2025" />
    <path
       id="_Compound_Path_3"
       data-name="&lt;Compound Path&gt;"
       class="cls-9"
       d="m 230.75,90.78 c -4.18,-1.13 -7.89,-2.17 -11.62,-3.1 a 4.28,4.28 0 0 0 -2.12,0.16 c -9.14,2.63 -17.78,-3.39 -17.95,-12.87 -0.21,-11.55 -0.16,-23.11 2,-34.53 1.57,-8.1 6.23,-13.2 14.54,-14.58 a 10.4,10.4 0 0 0 6.86,-3.95 13.18,13.18 0 0 1 12.14,-5.08 12.34,12.34 0 0 0 9.45,-3 c 5.11,-4.11 11.31,-4.51 17.26,-1.56 a 18.13,18.13 0 0 0 10.44,2.13 c 9.11,-0.94 14.76,2.64 17.77,11.28 a 121.82,121.82 0 0 1 4.7,17.3 c 0.76,3.95 -0.07,8.2 0.59,12.19 1,5.74 2.75,11.33 3.95,17 a 81.37,81.37 0 0 1 1.95,12.48 c 0.35,6.88 -3.08,12 -9.06,15 -7.34,3.66 -14.92,6.88 -22.53,10 -4.08,1.66 -8.37,1.09 -12.43,-0.58 -5.33,-2.19 -10.65,-4.4 -15.92,-6.72 C 235.36,100 231,96.59 230.75,90.78 Z m -8.63,-7.44 -0.08,-0.09 c 1.92,0.73 3.8,1.83 5.78,2.1 4.41,0.61 7,-1.55 7.45,-6 a 72.52,72.52 0 0 0 0.45,-7.37 c 0.06,-8.41 0,-16.82 0.11,-25.23 a 35.69,35.69 0 0 1 1.1,-5.61 c 0.37,3.75 0.94,6.69 0.89,9.61 -0.16,9.34 -0.67,18.68 -0.78,28 0,4.14 2.46,6 6.88,5.74 l -1.18,-0.42 a 7.7,7.7 0 0 1 2.9,-0.18 c 7.31,0.46 11,-2.73 11.55,-10 0.42,-5.84 0.61,-11.71 1.15,-17.55 0.44,-4.73 1.24,-9.43 1.88,-14.15 A 62.89,62.89 0 0 1 260.77,55 c -0.41,6.35 -1.07,12.69 -1.81,19 -0.58,4.89 0.12,6.14 4.91,7.07 2.54,0.49 5.12,0.77 7.68,1.15 v 0.25 h -9.75 a 24.44,24.44 0 0 0 13.05,1.41 6.56,6.56 0 0 0 5.46,-4.46 47.58,47.58 0 0 0 2.42,-10.3 c 0.41,-5.14 0.11,-10.33 0.11,-16.11 0.48,3.23 0.88,5.9 1.28,8.57 h 0.23 V 48.52 l 0.36,-0.07 1.39,4 1.45,-3.54 0.48,0.13 -3.88,30.86 2.13,2.53 a 6.22,6.22 0 0 0 -6.44,1.71 8.37,8.37 0 0 1 -3.41,1.62 c -5.78,1.67 -11.41,0.52 -17,-1 a 6.71,6.71 0 0 0 -3.82,0.17 c -4.44,1.68 -8.94,2.52 -13.67,1.58 -2.11,-0.14 -4.48,-1.12 -5.86,1.44 a 5.1,5.1 0 0 0 0.69,6.18 c 1,-3.16 0.29,-7.35 5.18,-7.62 a 15.12,15.12 0 0 0 2,1.33 c 7.24,3.44 7.22,3.43 6.58,11.56 a 2.11,2.11 0 0 0 0.65,1.65 c 1.54,1 3.2,1.74 4.71,2.54 l 1.84,-4.48 c 0.44,6.49 3.19,8.48 8.87,7 a 28.76,28.76 0 0 0 4.67,-2 c 4.07,-1.88 8.12,-3.79 12.18,-5.69 2.22,-1 4.52,-2 6.65,-3.15 a 12.25,12.25 0 0 0 6.58,-11.52 c -0.06,-7 -3.58,-12.92 -5.46,-19.34 h -0.66 q -1.12,5.82 -2.24,11.63 l -0.7,-0.1 c 0.54,-5 1,-9.91 1.64,-14.85 0.92,-7.26 2,-14.49 0.22,-21.76 a 28.26,28.26 0 0 0 -1.08,-2.91 c -0.51,2.67 -0.9,4.77 -1.3,6.87 l -0.64,-0.09 c 0,-4 0.18,-8.11 -0.05,-12.14 -0.32,-5.66 -3,-9.83 -8.53,-11.77 -4.67,-1.63 -9.13,-2.11 -12.66,2.5 -0.5,-2.88 -2.41,-4.38 -4.71,-5.46 -6.73,-3.17 -14,-0.76 -17.68,5.82 -0.7,1.26 -1.28,2.59 -2.13,4.32 l 0.21,-3.91 c -4.32,-0.55 -8.44,-2.8 -12.75,-0.61 -4.31,2.19 -5,6.69 -6.92,11 -0.4,-2.67 -1.9,-2.94 -3.8,-2.83 a 11.31,11.31 0 0 0 -9.68,5.65 c -3.55,6 -3.62,12.61 -3,19.34 l 1.77,-7.47 0.76,0.15 c -0.68,3.42 -1,6.95 -2.11,10.24 a 36.07,36.07 0 0 0 -1.42,17.3 c 0.84,5.39 3.68,7.92 9.13,7.87 3.11,0 3.92,-0.69 4.08,-3.87 0.17,-3.48 0.13,-7 0.2,-10.44 0.12,-5.95 0.14,-11.89 0.43,-17.83 a 38.81,38.81 0 0 1 1.39,-6.35 c 0.53,0.29 0.59,0.46 0.58,0.62 -0.3,10.7 -0.65,21.39 -0.91,32.09 a 5.81,5.81 0 0 0 3.46,5.92 z m 26.25,16.93 c 0.28,-1.74 0.55,-2.89 0.65,-4.06 0.36,-4.21 0.2,-4.58 -3.72,-6.25 -6.2,-2.65 -6.2,-1 -7.25,4.57 A 2.12,2.12 0 0 0 239,96.3 c 3,1.38 6.08,2.6 9.37,3.97 z"
       inkscape:connector-curvature="0"
       style="fill:#ffffff" />
    <path
       id="_Path_21"
       data-name="&lt;Path&gt;"
       d="m 256.6,16.68 c 5.29,0.12 8,5.79 6.06,14.51 -0.28,-3.15 0.1,-6.15 -0.93,-8.54 -1.03,-2.39 -3.46,-4.11 -5.13,-5.97 z"
       inkscape:connector-curvature="0"
       style="fill:#ffffff" />
    <path
       id="_Path_22"
       data-name="&lt;Path&gt;"
       d="m 239.18,32.82 c -3.23,-7.51 -3.23,-7.51 -6.62,-10 4.44,-0.08 7.49,4.47 6.62,10 z"
       inkscape:connector-curvature="0"
       style="fill:#ffffff" />
    <path
       id="_Path_23"
       data-name="&lt;Path&gt;"
       d="m 275.35,99.82 10.49,-4.41 0.43,1 -10.55,4.29 z"
       inkscape:connector-curvature="0"
       style="fill:#ffffff" />
    <path
       id="_Path_24"
       data-name="&lt;Path&gt;"
       d="m 222.12,83.34 -0.42,-1.28 c 4.08,2 7.77,0.75 11.41,-1 l 0.35,0.95 c -1.38,0.6 -2.74,1.63 -4.16,1.72 a 50.7,50.7 0 0 1 -7.26,-0.43 z"
       inkscape:connector-curvature="0"
       style="fill:#ffffff" />
    <path
       id="_Path_25"
       data-name="&lt;Path&gt;"
       d="m 264,105.34 1.84,-10.27 c 0.84,3.65 0.68,7.08 -1.84,10.27 z"
       inkscape:connector-curvature="0"
       style="fill:#ffffff" />
  </g>
</svg>
