<?xml version="1.0" encoding="UTF-8" standalone="no"?>
<!-- Generator: Adobe Illustrator 19.0.0, SVG Export Plug-In . SVG Version: 6.00 Build 0)  -->

<svg
   xmlns:dc="http://purl.org/dc/elements/1.1/"
   xmlns:cc="http://creativecommons.org/ns#"
   xmlns:rdf="http://www.w3.org/1999/02/22-rdf-syntax-ns#"
   xmlns:svg="http://www.w3.org/2000/svg"
   xmlns="http://www.w3.org/2000/svg"
   xmlns:sodipodi="http://sodipodi.sourceforge.net/DTD/sodipodi-0.dtd"
   xmlns:inkscape="http://www.inkscape.org/namespaces/inkscape"
   version="1.1"
   id="Layer_1"
   x="0px"
   y="0px"
   viewBox="0 0 512 512"
   style="enable-background:new 0 0 512 512;"
   xml:space="preserve"
   sodipodi:docname="japan-china-kuma-panda.svg"
   inkscape:version="0.92.3 (2405546, 2018-03-11)"><metadata
   id="metadata41"><rdf:RDF><cc:Work
       rdf:about=""><dc:format>image/svg+xml</dc:format><dc:type
         rdf:resource="http://purl.org/dc/dcmitype/StillImage" /><dc:title></dc:title></cc:Work></rdf:RDF></metadata><defs
   id="defs39"><clipPath
     clipPathUnits="userSpaceOnUse"
     id="clipPath873"><path
       style="opacity:0.5;fill:#000000;stroke:none;stroke-width:1px;stroke-linecap:butt;stroke-linejoin:miter;stroke-opacity:1"
       d="M 512,0 H 0 v 512 z"
       id="path875"
       inkscape:connector-curvature="0"
       sodipodi:nodetypes="cccc" /></clipPath><clipPath
     clipPathUnits="userSpaceOnUse"
     id="clipPath910"><path
       style="opacity:0.5;fill:#000000;stroke:none;stroke-width:1px;stroke-linecap:butt;stroke-linejoin:miter;stroke-opacity:1"
       d="M -49,653 H 463 V 141 Z"
       id="path912"
       inkscape:connector-curvature="0"
       sodipodi:nodetypes="cccc" /></clipPath></defs><sodipodi:namedview
   pagecolor="#ffffff"
   bordercolor="#666666"
   borderopacity="1"
   objecttolerance="10"
   gridtolerance="10"
   guidetolerance="10"
   inkscape:pageopacity="0"
   inkscape:pageshadow="2"
   inkscape:window-width="1920"
   inkscape:window-height="1001"
   id="namedview37"
   showgrid="false"
   inkscape:zoom="0.4609375"
   inkscape:cx="-165.11509"
   inkscape:cy="54.661547"
   inkscape:window-x="-9"
   inkscape:window-y="-9"
   inkscape:window-maximized="1"
   inkscape:current-layer="Layer_1" />

<g
   id="g867"
   clip-path="url(#clipPath873)"><circle
     id="circle2"
     r="256"
     cy="256"
     cx="256"
     style="fill:#F0F0F0;" /><circle
     id="circle4"
     r="111.304"
     cy="256"
     cx="256"
     style="fill:#D80027;" /></g>
<g
   id="g6">
</g>
<g
   id="g8">
</g>
<g
   id="g10">
</g>
<g
   id="g12">
</g>
<g
   id="g14">
</g>
<g
   id="g16">
</g>
<g
   id="g18">
</g>
<g
   id="g20">
</g>
<g
   id="g22">
</g>
<g
   id="g24">
</g>
<g
   id="g26">
</g>
<g
   id="g28">
</g>
<g
   id="g30">
</g>
<g
   id="g32">
</g>
<g
   id="g34">
</g>
<style
   id="style877"
   type="text/css">
	.st0{fill:#D80027;}
	.st1{fill:#FFDA44;}
</style><g
   id="g908"
   transform="translate(49,-141)"
   clip-path="url(#clipPath910)"><circle
     id="circle879"
     r="256"
     cy="397"
     cx="207"
     class="st0"
     style="fill:#d80027" /><g
     id="g891">
	<polygon
   id="polygon881"
   points="149,474.9 91.1,432.9 33.2,474.9 55.4,406.9 -2.5,364.8 69,364.8 91.1,296.8 113.2,364.8 184.7,364.8 126.9,406.9 "
   class="st1"
   style="fill:#ffda44" />
	<polygon
   id="polygon883"
   points="210.2,483 236.1,489.9 250.7,467.4 252.1,494.2 278.1,501.1 253,510.7 254.5,537.5 237.6,516.7 212.6,526.4 227.1,503.9 "
   class="st1"
   style="fill:#ffda44" />
	<polygon
   id="polygon885"
   points="308.9,409.4 317.6,434.8 344.4,434.5 322.9,450.5 331.5,475.9 309.6,460.4 288.1,476.5 296.1,450.9 274.2,435.4 301,435 "
   class="st1"
   style="fill:#ffda44" />
	<polygon
   id="polygon887"
   points="302.5,391.9 297.9,365.5 271.3,361.7 295.1,349.2 290.5,322.7 309.7,341.4 333.4,328.9 321.6,353 340.8,371.7 314.3,367.9 "
   class="st1"
   style="fill:#ffda44" />
	<polygon
   id="polygon889"
   points="250.1,325.9 236,303.1 209.9,309.5 227.2,289 213,266.3 237.9,276.4 255.2,255.9 253.2,282.6 278.1,292.7 252,299.1 "
   class="st1"
   style="fill:#ffda44" />
</g></g></svg>