<?xml version="1.0" encoding="UTF-8" standalone="no"?>
<!-- Generator: Adobe Illustrator 19.0.0, SVG Export Plug-In . SVG Version: 6.00 Build 0)  -->

<svg
   xmlns:dc="http://purl.org/dc/elements/1.1/"
   xmlns:cc="http://creativecommons.org/ns#"
   xmlns:rdf="http://www.w3.org/1999/02/22-rdf-syntax-ns#"
   xmlns:svg="http://www.w3.org/2000/svg"
   xmlns="http://www.w3.org/2000/svg"
   xmlns:xlink="http://www.w3.org/1999/xlink"
   xmlns:sodipodi="http://sodipodi.sourceforge.net/DTD/sodipodi-0.dtd"
   xmlns:inkscape="http://www.inkscape.org/namespaces/inkscape"
   version="1.1"
   id="Layer_1"
   x="0px"
   y="0px"
   viewBox="0 0 512 512"
   style="enable-background:new 0 0 512 512;"
   xml:space="preserve"
   sodipodi:docname="northern-ireland.svg"
   inkscape:version="0.92.3 (2405546, 2018-03-11)"><metadata
   id="metadata43"><rdf:RDF><cc:Work
       rdf:about=""><dc:format>image/svg+xml</dc:format><dc:type
         rdf:resource="http://purl.org/dc/dcmitype/StillImage" /></cc:Work></rdf:RDF></metadata><defs
   id="defs41" /><sodipodi:namedview
   pagecolor="#ffffff"
   bordercolor="#666666"
   borderopacity="1"
   objecttolerance="10"
   gridtolerance="10"
   guidetolerance="10"
   inkscape:pageopacity="0"
   inkscape:pageshadow="2"
   inkscape:window-width="1920"
   inkscape:window-height="1001"
   id="namedview39"
   showgrid="false"
   inkscape:zoom="0.65186406"
   inkscape:cx="262.05572"
   inkscape:cy="133.66236"
   inkscape:window-x="-9"
   inkscape:window-y="-9"
   inkscape:window-maximized="1"
   inkscape:current-layer="g1078" />
<circle
   style="fill:#F0F0F0;"
   cx="256"
   cy="256"
   r="256"
   id="circle2" />


<g
   id="g8">
</g>
<g
   id="g10">
</g>
<g
   id="g12">
</g>
<g
   id="g14">
</g>
<g
   id="g16">
</g>
<g
   id="g18">
</g>
<g
   id="g20">
</g>
<g
   id="g22">
</g>
<g
   id="g24">
</g>
<g
   id="g26">
</g>
<g
   id="g28">
</g>
<g
   id="g30">
</g>
<g
   id="g32">
</g>
<g
   id="g34">
</g>
<g
   id="g36">
</g>
<circle
   style="fill:#f0f0f0"
   cx="256"
   cy="256"
   r="256"
   id="circle2-4" /><rect
   x="0"
   style="fill:#cc0000;fill-rule:evenodd;stroke-width:0.85333335"
   id="a"
   y="230.39999"
   width="512"
   height="51.200001"
   rx="0"
   ry="0" /><use
   transform="rotate(90,255.99999,256)"
   width="600"
   height="300"
   xlink:href="#a"
   id="use5"
   x="0"
   y="0" /><g
   id="g4947"
   transform="matrix(1.25,0,0,1.25,-173.94535,-32.256159)"><g
     transform="matrix(1.4817821,0,0,1.4817821,347.00748,15.709424)"
     id="g1078"><g
       id="g5097"
       transform="translate(-302.05914,-4.9748601)"><path
         id="path7"
         d="m 322,91.631 c 1.9255,-3.0124 0.77409,-4.9577 -2.1381,-5.5589 0,0 -9.2916,2.9784 -19.327,3.3053 -10.035,0.3269 -21.958,-2.5238 -21.958,-2.5238 -2.1382,1.3417 -1.6164,4.5256 -0.5559,6.5133 0,0 10.505,3.4901 22.464,3.1474 7.596,-0.21763 14.794,-2.1559 18.832,-3.4406 2.3194,-0.73798 2.6831,-1.4086 2.682,-1.4428 z"
         inkscape:connector-curvature="0"
         style="fill:#ebeae3;fill-rule:evenodd;stroke:#000000;stroke-width:0.32596999" /><path
         id="path9"
         d="m 300,223.47 -19.286,-40.066 -44.341,3.3309 25.055,-36.735 -25.055,-36.735 44.341,3.3309 19.286,-40.066 19.286,40.066 44.341,-3.3309 -25.055,36.735 25.055,36.735 -44.341,-3.3309 z"
         inkscape:connector-curvature="0"
         style="fill:#ffffff;stroke:#161111" /><path
         id="path11"
         d="m 299.71,76.392 c 24.227,3.9935 23.362,5.125 23.362,5.125 l 6.323,-18.903 c 0,0 0.66557,-3.7273 -1.0649,-5.9902 -1.73047,-2.2629 -6.5893,-0.99838 -6.5893,-0.99838 0,0 -0.66558,-3.0617 -2.7954,-3.7938 -2.1299,-0.73214 -10.05,2.862 -12.513,3.6607 -2.4626,0.7987 -3.7273,1.5974 -7.1883,1.5308 -3.461,-0.06656 -9.6509,-3.1282 -10.782,-3.7273 -1.1315,-0.59902 -2.7954,-1.198 -4.3263,-1.1315 -1.5308,0.06656 -3.1282,0.46591 -3.9269,1.5308 -0.7987,1.0649 -0.7987,2.3961 -0.7987,2.3961 0,0 -1.2646,-0.7987 -3.2614,-0.7987 -1.9967,0 -3.1282,0.26623 -4.0601,1.3312 -0.9318,1.0649 -2.1299,4.06 -2.1299,4.06 l 2.263,5.125 0.13311,7.0552 4.7256,7.4545 22.63,-3.9269 z"
         inkscape:connector-curvature="0"
         style="fill:#b02320;fill-rule:evenodd;stroke:#000000;stroke-width:0.81493002" /><path
         id="path13"
         d="m 322.3,87.072 c 0,0 1.2199,1.4545 1.173,1.9706 -0.0469,0.5161 -0.56302,0.98528 -0.56302,0.98528 0,0 0.37536,0.37534 0.28151,0.93836 -0.0938,0.56302 -0.84452,0.60994 -0.84452,0.60994 0,0 0.14075,0.5161 -0.32843,0.75069 -0.46918,0.23459 -2.3928,0.65685 -2.3928,0.65685 0,0 -9.3836,-2.6743 -19.424,-2.6743 -10.04,0 -21.864,3.2374 -21.864,3.2374 0,0 -1.2199,-0.42226 -1.2668,-1.2199 -0.0469,-0.79761 0.14077,-1.3606 0.14077,-1.3606 0,0 -0.66788,0.06958 -0.84453,-0.5161 -0.24707,-0.81917 0.0938,-1.4545 0.0938,-1.4545 0,0 -0.46516,0.14978 0.0469,-0.93836 0.37534,-0.79761 0.93837,-1.0791 0.93837,-1.0791 0,0 10.51,-3.7534 22.474,-3.8004 11.964,-0.04692 22.38,3.8004 22.38,3.8942 z"
         inkscape:connector-curvature="0"
         style="fill:#ebeae3;fill-rule:evenodd;stroke:#000000;stroke-width:0.32596999" /><path
         id="path15"
         d="m 272.64,63.435 c 0,0 -0.40066,-1.3622 0.48076,-2.5641 0.88144,-1.2019 2.484,-1.1218 2.9648,-0.88142 0.48079,0.24039 0.40066,0.8013 1.0417,0.96156 0.64103,0.16026 1.1218,-0.32052 1.1218,-0.32052"
         inkscape:connector-curvature="0"
         style="fill:none;stroke:#000000;stroke-width:0.71714002" /><path
         id="path17"
         d="m 331.14,66.624 -3.6389,7.5287 -1.4304,0.25096 c 0,0 -0.87271,-0.52426 -3.3628,-0.35134 -1.7818,0.12548 -2.3088,0.5772 -2.3088,0.5772 l 3.2374,-7.5036 c 0,0 0.25233,1.6122 0.62739,2.5598 0.47682,1.2046 2.2837,2.3339 2.2837,2.3339 0,0 0.25039,-1.4409 -0.22585,-3.1872 -0.52702,-1.9324 -1.7567,-4.5423 -1.7567,-4.5423 l 6.5751,2.3339 z"
         inkscape:connector-curvature="0"
         style="fill:#ffcc00;fill-opacity:0.94118;fill-rule:evenodd;stroke:#000000;stroke-width:0.74972999" /><path
         id="path19"
         d="m 297.81,43.225 h 4.073 v 17.309 h -4.073 z"
         inkscape:connector-curvature="0"
         style="fill:#121116;stroke:#121116;stroke-width:0.73114997;stroke-linejoin:round" /><path
         id="path21"
         d="m 272.85,75.147 2.6157,5.5963 c 0,0 11.132,-4.3389 24.271,-4.2581 19.709,0.12166 25.305,4.0756 25.305,4.0756 l 2.9198,-6.9346 -2.1899,1.2774 -2.2507,1.3991 -2.5548,0.97328 -3.1023,-0.24332 -2.7374,-2.0074 -1.3991,-2.9198 -2.3115,2.129 -4.0756,0.91245 -4.0148,-1.0341 -3.5281,-4.4406 c 0,0 -2.6282,4.936 -5.9613,5.2314 -4.8056,0.42581 -7.6037,-2.3115 -7.6037,-2.3115 0,0 -1.7865,4.0148 -4.7447,4.7447 -4.6839,1.1558 -8.577,-2.1899 -8.6378,-2.1899 z"
         inkscape:connector-curvature="0"
         style="fill:#f6ca1f;fill-rule:evenodd;stroke:#000000;stroke-width:0.61935002" /><g
         id="g141"
         style="stroke-width:2.24300003"><path
           id="path23"
           d="m 317.78,41.028 c 3e-5,1.1759 -0.93911,2.1298 -2.0991,2.1321 -1.16,0.0023 -2.1029,-0.94779 -2.1074,-2.1237 -0.005,-1.17591 0.93085,-2.1335 2.0908,-2.1405 1.16,-0.007 2.1065,0.93941 2.1156,2.1153"
           inkscape:connector-curvature="0"
           style="fill:#eeeeee;stroke:#1e1e1e;stroke-width:0.73114997;stroke-linejoin:round" /><path
           id="path25"
           d="m 314.7,42.123 c 0,0 1.6999,-0.02882 1.8728,-0.7203 0.17287,-0.69149 -0.11525,-1.5847 -0.11525,-1.5847 0,0 0.80673,0.89317 0.57624,1.5847 -0.2305,0.69149 -0.45662,0.87022 -1.0372,1.0084 -0.3934,0.09363 -0.97961,-0.05762 -1.2965,-0.28812 z"
           inkscape:connector-curvature="0"
           style="fill:#a3afb8;fill-rule:evenodd" /><path
           id="path27"
           d="m 312.67,43.418 c 3e-5,1.1759 -0.93911,2.1298 -2.0991,2.1321 -1.16,0.0023 -2.1029,-0.94779 -2.1074,-2.1237 -0.005,-1.17591 0.93085,-2.1335 2.0908,-2.1405 1.16,-0.007 2.1065,0.93941 2.1156,2.1153"
           inkscape:connector-curvature="0"
           style="fill:#eeeeee;stroke:#1e1e1e;stroke-width:0.73114997;stroke-linejoin:round" /><path
           id="path29"
           d="m 309.59,44.513 c 0,0 1.6999,-0.02882 1.8728,-0.7203 0.17287,-0.69149 -0.11525,-1.5847 -0.11525,-1.5847 0,0 0.80673,0.89317 0.57624,1.5847 -0.2305,0.69149 -0.45662,0.87022 -1.0372,1.0084 -0.3934,0.09363 -0.97961,-0.05762 -1.2965,-0.28812 z"
           inkscape:connector-curvature="0"
           style="fill:#a3afb8;fill-rule:evenodd" /><path
           id="path31"
           d="m 323.71,39.628 c 3e-5,1.1759 -0.93911,2.1298 -2.0991,2.1321 -1.16,0.0023 -2.1029,-0.94779 -2.1074,-2.1237 -0.004,-1.17591 0.93085,-2.1335 2.0908,-2.1405 1.16,-0.007 2.1065,0.93941 2.1156,2.1153"
           inkscape:connector-curvature="0"
           style="fill:#eeeeee;stroke:#1e1e1e;stroke-width:0.73114997;stroke-linejoin:round" /><path
           id="path33"
           d="m 320.63,40.723 c 0,0 1.6999,-0.02882 1.8728,-0.7203 0.17287,-0.69149 -0.11525,-1.5847 -0.11525,-1.5847 0,0 0.80673,0.89317 0.57624,1.5847 -0.2305,0.69149 -0.45662,0.87022 -1.0372,1.0084 -0.3934,0.09363 -0.97961,-0.05762 -1.2965,-0.28812 z"
           inkscape:connector-curvature="0"
           style="fill:#a3afb8;fill-rule:evenodd" /><path
           id="path35"
           d="m 330.39,40.973 c 3e-5,1.1759 -0.93911,2.1298 -2.0991,2.1321 -1.16,0.0023 -2.1029,-0.94779 -2.1074,-2.1237 -0.005,-1.17591 0.93085,-2.1335 2.0908,-2.1405 1.16,-0.007 2.1065,0.93941 2.1156,2.1153"
           inkscape:connector-curvature="0"
           style="fill:#eeeeee;stroke:#1e1e1e;stroke-width:0.73114997;stroke-linejoin:round" /><path
           id="path37"
           d="m 327.31,42.068 c 0,0 1.6999,-0.02882 1.8728,-0.7203 0.17287,-0.69149 -0.11525,-1.5847 -0.11525,-1.5847 0,0 0.80673,0.89317 0.57624,1.5847 -0.2305,0.69149 -0.45662,0.87022 -1.0372,1.0084 -0.3934,0.09363 -0.97961,-0.05762 -1.2965,-0.28812 z"
           inkscape:connector-curvature="0"
           style="fill:#a3afb8;fill-rule:evenodd" /><path
           id="path39"
           d="m 335.49,45.169 c 3e-5,1.1759 -0.93911,2.1298 -2.0991,2.1321 -1.16,0.0023 -2.1029,-0.94779 -2.1074,-2.1237 -0.005,-1.17591 0.93085,-2.1335 2.0908,-2.1405 1.16,-0.007 2.1065,0.93941 2.1156,2.1153"
           inkscape:connector-curvature="0"
           style="fill:#eeeeee;stroke:#1e1e1e;stroke-width:0.73114997;stroke-linejoin:round" /><path
           id="path41"
           d="m 332.4,46.264 c 0,0 1.6999,-0.02882 1.8728,-0.7203 0.17287,-0.69149 -0.11525,-1.5847 -0.11525,-1.5847 0,0 0.80673,0.89317 0.57624,1.5847 -0.2305,0.69149 -0.45662,0.87022 -1.0372,1.0084 -0.3934,0.09363 -0.97961,-0.05762 -1.2965,-0.28812 z"
           inkscape:connector-curvature="0"
           style="fill:#a3afb8;fill-rule:evenodd" /><path
           id="path43"
           d="m 337.69,52.056 c 3e-5,1.1759 -0.93911,2.1298 -2.0991,2.1321 -1.16,0.0023 -2.1029,-0.94779 -2.1074,-2.1237 -0.005,-1.17591 0.93085,-2.1335 2.0908,-2.1405 1.16,-0.007 2.1065,0.93941 2.1156,2.1153"
           inkscape:connector-curvature="0"
           style="fill:#eeeeee;stroke:#1e1e1e;stroke-width:0.73114997;stroke-linejoin:round" /><path
           id="path45"
           d="m 334.6,53.151 c 0,0 1.6999,-0.02882 1.8728,-0.7203 0.17287,-0.69149 -0.11525,-1.5847 -0.11525,-1.5847 0,0 0.80673,0.89317 0.57624,1.5847 -0.2305,0.69149 -0.45662,0.87022 -1.0372,1.0084 -0.3934,0.09363 -0.97961,-0.05762 -1.2965,-0.28812 z"
           inkscape:connector-curvature="0"
           style="fill:#a3afb8;fill-rule:evenodd" /><path
           id="path47"
           d="m 336.87,59.023 c 3e-5,1.1759 -0.93911,2.1298 -2.0991,2.1321 -1.16,0.0023 -2.1029,-0.94779 -2.1074,-2.1237 -0.005,-1.17591 0.93085,-2.1335 2.0908,-2.1405 1.16,-0.007 2.1065,0.93941 2.1156,2.1153"
           inkscape:connector-curvature="0"
           style="fill:#eeeeee;stroke:#1e1e1e;stroke-width:0.73114997;stroke-linejoin:round" /><path
           id="path49"
           d="m 333.79,60.118 c 0,0 1.6999,-0.02882 1.8728,-0.7203 0.17287,-0.69149 -0.11525,-1.5847 -0.11525,-1.5847 0,0 0.80673,0.89317 0.57624,1.5847 -0.2305,0.69149 -0.45662,0.87022 -1.0372,1.0084 -0.3934,0.09363 -0.97961,-0.05762 -1.2965,-0.28812 z"
           inkscape:connector-curvature="0"
           style="fill:#a3afb8;fill-rule:evenodd" /><path
           id="path51"
           d="m 333.78,65.135 c 3e-5,1.1759 -0.93911,2.1298 -2.0991,2.1321 -1.16,0.0023 -2.1029,-0.94779 -2.1074,-2.1237 -0.005,-1.17591 0.93085,-2.1335 2.0908,-2.1405 1.16,-0.007 2.1065,0.93941 2.1156,2.1153"
           inkscape:connector-curvature="0"
           style="fill:#eeeeee;stroke:#1e1e1e;stroke-width:0.73114997;stroke-linejoin:round" /><path
           id="path53"
           d="m 330.69,66.23 c 0,0 1.6999,-0.02882 1.8728,-0.7203 0.17287,-0.69149 -0.11525,-1.5847 -0.11525,-1.5847 0,0 0.80673,0.89317 0.57624,1.5847 -0.2305,0.69149 -0.45662,0.87022 -1.0372,1.0084 -0.3934,0.09363 -0.97961,-0.05762 -1.2965,-0.28812 z"
           inkscape:connector-curvature="0"
           style="fill:#a3afb8;fill-rule:evenodd" /><path
           id="path55"
           d="m 307.7,45.251 c 3e-5,1.1759 -0.93911,2.1298 -2.0991,2.1321 -1.16,0.0023 -2.1029,-0.94779 -2.1074,-2.1237 -0.005,-1.17591 0.93085,-2.1335 2.0908,-2.1405 1.16,-0.007 2.1065,0.93941 2.1156,2.1153"
           inkscape:connector-curvature="0"
           style="fill:#eeeeee;stroke:#1e1e1e;stroke-width:0.73114997;stroke-linejoin:round" /><path
           id="path57"
           d="m 304.61,46.346 c 0,0 1.6999,-0.02882 1.8728,-0.7203 0.17287,-0.69149 -0.11525,-1.5847 -0.11525,-1.5847 0,0 0.80673,0.89317 0.57624,1.5847 -0.2305,0.69149 -0.45662,0.87022 -1.0372,1.0084 -0.3934,0.09364 -0.97961,-0.05762 -1.2965,-0.28812 z"
           inkscape:connector-curvature="0"
           style="fill:#a3afb8;fill-rule:evenodd" /><g
           id="g63"
           style="stroke-width:2.68219995"><path
             id="path59"
             d="m 301.35,44.707 c 2e-5,0.98336 -0.78535,1.7811 -1.7554,1.783 -0.97007,0.002 -1.7586,-0.79261 -1.7624,-1.776 -0.004,-0.98335 0.77844,-1.7842 1.7485,-1.79 0.97006,-0.0058 1.7616,0.7856 1.7693,1.7689"
             inkscape:connector-curvature="0"
             style="fill:#eeeeee;stroke:#1e1e1e;stroke-width:0.73115999;stroke-linejoin:round" /><path
             id="path61"
             d="m 298.77,45.622 c 0,0 1.4216,-0.0241 1.5662,-0.60237 0.14457,-0.57827 -0.0964,-1.3252 -0.0964,-1.3252 0,0 0.67465,0.74693 0.48189,1.3252 -0.19276,0.57827 -0.38186,0.72774 -0.86741,0.84331 -0.32899,0.0783 -0.81922,-0.04819 -1.0843,-0.24095 z"
             inkscape:connector-curvature="0"
             style="fill:#a3afb8;fill-rule:evenodd" /></g><g
           id="g69"
           style="stroke-width:2.68219995"><path
             id="path65"
             d="m 301.37,46.923 c 2e-5,0.98336 -0.78535,1.7811 -1.7554,1.783 -0.97007,0.002 -1.7586,-0.79261 -1.7624,-1.776 -0.004,-0.98335 0.77844,-1.7842 1.7485,-1.79 0.97006,-0.0058 1.7616,0.7856 1.7693,1.7689"
             inkscape:connector-curvature="0"
             style="fill:#eeeeee;stroke:#1e1e1e;stroke-width:0.73115999;stroke-linejoin:round" /><path
             id="path67"
             d="m 298.79,47.838 c 0,0 1.4216,-0.0241 1.5662,-0.60237 0.14457,-0.57827 -0.0964,-1.3252 -0.0964,-1.3252 0,0 0.67465,0.74693 0.48189,1.3252 -0.19276,0.57827 -0.38186,0.72774 -0.86741,0.84331 -0.32899,0.0783 -0.81922,-0.04819 -1.0843,-0.24095 z"
             inkscape:connector-curvature="0"
             style="fill:#a3afb8;fill-rule:evenodd" /></g><g
           id="g75"
           style="stroke-width:2.68219995"><path
             id="path71"
             d="m 301.49,50.183 c 2e-5,0.98336 -0.78535,1.7811 -1.7554,1.783 -0.97007,0.002 -1.7586,-0.79261 -1.7624,-1.776 -0.004,-0.98335 0.77844,-1.7842 1.7485,-1.79 0.97006,-0.0058 1.7616,0.7856 1.7693,1.7689"
             inkscape:connector-curvature="0"
             style="fill:#eeeeee;stroke:#1e1e1e;stroke-width:0.73115999;stroke-linejoin:round" /><path
             id="path73"
             d="m 298.91,51.098 c 0,0 1.4216,-0.0241 1.5662,-0.60237 0.14457,-0.57827 -0.0964,-1.3252 -0.0964,-1.3252 0,0 0.67465,0.74693 0.48189,1.3252 -0.19276,0.57827 -0.38186,0.72774 -0.86741,0.84331 -0.32899,0.0783 -0.81922,-0.04819 -1.0843,-0.24095 z"
             inkscape:connector-curvature="0"
             style="fill:#a3afb8;fill-rule:evenodd" /></g><g
           id="g81"
           style="stroke-width:2.48020005"><path
             id="path77"
             d="m 301.67,53.645 c 2e-5,1.0634 -0.84931,1.9261 -1.8984,1.9282 -1.0491,0.0021 -1.9018,-0.85716 -1.9059,-1.9206 -0.004,-1.0634 0.84184,-1.9295 1.8909,-1.9358 1.0491,-0.0063 1.9051,0.84958 1.9133,1.913"
             inkscape:connector-curvature="0"
             style="fill:#eeeeee;stroke:#1e1e1e;stroke-width:0.73114997;stroke-linejoin:round" /><path
             id="path79"
             d="m 298.88,54.635 c 0,0 1.5374,-0.02606 1.6937,-0.65143 0.15634,-0.62537 -0.10423,-1.4331 -0.10423,-1.4331 0,0 0.72959,0.80776 0.52114,1.4331 -0.20846,0.62537 -0.41295,0.78701 -0.93805,0.91199 -0.35579,0.08468 -0.88593,-0.05211 -1.1726,-0.26057 z"
             inkscape:connector-curvature="0"
             style="fill:#a3afb8;fill-rule:evenodd" /></g><path
           id="path83"
           d="m 301.87,58.29 c 3e-5,1.1759 -0.93911,2.1298 -2.0991,2.1321 -1.16,0.0023 -2.1029,-0.94779 -2.1074,-2.1237 -0.005,-1.17591 0.93085,-2.1335 2.0908,-2.1405 1.16,-0.007 2.1065,0.93941 2.1156,2.1153"
           inkscape:connector-curvature="0"
           style="fill:#eeeeee;stroke:#1e1e1e;stroke-width:0.73114997;stroke-linejoin:round" /><path
           id="path85"
           d="m 298.79,59.385 c 0,0 1.6999,-0.02882 1.8728,-0.7203 0.17287,-0.69149 -0.11525,-1.5847 -0.11525,-1.5847 0,0 0.80673,0.89317 0.57624,1.5847 -0.2305,0.69149 -0.45662,0.87022 -1.0372,1.0084 -0.3934,0.09363 -0.97961,-0.05762 -1.2965,-0.28812 z"
           inkscape:connector-curvature="0"
           style="fill:#a3afb8;fill-rule:evenodd" /><g
           id="g91"
           style="stroke-width:2.38829994"><path
             id="path87"
             d="m 301.66,67.824 c 2e-5,1.1044 -0.88198,2.0002 -1.9714,2.0024 -1.0894,0.0022 -1.9749,-0.89013 -1.9792,-1.9945 -0.004,-1.1043 0.87422,-2.0037 1.9636,-2.0102 1.0894,-0.0065 1.9784,0.88226 1.9869,1.9866"
             inkscape:connector-curvature="0"
             style="fill:#eeeeee;stroke:#1e1e1e;stroke-width:0.73115999;stroke-linejoin:round" /><path
             id="path89"
             d="m 298.77,68.852 c 0,0 1.5965,-0.02706 1.7588,-0.67648 0.1623,-0.649417 -0.10824,-1.4883 -0.10824,-1.4883 0,0 0.75766,0.83884 0.54119,1.4883 -0.21647,0.64942 -0.42884,0.81728 -0.97413,0.94707 -0.36947,0.08794 -0.92001,-0.05412 -1.2177,-0.27059 z"
             inkscape:connector-curvature="0"
             style="fill:#a3afb8;fill-rule:evenodd" /></g><path
           id="path93"
           d="m 295.97,45.194 c 3e-5,1.1759 -0.93911,2.1298 -2.0991,2.1321 -1.16,0.0023 -2.1029,-0.94779 -2.1074,-2.1237 -0.005,-1.17591 0.93085,-2.1335 2.0908,-2.1405 1.16,-0.007 2.1065,0.93941 2.1156,2.1153"
           inkscape:connector-curvature="0"
           style="fill:#eeeeee;stroke:#1e1e1e;stroke-width:0.73114997;stroke-linejoin:round" /><path
           id="path95"
           d="m 292.89,46.289 c 0,0 1.6999,-0.02882 1.8728,-0.7203 0.17287,-0.69149 -0.11525,-1.5847 -0.11525,-1.5847 0,0 0.80673,0.89317 0.57624,1.5847 -0.2305,0.69149 -0.45662,0.87022 -1.0372,1.0084 -0.3934,0.09363 -0.97961,-0.05762 -1.2965,-0.28812 z"
           inkscape:connector-curvature="0"
           style="fill:#a3afb8;fill-rule:evenodd" /><path
           id="path97"
           d="m 290.75,43.138 c 3e-5,1.1759 -0.93911,2.1298 -2.0991,2.1321 -1.16,0.0023 -2.1029,-0.94779 -2.1074,-2.1237 -0.005,-1.17591 0.93085,-2.1335 2.0908,-2.1405 1.16,-0.007 2.1065,0.93941 2.1156,2.1153"
           inkscape:connector-curvature="0"
           style="fill:#eeeeee;stroke:#1e1e1e;stroke-width:0.73114997;stroke-linejoin:round" /><path
           id="path99"
           d="m 287.67,44.233 c 0,0 1.6999,-0.02882 1.8728,-0.7203 0.17287,-0.69149 -0.11525,-1.5847 -0.11525,-1.5847 0,0 0.80673,0.89317 0.57624,1.5847 -0.2305,0.69149 -0.45662,0.87022 -1.0372,1.0084 -0.3934,0.09364 -0.97961,-0.05762 -1.2965,-0.28812 z"
           inkscape:connector-curvature="0"
           style="fill:#a3afb8;fill-rule:evenodd" /><path
           id="path101"
           d="m 285.76,40.788 c 3e-5,1.1759 -0.93911,2.1298 -2.0991,2.1321 -1.16,0.0023 -2.1029,-0.94779 -2.1074,-2.1237 -0.005,-1.17591 0.93085,-2.1335 2.0908,-2.1405 1.16,-0.007 2.1065,0.93941 2.1156,2.1153"
           inkscape:connector-curvature="0"
           style="fill:#eeeeee;stroke:#1e1e1e;stroke-width:0.73114997;stroke-linejoin:round" /><path
           id="path103"
           d="m 282.68,41.883 c 0,0 1.6999,-0.02882 1.8728,-0.7203 0.17287,-0.69149 -0.11525,-1.5847 -0.11525,-1.5847 0,0 0.80673,0.89317 0.57624,1.5847 -0.2305,0.69149 -0.45662,0.87022 -1.0372,1.0084 -0.3934,0.09363 -0.97961,-0.05762 -1.2965,-0.28812 z"
           inkscape:connector-curvature="0"
           style="fill:#a3afb8;fill-rule:evenodd" /><path
           id="path105"
           d="m 280.03,39.539 c 3e-5,1.1759 -0.93911,2.1298 -2.0991,2.1321 -1.16,0.0023 -2.1029,-0.94779 -2.1074,-2.1237 -0.005,-1.17591 0.93085,-2.1335 2.0908,-2.1405 1.16,-0.007 2.1065,0.93941 2.1156,2.1153"
           inkscape:connector-curvature="0"
           style="fill:#eeeeee;stroke:#1e1e1e;stroke-width:0.73114997;stroke-linejoin:round" /><path
           id="path107"
           d="m 276.95,40.634 c 0,0 1.6999,-0.02882 1.8728,-0.7203 0.17287,-0.69149 -0.11525,-1.5847 -0.11525,-1.5847 0,0 0.80673,0.89317 0.57624,1.5847 -0.2305,0.69149 -0.45662,0.87022 -1.0372,1.0084 -0.3934,0.09363 -0.97961,-0.05762 -1.2965,-0.28812 z"
           inkscape:connector-curvature="0"
           style="fill:#a3afb8;fill-rule:evenodd" /><path
           id="path109"
           d="m 273.27,41.155 c 3e-5,1.1759 -0.93911,2.1298 -2.0991,2.1321 -1.16,0.0023 -2.1029,-0.94779 -2.1074,-2.1237 -0.004,-1.17591 0.93085,-2.1335 2.0908,-2.1405 1.16,-0.007 2.1065,0.93941 2.1156,2.1153"
           inkscape:connector-curvature="0"
           style="fill:#eeeeee;stroke:#1e1e1e;stroke-width:0.73114997;stroke-linejoin:round" /><path
           id="path111"
           d="m 270.19,42.25 c 0,0 1.6999,-0.02882 1.8728,-0.7203 0.17287,-0.69149 -0.11525,-1.5847 -0.11525,-1.5847 0,0 0.80673,0.89317 0.57624,1.5847 -0.2305,0.69149 -0.45662,0.87022 -1.0372,1.0084 -0.3934,0.09363 -0.97961,-0.05762 -1.2965,-0.28812 z"
           inkscape:connector-curvature="0"
           style="fill:#a3afb8;fill-rule:evenodd" /><path
           id="path113"
           d="m 268.5,45.928 c 3e-5,1.1759 -0.93911,2.1298 -2.0991,2.1321 -1.16,0.0023 -2.1029,-0.94779 -2.1074,-2.1237 -0.005,-1.17591 0.93085,-2.1335 2.0908,-2.1405 1.16,-0.007 2.1065,0.93941 2.1156,2.1153"
           inkscape:connector-curvature="0"
           style="fill:#eeeeee;stroke:#1e1e1e;stroke-width:0.73114997;stroke-linejoin:round" /><path
           id="path115"
           d="m 265.42,47.023 c 0,0 1.6999,-0.02882 1.8728,-0.7203 0.17287,-0.69149 -0.11525,-1.5847 -0.11525,-1.5847 0,0 0.80673,0.89317 0.57624,1.5847 -0.2305,0.69149 -0.45662,0.87022 -1.0372,1.0084 -0.3934,0.09363 -0.97961,-0.05762 -1.2965,-0.28812 z"
           inkscape:connector-curvature="0"
           style="fill:#a3afb8;fill-rule:evenodd" /><path
           id="path117"
           d="m 266.52,52.612 c 3e-5,1.1759 -0.93911,2.1298 -2.0991,2.1321 -1.16,0.0023 -2.1029,-0.94779 -2.1074,-2.1237 -0.004,-1.17591 0.93085,-2.1335 2.0908,-2.1405 1.16,-0.007 2.1065,0.93941 2.1156,2.1153"
           inkscape:connector-curvature="0"
           style="fill:#eeeeee;stroke:#1e1e1e;stroke-width:0.73114997;stroke-linejoin:round" /><path
           id="path119"
           d="m 263.43,53.707 c 0,0 1.6999,-0.02882 1.8728,-0.7203 0.17287,-0.69149 -0.11525,-1.5847 -0.11525,-1.5847 0,0 0.80673,0.89317 0.57624,1.5847 -0.2305,0.69149 -0.45662,0.87022 -1.0372,1.0084 -0.3934,0.09363 -0.97961,-0.05762 -1.2965,-0.28812 z"
           inkscape:connector-curvature="0"
           style="fill:#a3afb8;fill-rule:evenodd" /><path
           id="path121"
           d="m 267.4,59.59 c 3e-5,1.1759 -0.93911,2.1298 -2.0991,2.1321 -1.16,0.0023 -2.1029,-0.94779 -2.1074,-2.1237 -0.004,-1.17591 0.93085,-2.1335 2.0908,-2.1405 1.16,-0.007 2.1065,0.93941 2.1156,2.1153"
           inkscape:connector-curvature="0"
           style="fill:#eeeeee;stroke:#1e1e1e;stroke-width:0.73114997;stroke-linejoin:round" /><path
           id="path123"
           d="m 264.32,60.685 c 0,0 1.6999,-0.02882 1.8728,-0.7203 0.17287,-0.69149 -0.11525,-1.5847 -0.11525,-1.5847 0,0 0.80673,0.89317 0.57624,1.5847 -0.2305,0.69149 -0.45662,0.87022 -1.0372,1.0084 -0.3934,0.09363 -0.97961,-0.05762 -1.2965,-0.28812 z"
           inkscape:connector-curvature="0"
           style="fill:#a3afb8;fill-rule:evenodd" /><path
           id="path125"
           d="m 270.63,65.906 c 3e-5,1.1759 -0.93911,2.1298 -2.0991,2.1321 -1.16,0.0023 -2.1029,-0.94779 -2.1074,-2.1237 -0.005,-1.17591 0.93085,-2.1335 2.0908,-2.1405 1.16,-0.007 2.1065,0.93941 2.1156,2.1153"
           inkscape:connector-curvature="0"
           style="fill:#eeeeee;stroke:#1e1e1e;stroke-width:0.73114997;stroke-linejoin:round" /><path
           id="path127"
           d="m 267.55,67.001 c 0,0 1.6999,-0.02882 1.8728,-0.7203 0.17287,-0.69149 -0.11525,-1.5847 -0.11525,-1.5847 0,0 0.80673,0.89317 0.57624,1.5847 -0.2305,0.69149 -0.45662,0.87022 -1.0372,1.0084 -0.3934,0.09363 -0.97961,-0.05762 -1.2965,-0.28812 z"
           inkscape:connector-curvature="0"
           style="fill:#a3afb8;fill-rule:evenodd" /><g
           id="g133"
           style="stroke-width:2.83220005"><path
             id="path129"
             d="m 430.63,247.41 c 8e-5,3.6073 -2.881,6.5337 -6.4395,6.5409 -3.5586,0.007 -6.4511,-2.9076 -6.4651,-6.5149 -0.014,-3.6073 2.8556,-6.5451 6.4142,-6.5664 3.5585,-0.0213 6.4623,2.8819 6.4903,6.4891"
             transform="matrix(0.19748,-0.05291,0.08437,0.31486,168.37,18.75)"
             inkscape:connector-curvature="0"
             style="fill:#eeeeee;stroke:#1e1e1e;stroke-linejoin:round" /><path
             id="path131"
             d="m 272.7,75.423 c 0,0 1.0224,-0.30375 0.94814,-0.99973 -0.0743,-0.69598 -0.47997,-1.5119 -0.47997,-1.5119 0,0 0.71991,0.73178 0.75925,1.4371 0.0393,0.70533 -0.0514,0.91468 -0.36737,1.1424 -0.2141,0.1543 -0.60838,0.10335 -0.86004,-0.06785 z"
             inkscape:connector-curvature="0"
             style="fill:#a3afb8;fill-rule:evenodd" /></g><g
           id="g139"
           style="stroke-width:2.83220005"><path
             id="path135"
             d="m 430.63,247.41 c 8e-5,3.6073 -2.881,6.5337 -6.4395,6.5409 -3.5586,0.007 -6.4511,-2.9076 -6.4651,-6.5149 -0.014,-3.6073 2.8556,-6.5451 6.4142,-6.5664 3.5585,-0.0213 6.4623,2.8819 6.4903,6.4891"
             transform="matrix(0.19849,0.049,-0.07812,0.31647,262.46,-25.127)"
             inkscape:connector-curvature="0"
             style="fill:#eeeeee;stroke:#1e1e1e;stroke-linejoin:round" /><path
             id="path137"
             d="m 326.47,74.871 c 0,0 1.042,0.22755 1.313,-0.41779 0.271,-0.64534 0.30959,-1.5558 0.30959,-1.5558 0,0 0.27719,0.98841 -0.0289,1.6251 -0.30607,0.63669 -0.48659,0.77622 -0.87327,0.82311 -0.26199,0.03177 -0.58269,-0.2032 -0.72043,-0.47462 z"
             inkscape:connector-curvature="0"
             style="fill:#a3afb8;fill-rule:evenodd" /></g></g><path
         id="path143"
         d="m 297.95,33.632 0.15157,3.5619 c 0,0 -4.2229,0.37086 -4.3955,0.75785 -0.82047,1.8389 0.9852,4.3197 0.9852,4.3197 0,0 1.4198,-1.061 5.0018,-1.061 3.4103,-2e-6 5.1534,0.83363 5.1534,0.83363 0,0 0.90942,-1.4399 0.90942,-2.5009 0,-1.061 -0.37892,-2.122 -0.37892,-2.122 0,0 -1.743,-0.22736 -2.2735,-0.22736 h -1.5157 l -0.15156,-3.6377 -3.4861,0.07579 z"
         inkscape:connector-curvature="0"
         style="fill:#b3a192;fill-rule:evenodd;stroke:#000000;stroke-width:0.73114997" /><path
         id="path145"
         d="m 303.97,39.158 c 7e-5,0.39944 -0.33732,0.72354 -0.75414,0.7244 -0.41682,8.6e-4 -0.75566,-0.32184 -0.75737,-0.72129 -0.002,-0.39945 0.33435,-0.7248 0.75116,-0.72723 0.41681,-0.0024 0.75698,0.319 0.76033,0.71844 m 1.7407,0.39357 c 7e-5,0.41682 -0.35201,0.75502 -0.78695,0.75591 -0.43495,8.97e-4 -0.78854,-0.33585 -0.79032,-0.75267 -0.002,-0.41682 0.3489,-0.75634 0.78384,-0.75887 0.43495,-0.0025 0.78991,0.33288 0.79341,0.74969 m -3.4837,-0.4096 c 8e-5,0.39944 -0.33733,0.72354 -0.75413,0.7244 -0.41682,8.59e-4 -0.75567,-0.32185 -0.75739,-0.72129 -0.002,-0.39945 0.33436,-0.7248 0.75116,-0.72723 0.41682,-0.0024 0.75698,0.319 0.76033,0.71844 m -3.4932,0.04486 c 8e-5,0.41569 -0.35103,0.75296 -0.7848,0.75385 -0.43376,8.96e-4 -0.78639,-0.33493 -0.78817,-0.75062 -0.002,-0.41569 0.34795,-0.75428 0.78171,-0.7568 0.43375,-0.0025 0.78775,0.33197 0.79123,0.74765 m -1.939,0.13529 c 8e-5,0.41569 -0.35104,0.75296 -0.78481,0.75386 -0.43376,8.94e-4 -0.78639,-0.33493 -0.78817,-0.75062 -0.002,-0.41569 0.34795,-0.75428 0.78171,-0.7568 0.43376,-0.0025 0.78775,0.33197 0.79124,0.74765 m 3.5592,-2.1748 c 7e-5,0.35072 -0.29616,0.63528 -0.66214,0.63603 -0.36596,7.53e-4 -0.66347,-0.28258 -0.66498,-0.6333 -10e-4,-0.35072 0.29358,-0.63638 0.65954,-0.63852 0.36596,-0.0021 0.66462,0.28008 0.66756,0.63079 m 2e-5,-2.9506 c 7e-5,0.35072 -0.29616,0.63528 -0.66214,0.63603 -0.36596,7.54e-4 -0.66348,-0.28258 -0.66498,-0.6333 -10e-4,-0.35072 0.29358,-0.63638 0.65953,-0.63852 0.36596,-0.0021 0.66463,0.28008 0.66757,0.63079 m 2e-5,1.5965 c 7e-5,0.35072 -0.29616,0.63528 -0.66214,0.63603 -0.36596,7.53e-4 -0.66347,-0.28258 -0.66498,-0.6333 -10e-4,-0.35072 0.29358,-0.63638 0.65954,-0.63851 0.36596,-0.0021 0.66462,0.28009 0.66756,0.63079"
         inkscape:connector-curvature="0"
         style="fill:#f0ddcb;stroke:#121116;stroke-width:0.37259001;stroke-linejoin:round" /><path
         id="path147"
         d="m 294.83,39.827 c 8e-5,0.40115 -0.33875,0.72663 -0.75735,0.72749 -0.41859,8.63e-4 -0.75888,-0.32322 -0.7606,-0.72436 -0.002,-0.40115 0.33578,-0.7279 0.75437,-0.73034 0.41858,-0.0024 0.7602,0.32036 0.76356,0.7215"
         inkscape:connector-curvature="0"
         style="fill:#f0ddcb;stroke:#121116;stroke-width:0.37259001;stroke-linejoin:round" /><path
         id="path149"
         d="m 300.53,38.975 c 4e-5,0.43887 -0.37217,0.7949 -0.83194,0.79579 -0.45977,8.87e-4 -0.83349,-0.35371 -0.83532,-0.79257 -0.002,-0.43886 0.36893,-0.79629 0.82867,-0.7989 0.45977,-0.0026 0.83493,0.35058 0.83857,0.78943"
         inkscape:connector-curvature="0"
         style="fill:#916c68;stroke:#4d3126;stroke-width:0.37259001;stroke-linejoin:round" /><g
         id="g155"
         style="stroke-width:2.53449988"><path
           id="path151"
           d="m 301.29,28.407 c 2e-5,0.87027 -0.69503,1.5763 -1.5535,1.578 -0.85851,0.0017 -1.5563,-0.70146 -1.5597,-1.5717 -0.003,-0.87026 0.68892,-1.579 1.5474,-1.5842 0.8585,-0.0051 1.559,0.69526 1.5658,1.5655"
           inkscape:connector-curvature="0"
           style="fill:#eeeeee;stroke:#1e1e1e;stroke-width:0.73115999;stroke-linejoin:round" /><path
           id="path153"
           d="m 299.01,29.216 c 0,0 1.2581,-0.02132 1.386,-0.53308 0.12794,-0.51176 -0.0853,-1.1728 -0.0853,-1.1728 0,0 0.59705,0.66102 0.42646,1.1728 -0.17058,0.51175 -0.33793,0.64403 -0.76764,0.74631 -0.29115,0.0693 -0.72499,-0.04264 -0.95954,-0.21323 z"
           inkscape:connector-curvature="0"
           style="fill:#a3afb8;fill-rule:evenodd" /></g><path
         id="path157"
         d="m 274.98,81.335 c 0,0 1.3888,1.2962 1.7592,2.4536 0.37037,1.1574 0.9259,4.2591 0.9259,4.2591 0,0 14.536,-4.0276 21.666,-3.7036 7.1294,0.32406 23.564,3.935 23.564,3.935 0,0 0.27778,-1.7592 0.60183,-3.611 0.32407,-1.8518 1.6666,-3.8887 1.6666,-3.8887 0,0 -15.694,-4.9072 -25.601,-4.4443 -9.907,0.46294 -14.861,1.5277 -17.083,2.2221 -2.2221,0.69442 -7.6386,2.824 -7.4997,2.7777 z"
         inkscape:connector-curvature="0"
         style="fill:#ffcc00;fill-rule:evenodd;stroke:#000000;stroke-width:0.32596999" /><path
         id="path159"
         d="m 296.66,22.53 h 6.2522 c 0,0 -1.5427,1.0674 -1.8567,2.0841 -0.27022,0.87494 -0.18946,2.3114 -0.18946,2.3114 0,0 1.7052,0 2.463,-0.64417 0.75785,-0.64417 2.3493,-1.7809 2.3493,-1.7809 v 7.9574 c 0,0 -1.5345,-1.4839 -2.463,-1.9704 -1.1154,-0.58438 -2.2357,-0.79574 -2.2357,-0.79574 0,0 0,1.2883 0.53049,2.0462 0.5305,0.75785 2.6525,3.6377 2.6525,3.6377 l -8.9426,0.34104 c 0,0 2.1211,-2.2366 2.9935,-3.865 0.56839,-1.061 0.34102,-2.1599 0.34102,-2.1599 0,0 -1.5157,0 -2.2735,0.5305 -0.75785,0.53049 -2.0841,2.122 -2.0841,2.122 l 10e-6,-7.6543 c 0,0 0.56837,1.4778 1.8188,2.0462 1.25043,0.5684 2.4251,0.26525 2.4251,0.26525 0,0 0.24262,-1.523 -0.26526,-2.463 -0.52361,-0.96908 -1.6294,-2.0462 -1.5157,-2.0083 z"
         inkscape:connector-curvature="0"
         style="fill:#ffcc00;fill-rule:evenodd;stroke:#000000;stroke-width:0.73114997" /><path
         id="path161"
         d="m 296.17,47.78 c 0,0 -4.4478,-0.05359 -8.2526,-2.3043 -3.8048,-2.2507 -7.6422,-4.608 -13.29,-3.2689 -1.1566,0.27423 -5.4124,2.1435 -7.288,8.199 -1.316,4.249 0.21436,9.3779 1.5541,11.682 1.3397,2.3043 3.5,4.6399 3.5,4.6399 l 2.2976,-1.5563 c 0,0 -5.8512,-4.9592 -5.1546,-11.39 0.69664,-6.4306 3.9119,-7.931 3.9119,-7.931 0,0 3.9655,-3.1081 9.2707,-0.16077 5.3052,2.9473 10.503,4.287 10.503,4.287 0,0 4.8765,1.1789 5.3052,1.1253 0.4287,-0.05359 -2.465,-3.376 -2.3579,-3.3225 z"
         inkscape:connector-curvature="0"
         style="fill:#ffcc00;fill-rule:evenodd;stroke:#121116;stroke-width:0.73114997" /><path
         id="path163"
         d="m 271.57,71.9 -2.3633,-4.6451 7.0899,-2.7708 c 0,0 -1.7114,2.2818 -2.1188,3.9117 -0.49766,1.9907 -0.32597,3.6672 -0.32597,3.6672 0,0 0.65194,-0.48896 1.4669,-1.7928 0.6184,-0.98944 1.6299,-4.5636 1.6299,-4.5636 l 3.1782,10.187 c 0.0245,0.02727 -1.6338,-1.6338 -2.7998,-1.831 -1.3144,-0.22232 -2.9047,0.20116 -2.9047,0.20116 l -1.8743,0.57045 -0.97791,-2.9337 z"
         inkscape:connector-curvature="0"
         style="fill:#ffcc00;fill-rule:evenodd;stroke:#000000;stroke-width:0.74972999" /><path
         id="path165"
         d="m 304.19,47.696 c 0,0 4.4478,-0.05358 8.2526,-2.3043 3.8048,-2.2507 7.6422,-4.608 13.29,-3.2689 1.1566,0.27423 5.4124,2.1435 7.288,8.199 1.3161,4.249 -0.21434,9.3779 -1.554,11.682 -1.3397,2.3043 -2.2509,3.6598 -2.2509,3.6598 l -2.7615,-0.99176 c 0,0 5.066,-4.5437 4.3693,-10.974 -0.69663,-6.4306 -3.9119,-7.931 -3.9119,-7.931 0,0 -3.9655,-3.1081 -9.2707,-0.16076 -5.3052,2.9473 -10.503,4.287 -10.503,4.287 0,0 -4.8765,1.1789 -5.3052,1.1253 -0.42871,-0.05359 2.465,-3.376 2.3579,-3.3225 z"
         inkscape:connector-curvature="0"
         style="fill:#ffcc00;fill-rule:evenodd;stroke:#121116;stroke-width:0.73114997" /><path
         id="path167"
         d="m 301.89,43.295 h 1.857 v 17.317 h -1.857 z m -6.252,-0.076 h 2.198 v 17.317 h -2.198 z"
         inkscape:connector-curvature="0"
         style="fill:#ffcc00;stroke:#121116;stroke-width:0.73114997;stroke-linejoin:round" /><path
         id="path169"
         d="m 305.76,39.202 c 1.6e-4,3.0721 -2.7069,5.5643 -6.0506,5.5704 -3.3437,0.0062 -6.0616,-2.476 -6.0749,-5.5481 -0.0133,-3.072 2.6831,-5.574 6.0268,-5.5922 3.3437,-0.01823 6.0722,2.4541 6.0986,5.5261"
         inkscape:connector-curvature="0"
         style="fill:#ffcc00;stroke:#121116;stroke-width:0.73114997;stroke-linejoin:round" /><path
         id="path171"
         d="m 294.32,60.467 10.426,-0.08581 c 0,0 -1.2228,0.72939 -2.274,2.5958 -1.0512,1.8664 -0.901,3.0463 -0.901,3.0463 0,0 1.5875,-0.02145 2.703,-0.83665 1.1155,-0.81519 2.3598,-2.3383 2.3598,-2.3383 l -0.0429,9.6107 c 0,0 -0.75084,-1.2228 -1.9951,-1.9522 -1.2442,-0.72939 -3.0034,-0.72939 -3.0034,-0.72939 h -3.5611 c 0,0 -1.6284,0.09622 -2.3598,0.57922 -1.0317,0.68131 -2.3169,1.9951 -2.3169,1.9951 l -0.17162,-9.0744 c 0,0 0.51486,1.5875 2.1882,2.2311 1.6733,0.64357 2.6172,0.55776 2.6172,0.55776 0,0 0,-2.038 -0.8581,-3.0892 -0.8581,-1.0512 -2.8103,-2.467 -2.8103,-2.5099 z"
         inkscape:connector-curvature="0"
         style="fill:#ffcc00;fill-rule:evenodd;stroke:#000000;stroke-width:0.61935002" /><path
         id="path173"
         d="m 300.13,68.013 c 0,0 1.5254,3.5594 3.2992,5.1303 1.0325,0.91443 4.1368,1.6032 5.5402,1.2449 3.154,-0.80527 5.3216,-3.3287 5.3216,-3.3287 0,0 -0.11284,2.7645 1.8618,4.2878 1.9746,1.5233 3.5543,1.9182 5.1905,1.4669 1.6361,-0.45134 6.2624,-3.8928 6.2624,-3.8928 l 0.95911,0.84627 c 0,0 -2.6533,2.5766 -5.4419,3.9444 -1.4358,0.70423 -5.7939,0.31273 -7.2043,-0.81563 -1.4104,-1.1284 -2.2481,-3.8622 -2.2481,-3.8622 0,0 -0.86832,1.7576 -2.7301,2.3782 -1.8618,0.6206 -4.4204,0.59369 -6.796,-0.10051 -1.5991,-0.46731 -3.6758,-2.6726 -4.0707,-3.406 -0.39491,-0.73344 -0.28209,-1.1284 -0.28209,-1.1284 0,0 -1.1716,3.3582 -3.6108,4.2743 -2.3034,0.86518 -4.9293,0.87205 -7.1602,0.23053 -2.2552,-0.6485 -2.4308,-1.9096 -2.4308,-1.9096 0,0 -0.16925,3.5543 -5.0776,4.5699 -4.9084,1.0155 -8.8012,-2.5952 -8.8012,-2.5952 l 0.67702,-1.0155 c 0,0 2.7645,3.103 6.9958,2.8209 4.2314,-0.28209 5.6418,-5.6982 5.6418,-5.6982 0,0 1.8618,2.8209 6.8266,2.8773 4.9648,0.05642 6.3752,-6.4317 6.3752,-6.4317 l 0.9027,0.11283 z"
         inkscape:connector-curvature="0"
         style="fill:#f6ca1f;fill-rule:evenodd;stroke:#000000;stroke-width:0.58674997" /><g
         id="g183"
         style="fill:#ffcc00;stroke:#000000;stroke-width:0.71713001"><path
           id="path175"
           d="m 287.89,70.083 c 0,0 0.0372,-1.7279 0.40856,-2.2471 0.52669,-0.7363 1.2432,-0.76637 1.6087,-0.66392 0.45097,0.1264 0.91926,0.53624 0.84266,1.7364 -0.0766,1.2002 -0.40856,1.7875 -0.0511,2.2471 0.35749,0.45963 0.40856,0.76606 1.098,0.66392 0.68945,-0.10214 0.99587,-0.33196 0.84266,-0.97034 -0.15321,-0.63838 -0.35749,0.05107 -0.48517,-0.48517 -0.12768,-0.53624 0.6669,-2.8527 0.53624,-4.2899 -0.12768,-1.4044 -0.66392,-2.528 -1.7364,-2.8089 -1.008,-0.26399 -1.8641,-0.25536 -2.8089,0.4341 -0.90619,0.66127 -2.0684,2.8344 -2.0684,2.8344 l -0.0255,4.6474 1.8896,-0.10214 -0.0511,-0.99587 z"
           inkscape:connector-curvature="0"
           style="fill-rule:evenodd" /><path
           id="path177"
           d="m 284.37,71.334 c 0,0 -0.72277,-1.5699 -1.2703,-1.8981 -0.77652,-0.46537 -1.4456,-0.20736 -1.74,0.03229 -0.36323,0.29567 -0.62936,0.8582 -0.0808,1.9284 0.5486,1.0702 1.0871,1.4765 0.94247,2.0405 -0.14467,0.56404 -0.0694,0.86542 -0.74241,1.0465 -0.67303,0.18112 -1.0457,0.09247 -1.1596,-0.55407 -0.11392,-0.64655 0.34823,-0.09565 0.25159,-0.63834 -0.0966,-0.54269 -1.7486,-2.3505 -2.2016,-3.7207 -0.44267,-1.339 -0.39868,-2.5831 0.47298,-3.2682 0.81921,-0.64385 1.6078,-0.97716 2.7491,-0.72141 1.0947,0.2453 3.0267,1.7752 3.0267,1.7752 l 1.8757,4.2521 -1.7737,0.65946 -0.35009,-0.93371 z"
           inkscape:connector-curvature="0"
           style="fill-rule:evenodd" /><path
           id="path179"
           d="m 284.01,57.571 c 0,0 -1.8385,3.0898 -1.43,5.4645 0.40856,2.3748 2.8599,7.4818 2.8599,7.4818 l 0.0255,0.68945 1.3227,-0.143 -0.30131,-0.69967 c 0,0 0.66065,-6.1136 0.25535,-8.0436 -0.30127,-1.4346 -2.7067,-4.724 -2.7323,-4.7496 z m 2.9366,14.147 c 0,0 0.91866,1.0992 2.0173,1.6343 1.2002,0.58446 1.6935,0.58827 2.1705,0.22982 0.34948,-0.26263 0.22982,-1.3789 -0.17875,-1.6853 -0.40856,-0.30642 -0.87208,-0.15071 -0.94481,0.15321 -0.12279,0.51314 -0.2902,0.47896 -0.66391,0.28089 -0.5457,-0.28923 -1.813,-1.0725 -1.813,-1.0725 l -0.58731,0.45963 z m -1.4231,0.24954 c 0,0 -0.38668,1.3794 -1.169,2.3181 -0.85462,1.0255 -1.303,1.2314 -1.885,1.1002 -0.42646,-0.0961 -0.7754,-1.1632 -0.52857,-1.6102 0.24684,-0.44709 0.73343,-0.49529 0.92447,-0.24798 0.32255,0.41756 0.46118,0.3177 0.72071,-0.01628 0.37895,-0.48768 1.2132,-1.722 1.2132,-1.722 l 0.72419,0.17815 z"
           inkscape:connector-curvature="0"
           style="fill-rule:evenodd" /><path
           id="path181"
           d="m 288.99,70.863 c 0.0675,0.40279 -1.1484,0.94269 -2.7177,1.2068 -1.5693,0.26406 -2.8995,0.15258 -2.9732,-0.24918 -0.0737,-0.40176 1.137,-0.94209 2.7061,-1.2077 1.569,-0.26564 2.904,-0.15628 2.9838,0.24444"
           inkscape:connector-curvature="0"
           style="stroke-linejoin:round" /></g><g
         id="g193"
         style="fill:#ffcc00;stroke:#000000;stroke-width:0.71713001"><path
           id="path185"
           d="m 316.01,70.779 c 0,0 0.64071,-1.6051 1.1706,-1.9611 0.75144,-0.50486 1.433,-0.28176 1.7394,-0.05764 0.37801,0.27652 0.67285,0.82454 0.18026,1.9216 -0.49259,1.0971 -1.0094,1.5307 -0.83581,2.0865 0.17362,0.55581 0.11399,0.86068 0.79548,1.0068 0.68149,0.14611 1.049,0.03834 1.1294,-0.61323 0.0804,-0.65157 -0.3527,-0.07753 -0.28423,-0.62449 0.0685,-0.54696 1.6249,-2.4377 2.0065,-3.8295 0.37292,-1.36 0.26472,-2.6003 -0.64116,-3.2394 -0.85138,-0.60068 -1.6562,-0.89281 -2.7827,-0.57844 -1.0805,0.30151 -2.9309,1.9291 -2.9309,1.9291 l -1.6536,4.3433 1.8054,0.56696 0.30139,-0.95054 z"
           inkscape:connector-curvature="0"
           style="fill-rule:evenodd" /><path
           id="path187"
           d="m 312.28,70.716 c 0,0 -0.12636,-1.7237 -0.52409,-2.223 -0.56402,-0.70812 -1.2811,-0.70113 -1.6409,-0.57993 -0.44384,0.14953 -0.89034,0.58301 -0.75184,1.7776 0.1385,1.1946 0.50035,1.764 0.16707,2.2415 -0.33327,0.47749 -0.36845,0.78614 -1.0623,0.71975 -0.69381,-0.06639 -1.0117,-0.28007 -0.89166,-0.92551 0.12003,-0.64545 0.35966,0.03253 0.45946,-0.50958 0.0998,-0.54212 -0.81336,-2.8145 -0.75712,-4.2565 0.055,-1.4092 0.53245,-2.5589 1.589,-2.8948 0.99297,-0.3157 1.8484,-0.3513 2.8275,0.28843 0.93913,0.61358 2.212,2.7238 2.212,2.7238 l 0.26556,4.6399 -1.8924,-0.0044 -4.4e-4,-0.99718 z"
           inkscape:connector-curvature="0"
           style="fill-rule:evenodd" /><path
           id="path189"
           d="m 316.77,57.7 c 0,0 -2.8053,2.2489 -3.2554,4.6161 -0.45013,2.3672 0.0547,8.0096 0.0547,8.0096 l -0.21785,0.65462 1.2889,0.32992 -0.0368,-0.7609 c 0,0 2.7625,-5.4938 3.05971,-7.4433 0.22091,-1.4491 -0.87831,-5.3732 -0.89327,-5.4061 z m -2.2106,14.278 c 0,0 0.47486,1.3516 1.3161,2.2379 0.919,0.9682 1.3797,1.1448 1.9521,0.97634 0.41938,-0.12341 0.69876,-1.2108 0.42359,-1.641 -0.27517,-0.43023 -0.76385,-0.44694 -0.93854,-0.18783 -0.29494,0.4375 -0.43973,0.34678 -0.72025,0.03024 -0.40963,-0.46222 -1.3218,-1.6401 -1.3218,-1.6401 l -0.71119,0.2245 z m -1.4203,-0.26535 c 0,0 -0.84584,1.1562 -1.9077,1.761 -1.1599,0.66066 -1.652,0.69629 -2.1511,0.36936 -0.36569,-0.23954 -0.31829,-1.3612 0.0696,-1.6933 0.38795,-0.33214 0.86054,-0.20665 0.95272,0.09194 0.15564,0.50415 0.32049,0.45924 0.68065,0.23748 0.5259,-0.32383 1.74,-1.1872 1.74,-1.1872 l 0.61574,0.42079 z"
           inkscape:connector-curvature="0"
           style="fill-rule:evenodd" /><path
           id="path191"
           d="m 316.79,71.906 c -0.078,0.40089 -1.406,0.48017 -2.9683,0.17721 -1.5623,-0.30297 -2.7689,-0.87378 -2.6971,-1.2759 0.0719,-0.40208 1.3952,-0.48361 2.9577,-0.18222 1.5626,0.30138 2.7744,0.87188 2.7087,1.2751"
           inkscape:connector-curvature="0"
           style="stroke-linejoin:round" /></g><path
         id="path195"
         d="m 274.43,81.169 c 0,0 0.30416,1.2774 1.0341,0.6083 0.72997,-0.66913 10.767,-4.6231 24.94,-4.6231 14.173,0 23.48,3.8931 24.028,4.1364 0.54747,0.24332 0.79079,0.54747 1.2774,0 0.48664,-0.54747 -0.48664,-1.3991 -0.48664,-1.3991 0,0 -9.8544,-4.1973 -25.244,-4.1364 -15.39,0.06083 -25.366,4.4406 -25.366,4.4406 0,0 -0.66913,0.48664 -0.18249,0.97328 z"
         inkscape:connector-curvature="0"
         style="fill:#cca715;fill-rule:evenodd;stroke:#000000;stroke-width:0.32596999" /><path
         id="path197"
         d="m 292.4,87.065 c 0,0 0.45212,-1.257 1.2418,-1.499 0.62962,-0.1929 1.6239,0.42618 1.6239,0.42618 0,0 -1.1977,-0.11022 -1.5725,0.10287 -0.33854,0.1925 -0.44087,0.76418 -0.44087,0.76418 0,0 0.25717,-0.45557 1.1757,-0.41148 0.91848,0.04409 1.0214,0.04409 1.0214,0.04409 0,0 -1.5578,0.11757 -1.9178,0.56579 -0.36004,0.44822 1.4696,0.65396 1.4696,0.65396 0,0 -2.7996,0.01469 -3.167,-0.15431 -0.36739,-0.169 -0.60251,-0.74214 -1.2271,-0.56579 -0.62459,0.17635 -1.2639,0.73479 -1.2639,0.73479 0,0 0.71276,-1.1977 1.161,-1.2051 0.44823,-0.0073 0.71274,-0.02939 1.1169,0.1543 0.40416,0.183694 0.77888,0.38944 0.77888,0.38944 z m -10.468,2.2676 c 0,0 0.21188,-1.319 0.94322,-1.7027 0.58309,-0.30599 1.6747,0.11856 1.6747,0.11856 0,0 -1.1974,0.11314 -1.5263,0.39185 -0.29711,0.25178 -0.29197,0.83253 -0.29197,0.83253 0,0 0.1685,-0.49527 1.0793,-0.62178 0.91081,-0.1265 1.0119,-0.14552 1.0119,-0.14552 0,0 -1.5092,0.40358 -1.7801,0.91064 -0.27096,0.50707 1.5652,0.37096 1.5652,0.37096 0,0 -2.7486,0.53209 -3.1409,0.43394 -0.39231,-0.09816 -0.72937,-0.61794 -1.3106,-0.32914 -0.5812,0.2888 -1.1062,0.95581 -1.1062,0.95581 0,0 0.47901,-1.3088 0.91814,-1.3989 0.43914,-0.0901 0.69502,-0.16067 1.1262,-0.05487 0.43114,0.1058 0.83746,0.23871 0.83746,0.23871 z m 19.297,-2.7323 c 0,0 0.52419,-1.2287 1.3266,-1.4245 0.63975,-0.1561 1.5965,0.51954 1.5965,0.51954 0,0 -1.1893,-0.17942 -1.5758,0.0116 -0.34912,0.17257 -0.48441,0.73736 -0.48441,0.73736 0,0 0.28313,-0.43991 1.1975,-0.34268 0.91438,0.09722 1.0171,0.10319 1.0171,0.10319 0,0 -1.562,0.02712 -1.9474,0.45373 -0.38541,0.42661 1.4292,0.73801 1.4292,0.73801 0,0 -2.7957,-0.14752 -3.1527,-0.33752 -0.35699,-0.19 -0.55853,-0.7758 -1.1923,-0.63593 -0.63375,0.13987 -1.3043,0.66034 -1.3043,0.66034 0,0 0.78095,-1.1544 1.2288,-1.1358 0.44789,0.01863 0.71325,0.01195 1.1061,0.21875 0.39285,0.206799 0.755,0.43391 0.755,0.43391 z m 8.8396,0.99995 c 0,0 0.66398,-1.1592 1.4837,-1.26 0.65358,-0.08038 1.5249,0.70228 1.5249,0.70228 0,0 -1.1603,-0.31697 -1.5664,-0.17235 -0.36686,0.13065 -0.56713,0.6758 -0.56713,0.6758 0,0 0.33254,-0.40386 1.2293,-0.2006 0.89681,0.20326 0.99811,0.22116 0.99811,0.22116 0,0 -1.5544,-0.15532 -1.987,0.2234 -0.43256,0.37872 1.3333,0.89974 1.3333,0.89974 0,0 -2.7594,-0.47274 -3.0918,-0.7031 -0.33237,-0.23036 -0.46418,-0.83567 -1.1099,-0.77071 -0.64575,0.06497 -1.3724,0.50363 -1.3724,0.50363 0,0 0.91032,-1.0554 1.353,-0.98463 0.44265,0.07077 0.70697,0.0951 1.073,0.34632 0.36599,0.25123 0.69921,0.51905 0.69921,0.51905 z m 8.7777,1.567 c 0,0 0.61848,-0.88285 1.2846,-0.9038 0.53109,-0.01671 1.174,0.67605 1.174,0.67605 0,0 -0.90912,-0.33971 -1.2461,-0.25325 -0.30437,0.07811 -0.50524,0.50151 -0.50524,0.50151 0,0 0.2968,-0.30018 1.0026,-0.07114 0.70574,0.22903 0.78584,0.25084 0.78584,0.25084 0,0 -1.2377,-0.23869 -1.6131,0.03396 -0.37532,0.27265 1.0056,0.82068 1.0056,0.82068 0,0 -2.1828,-0.58202 -2.433,-0.79149 -0.25022,-0.20946 -0.31178,-0.70553 -0.83543,-0.70063 -0.52365,0.0049 -1.1398,0.30416 -1.1398,0.30416 0,0 0.80883,-0.78139 1.1594,-0.6921 0.35053,0.08929 0.56114,0.1282 0.83685,0.35689 0.27569,0.22869 0.52385,0.46832 0.52385,0.46832 z"
         inkscape:connector-curvature="0"
         style="fill-rule:evenodd" /><path
         id="path199"
         d="m 290.64,81.076 c 0.21091,1.0473 -1.0211,2.1777 -2.751,2.5243 -1.73,0.34657 -3.3023,-0.22206 -3.5111,-1.2698 -0.21089,-1.0473 1.0211,-2.1777 2.7511,-2.5243 1.73,-0.34657 3.3023,0.22206 3.5111,1.2698 z"
         inkscape:connector-curvature="0"
         style="fill:#0f6545;stroke:#000000;stroke-width:0.43535;stroke-linejoin:round" /><path
         id="path201"
         d="m 286.72,80.905 c 0.0509,0.25383 -0.21659,0.52144 -0.59734,0.59772 -0.38076,0.07628 -0.73064,-0.06766 -0.78149,-0.3215 -0.0508,-0.25384 0.21659,-0.52144 0.59734,-0.59772 0.38076,-0.07628 0.73064,0.06766 0.78149,0.3215 z"
         inkscape:connector-curvature="0"
         style="fill:#cecfc1" /><path
         id="path203"
         d="m 315.09,82.344 c -0.319,1.0196 -1.9429,1.4178 -3.6262,0.88933 -1.6834,-0.52852 -2.7882,-1.7835 -2.4671,-2.8024 0.31901,-1.0196 1.9429,-1.4178 3.6262,-0.88932 1.6834,0.52851 2.7882,1.7835 2.4671,2.8024 z"
         inkscape:connector-curvature="0"
         style="fill:#0f6545;stroke:#000000;stroke-width:0.43535;stroke-linejoin:round" /><path
         id="path205"
         d="m 311.73,80.308 c -0.0776,0.24699 -0.44075,0.35292 -0.81124,0.2366 -0.3705,-0.11632 -0.60797,-0.41084 -0.53041,-0.65783 0.0775,-0.24699 0.44074,-0.35292 0.81123,-0.2366 0.37049,0.11632 0.60797,0.41084 0.53042,0.65784 z"
         inkscape:connector-curvature="0"
         style="fill:#cecfc1" /><path
         id="path207"
         d="m 296.63,78.715 h 6.337 v 3.195 h -6.337 z"
         inkscape:connector-curvature="0"
         style="fill:#1f2d86;stroke:#000000;stroke-width:0.61935002;stroke-linejoin:round" /><path
         id="path209"
         d="m 299.3,79.395 c 0,0.14463 -0.26964,0.26187 -0.60228,0.26187 -0.33265,0 -0.60231,-0.11724 -0.60231,-0.26187 0,-0.14463 0.26966,-0.26187 0.60231,-0.26187 0.33264,0 0.60228,0.11724 0.60228,0.26187 z"
         inkscape:connector-curvature="0"
         style="fill:#707c8b" /><path
         id="path211"
         d="m 278.72,81.909 1.0475,3.09 -1.9378,1.0475 c 0,0 -0.89035,0.62848 -1.7807,0.15712 -0.89034,-0.47137 -1.4156,-1.8831 -0.94273,-2.4616 0.9381,-1.1477 3.6138,-1.8855 3.6138,-1.8331 z"
         inkscape:connector-curvature="0"
         style="fill:#9f1209;fill-rule:evenodd;stroke:#000000;stroke-width:0.32596999" /><path
         id="path213"
         d="m 277.09,84.109 c 3.5e-4,0.52092 -0.39837,0.9434 -0.89034,0.9434 -0.49198,0 -0.89072,-0.42248 -0.89036,-0.9434 -3.6e-4,-0.52092 0.39838,-0.9434 0.89036,-0.9434 0.49197,0 0.89069,0.42249 0.89034,0.9434 z"
         inkscape:connector-curvature="0"
         style="fill:#8f322f" /><path
         id="path215"
         d="m 276.25,83.74 c 0.0274,0.16636 -0.0115,0.33068 -0.10194,0.43094 -0.0904,0.10026 -0.21868,0.12119 -0.33631,0.05491 -0.11764,-0.06629 -0.20675,-0.20971 -0.23371,-0.37614 -0.0274,-0.16636 0.0115,-0.33068 0.10194,-0.43094 0.0904,-0.10026 0.21867,-0.12119 0.33631,-0.05491 0.11763,0.06629 0.20674,0.20971 0.23371,0.37614 z"
         inkscape:connector-curvature="0"
         style="fill:#e2a494" /><path
         id="path217"
         d="m 321.17,82.312 -1.0404,2.7521 2.4668,1.2921 c 0,0 1.0908,0.48665 1.7788,-0.11747 0.58822,-0.51649 0.72158,-1.7117 0.25171,-2.3158 -0.44492,-0.57204 -3.4904,-1.6278 -3.4569,-1.611 z"
         inkscape:connector-curvature="0"
         style="fill:#9f1209;fill-rule:evenodd;stroke:#000000;stroke-width:0.32596999" /><path
         id="path219"
         d="m 324.13,84.518 c 0,0.33828 -0.35312,0.61251 -0.78871,0.61251 -0.43559,0 -0.7887,-0.27423 -0.7887,-0.61251 0,-0.33828 0.35311,-0.61251 0.7887,-0.61251 0.43559,0 0.78871,0.27423 0.78871,0.61251 z"
         inkscape:connector-curvature="0"
         style="fill:#aa675d" /><path
         id="path221"
         d="m 323.37,84.426 c 1.9e-4,0.16202 -0.0701,0.31184 -0.18444,0.39291 -0.1143,0.08107 -0.25517,0.08107 -0.36948,0 -0.11429,-0.08108 -0.18462,-0.23089 -0.18444,-0.39291 -1.8e-4,-0.16202 0.0702,-0.31183 0.18444,-0.39291 0.11431,-0.08108 0.25518,-0.08108 0.36948,0 0.1143,0.08108 0.18463,0.23089 0.18444,0.39291 z"
         inkscape:connector-curvature="0"
         style="fill:#e2a494" /><path
         id="path223"
         d="m 305.34,78.987 c 2.3e-4,0.23518 -0.19952,0.42595 -0.44601,0.42595 -0.24649,0 -0.44625,-0.19077 -0.44601,-0.42595 -2.3e-4,-0.23518 0.19952,-0.42595 0.44601,-0.42595 0.24649,0 0.44625,0.19077 0.44601,0.42595 z m 2.696,0.156 c 2.3e-4,0.23518 -0.19952,0.42595 -0.44601,0.42595 -0.24649,0 -0.44625,-0.19077 -0.44601,-0.42595 -2.3e-4,-0.23518 0.19952,-0.42595 0.44601,-0.42595 0.24649,0 0.44625,0.19077 0.44601,0.42595 z m -1.3692,1.0448 c 2.9e-4,0.29559 -0.25077,0.53537 -0.56058,0.53537 -0.30981,0 -0.56087,-0.23977 -0.56058,-0.53537 -2.9e-4,-0.29559 0.25077,-0.53537 0.56058,-0.53537 0.30981,0 0.56087,0.23977 0.56058,0.53537 z M 307.97,81.95 c 2.3e-4,0.23518 -0.19952,0.42595 -0.44601,0.42595 -0.24649,0 -0.44625,-0.19077 -0.44601,-0.42595 -2.3e-4,-0.23518 0.19952,-0.42595 0.44601,-0.42595 0.24649,0 0.44625,0.19077 0.44601,0.42595 z m -2.602,-0.335 c 2.3e-4,0.23518 -0.19952,0.42595 -0.44601,0.42595 -0.24649,0 -0.44625,-0.19077 -0.44601,-0.42595 -2.3e-4,-0.23518 0.19952,-0.42595 0.44601,-0.42595 0.24649,0 0.44625,0.19077 0.44601,0.42595 z m -13.055,-2.1668 c 0.0533,0.22907 -0.0983,0.45998 -0.33843,0.51559 -0.24014,0.0556 -0.47778,-0.08519 -0.53061,-0.31436 -0.0533,-0.22907 0.0983,-0.45998 0.33843,-0.51559 0.24014,-0.0556 0.47778,0.08519 0.53061,0.31436 z m 2.662,-0.45705 c 0.0533,0.22907 -0.0983,0.45998 -0.33843,0.51559 -0.24014,0.0556 -0.47778,-0.08519 -0.53061,-0.31436 -0.0533,-0.22907 0.0983,-0.45998 0.33843,-0.51559 0.24014,-0.0556 0.47778,0.08519 0.53061,0.31436 z m -1.0792,1.3295 c 0.067,0.28792 -0.12353,0.57816 -0.42536,0.64805 -0.30183,0.06989 -0.60052,-0.10706 -0.66693,-0.39511 -0.067,-0.28792 0.12353,-0.57816 0.42536,-0.64805 0.30183,-0.06989 0.60052,0.10706 0.66693,0.39511 z m 1.6486,1.4198 c 0.0533,0.22907 -0.0983,0.45998 -0.33843,0.51559 -0.24014,0.0556 -0.47778,-0.08519 -0.53061,-0.31436 -0.0533,-0.22907 0.0983,-0.45998 0.33843,-0.51559 0.24014,-0.0556 0.47778,0.08519 0.53061,0.31436 z m -2.6106,0.26036 c 0.0533,0.22907 -0.0983,0.45998 -0.33843,0.51559 -0.24014,0.0556 -0.47778,-0.08519 -0.53061,-0.31436 -0.0533,-0.22907 0.0983,-0.45998 0.33843,-0.51559 0.24014,-0.05561 0.47778,0.08519 0.53061,0.31436 z m -11.98,-0.09971 c 0.0853,0.21916 -0.0318,0.46929 -0.26161,0.5585 -0.22978,0.08921 -0.48504,-0.01633 -0.56994,-0.23565 -0.0853,-0.21916 0.0318,-0.46929 0.26161,-0.5585 0.22978,-0.08921 0.48504,0.01633 0.56994,0.23565 z m 2.5702,-0.83097 c 0.0853,0.21916 -0.0318,0.46929 -0.26161,0.5585 -0.22978,0.08921 -0.48504,-0.01633 -0.56994,-0.23565 -0.0853,-0.21916 0.0318,-0.46929 0.26161,-0.5585 0.22978,-0.08921 0.48504,0.01633 0.56994,0.23565 z m -0.88601,1.4674 c 0.10727,0.27545 -0.04,0.58985 -0.3288,0.70199 -0.28881,0.11214 -0.60965,-0.0205 -0.71637,-0.29616 -0.10727,-0.27545 0.04,-0.58985 0.3288,-0.70199 0.28881,-0.11214 0.60965,0.0205 0.71637,0.29616 z m 1.8406,1.1729 c 0.0853,0.21916 -0.0318,0.46929 -0.26161,0.5585 -0.22978,0.08921 -0.48504,-0.01633 -0.56994,-0.23565 -0.0853,-0.21916 0.0318,-0.46929 0.26161,-0.5585 0.22978,-0.08921 0.48504,0.01633 0.56994,0.23565 z m -2.5473,0.62889 c 0.0853,0.21916 -0.0318,0.46929 -0.26161,0.5585 -0.22978,0.08921 -0.48504,-0.01633 -0.56994,-0.23565 -0.0853,-0.21916 0.0318,-0.46929 0.26161,-0.5585 0.22978,-0.08921 0.48504,0.01633 0.56994,0.23565 z m 35.116,-3.6757 c -0.06,0.24617 -0.31798,0.3946 -0.57593,0.33141 -0.25794,-0.06319 -0.41808,-0.31402 -0.35755,-0.56008 0.06,-0.24617 0.31798,-0.3946 0.57593,-0.33141 0.25794,0.06319 0.41808,0.31402 0.35755,0.56008 z m 2.782,0.85393 c -0.06,0.24617 -0.31798,0.3946 -0.57593,0.33141 -0.25794,-0.06318 -0.41808,-0.31402 -0.35755,-0.56008 0.06,-0.24617 0.31798,-0.3946 0.57593,-0.33141 0.25794,0.06318 0.41808,0.31402 0.35755,0.56008 z m -1.6968,0.74596 c -0.0755,0.30941 -0.39967,0.49597 -0.72388,0.41655 -0.32421,-0.07942 -0.52548,-0.39469 -0.4494,-0.70395 0.0755,-0.30941 0.39967,-0.49597 0.72388,-0.41655 0.32421,0.07942 0.52548,0.39469 0.4494,0.70395 z m 0.90869,2.1747 c -0.06,0.24617 -0.31798,0.3946 -0.57593,0.33141 -0.25794,-0.06318 -0.41808,-0.31402 -0.35755,-0.56008 0.06,-0.24617 0.31798,-0.3946 0.57593,-0.33141 0.25794,0.06318 0.41808,0.31402 0.35755,0.56008 z m -2.6373,-1.0182 c -0.06,0.24617 -0.31798,0.3946 -0.57593,0.33141 -0.25794,-0.06319 -0.41808,-0.31402 -0.35755,-0.56008 0.06,-0.24617 0.31798,-0.3946 0.57593,-0.33141 0.25794,0.06319 0.41808,0.31402 0.35755,0.56008 z"
         inkscape:connector-curvature="0"
         style="fill:#f5d8bc" /><path
         id="path225"
         d="m 322.48,55.582 c 0,0 -1.2821,1.2019 -2.8045,1.2019 -1.5224,0 -2.4039,-0.64104 -2.8847,-0.96155 -0.48077,-0.32052 0.16027,-1.2821 0.16027,-1.2821"
         inkscape:connector-curvature="0"
         style="fill:none;stroke:#000000;stroke-width:0.74972999" /><path
         id="path227"
         d="m 295.56,57.986 c 0,0 -2.3238,-0.40064 -3.2853,-0.72116 -0.96155,-0.32052 -0.72117,-0.96155 -1.843,-0.88142 -1.1218,0.08013 -2.2436,0.88142 -2.0033,2.0032 0.2404,1.1218 1.0417,1.2821 1.843,1.0417 0.80131,-0.24039 0.56093,-1.6026 -0.48077,-1.5225 -1.0417,0.08013 -0.16025,0.96156 -0.16025,0.96156"
         inkscape:connector-curvature="0"
         style="fill:none;stroke:#000000;stroke-width:0.68453997" /><path
         id="path229"
         d="m 279.53,56.223 c 0,0 0.64103,0.96155 2.3238,0.80129 1.6827,-0.16026 2.3238,-1.0417 2.4039,-1.4423 0.0801,-0.40064 0,-1.1218 -0.32052,-1.4423 -0.32052,-0.32052 -1.4423,-0.48078 -1.4423,-0.48078"
         inkscape:connector-curvature="0"
         style="fill:none;stroke:#000000;stroke-width:0.65193999" /><g
         transform="matrix(1.0595527,0,0,1.0595527,79.876203,-7.4118335)"
         inkscape:label="redhand"
         id="g1009"><path
           inkscape:connector-curvature="0"
           style="fill:#cc0000;fill-opacity:1;stroke:#161111;stroke-width:0.94945729;stroke-linecap:round;stroke-linejoin:round;stroke-miterlimit:4;stroke-dasharray:none;stroke-opacity:1"
           id="path3484-5"
           d="m 219.25904,166.66105 c 1.47623,-1.45257 3.62815,-2.08657 5.09863,-5.88719 1.23461,-3.27182 2.17456,-8.44052 3.01355,-11.55627 0.30953,-1.09784 0.72407,-3.22152 1.09756,-4.7784 0.32662,-1.36152 0.90913,-2.7712 1.07527,-3.33313 0.32308,-1.09273 0.43188,-2.36825 0.57388,-3.26 0.30903,-1.94054 0.5732,-3.28888 -0.89048,-3.14437 -1.52898,0.15096 -1.97325,0.37768 -2.60348,1.29849 -0.58159,0.84974 -1.32971,2.07255 -1.76935,3.44288 -0.60092,1.98218 -1.03426,3.76929 -1.56934,5.15228 -0.62179,1.60708 -0.73646,1.38669 -1.64054,3.29531 -1.24865,-1.65981 -1.33748,-2.99954 -1.6458,-5.30924 -0.30673,-2.29782 -0.55944,-4.74213 -0.64654,-7.37449 -0.16382,-4.95076 -0.4524,-10.1388 -0.51272,-12.06144 -0.16223,-2.53854 0.0133,-6.19137 -0.58202,-8.06736 -0.2775,-0.87445 -0.88744,-2.07959 -2.05442,-2.04289 -1.35359,0.01 -2.21698,1.07384 -2.39981,2.18004 -0.13175,0.87414 -0.19694,2.55045 -0.24994,3.68243 -0.077,1.64502 -0.0667,3.05501 -0.004,4.67468 0.0688,1.78021 0.0151,7.23696 -0.0203,9.01211 -0.0654,3.27744 -0.47267,3.45832 -1.08099,3.41644 -0.4689,-0.39162 -0.23161,-6.69477 -0.41709,-12.13602 -0.0704,-2.06436 -0.12503,-4.79276 -0.16093,-6.68825 -0.029,-1.53295 -0.0283,-3.36608 -0.19273,-4.55696 -0.28065,-2.03184 -0.8783,-3.34063 -2.35218,-3.34063 -0.99407,0 -1.81643,0.0334 -2.27162,2.29301 -0.24534,1.2179 -0.35023,4.18955 -0.31683,5.81751 0.0373,1.81825 0.0447,2.89002 0.0939,5.39182 0.0898,4.57085 0.48348,12.86914 -0.60709,13.07765 -0.95481,-0.20459 -0.81353,-2.00028 -0.98078,-6.3422 -0.0659,-1.71046 -0.20943,-4.63764 -0.3012,-6.61048 -0.10972,-2.35903 -0.24064,-5.79423 -0.29976,-7.36791 -0.16084,-1.45365 -0.30224,-3.40286 -2.13164,-3.23846 -0.96032,-0.11738 -1.66448,0.61509 -2.07391,3.20421 -0.22801,1.44189 -0.0726,7.18926 0.0145,9.10082 0.17333,3.80527 0.1183,4.73539 0.13968,7.1312 0.0208,2.32477 0.2452,5.49198 -0.62068,5.54684 -1.04246,-0.0153 -0.74332,-1.69522 -0.91455,-4.35813 -0.16801,-2.61288 -0.27406,-5.94559 -0.25279,-5.18065 0,-1.34533 -0.16617,-3.32206 -0.28753,-4.97458 -0.0949,-1.29053 -0.0356,-2.71431 -1.4354,-2.60059 -1.42071,0.11542 -2.29283,0.59574 -2.58674,3.02805 -0.1904,1.57562 -0.24265,4.98198 -0.28409,6.21667 0.15272,3.1407 -0.61448,9.52948 -0.99471,11.61161 -0.10386,1.47537 -0.75823,4.32809 -1.00457,6.3849 -0.52998,4.42651 -0.74019,7.48802 -0.15434,10.14074 0.46046,2.31491 0.78691,4.12478 1.68274,5.98201 0.83192,1.72476 2.38746,3.37637 2.72959,4.79344 0.6679,2.76639 0.35549,8.10587 0.35549,10.34925 0,2.24339 1.94877,2.36428 5.98307,1.49554 6.59595,-1.42089 10.20037,1.42087 15.64695,-0.67303 -0.69104,-6.20659 0.65527,-9.93795 0.61982,-12.18134 z"
           sodipodi:nodetypes="cccssssscscsscsccssscssssssscssccssscscsssccscssscccc" /><path
           d="m 210.25099,160.65706 c 0.15032,-7.6679 7.10491,-16.02921 9.77711,-17.67446"
           id="path3488-5"
           style="fill:none;fill-opacity:1;stroke:#161111;stroke-width:0.94999999;stroke-miterlimit:4;stroke-dasharray:none;stroke-opacity:1"
           inkscape:connector-curvature="0"
           sodipodi:nodetypes="cc" /><path
           style="fill:none;stroke:#161111;stroke-width:0.94999999;stroke-linecap:butt;stroke-linejoin:miter;stroke-miterlimit:4;stroke-dasharray:none;stroke-opacity:1"
           d="m 200.34284,148.06421 c 2.05418,-0.8101 4.18709,-1.3982 6.27428,-2.1119 2.55434,-0.72051 5.02785,-1.75322 7.6637,-2.16138 1.26995,-0.25881 4.30908,-1.06687 5.60442,-1.15428"
           id="path3953-9"
           inkscape:connector-curvature="0"
           sodipodi:nodetypes="cccc" /><path
           style="fill:none;stroke:#161111;stroke-width:0.94999999;stroke-linecap:round;stroke-linejoin:round;stroke-miterlimit:4;stroke-dasharray:none;stroke-opacity:1"
           d="m 196.37517,167.9824 c 0.2192,0.39 0.73719,0.4111 1.46518,0.46569 0.79999,0.0119 0.92234,0.0371 1.42866,0.034 0.89582,-0.0129 1.47455,-0.0137 2.3703,0.003 0.68144,-0.0215 2.98867,-0.46473 4.70583,-0.60288 0.96102,-0.0773 1.72798,0.14927 2.22598,0.18287"
           id="path3960-0"
           inkscape:connector-curvature="0"
           sodipodi:nodetypes="ccccsc" /><path
           style="fill:none;stroke:#161111;stroke-width:0.9495669px;stroke-linecap:round;stroke-linejoin:round;stroke-opacity:1"
           d="m 207.37544,167.88216 c 0.14622,0.12008 1.44908,0.11259 2.40739,0.4086 0.8459,0.26133 1.43766,0.31529 1.59281,0.37659 0.59043,0.0638 0.20066,0.37733 3.50599,0.11118 2.05032,0.13101 3.86567,-1.63948 4.37741,-2.11748"
           id="path3962-8"
           inkscape:connector-curvature="0"
           sodipodi:nodetypes="csccc" /></g></g></g></g></svg>